<svg width="202" height="202" fill="none" xmlns="http://www.w3.org/2000/svg"><circle opacity=".203" cx="101" cy="101" r="101" transform="matrix(-1 0 0 1 202 0)" fill="url(#a)"/><path d="M164.844 138.136s22.595-58.965 10.889-67.957c-11.705-8.993-60.798-5.361-63.487-2.149-2.69 3.213-18.526 74.191-18.526 74.191l71.124-4.085Z" fill="#231F20"/><path fill-rule="evenodd" clip-rule="evenodd" d="M93.425 142.461a.356.356 0 0 0 .26.117l.021.013 71.159-4.118a.336.336 0 0 0 .302-.22l.004-.009c.169-.442 5.768-15.091 9.842-30.627 5.592-21.225 5.908-33.882.933-37.699-7.149-5.485-27.109-5.821-35.342-5.711-14.025.185-27.13 1.84-28.619 3.617-2.717 3.24-17.984 71.438-18.629 74.342a.329.329 0 0 0 .07.295Zm47.192-77.588h2.58c15.953 0 27.665 2.01 32.31 5.573 11.033 8.464-9.475 63.51-10.923 67.347l-70.487 4.064c5.517-24.643 16.33-71.129 18.389-73.607 1.201-1.407 13.722-3.185 28.131-3.377Z" fill="#231F20"/><path d="M73.102 87.189 62.92 121.38s21.002 2.712 21.002 1.936c0-.775 4.117-37.624 4.117-37.624L73.102 87.19Z" fill="#fff"/><path fill-rule="evenodd" clip-rule="evenodd" d="M62.879 121.703c6.374.838 16.44 2.059 19.987 2.059.428.04.86-.019 1.262-.171a.44.44 0 0 0 .137-.295c0-.694 2.697-24.89 4.117-37.59a.316.316 0 0 0-.096-.275.336.336 0 0 0-.275-.102l-14.943 1.496a.343.343 0 0 0-.295.247L62.59 121.264a.351.351 0 0 0 .289.439Zm20.686 1.394c-1.591.226-12.926-1.071-20.227-2.005l10.004-33.58 14.285-1.435-.111 1.003c-.736 6.598-3.705 33.228-3.95 36.017Z" fill="#231F20"/><path d="M53.801 78.698c.09.096 3.705-.872 5.571 1.372 1.867 2.245-.555 4.25-6.45 3.09-5.893-1.16.879-4.462.879-4.462Z" fill="#fff"/><path fill-rule="evenodd" clip-rule="evenodd" d="M52.854 83.503a16.79 16.79 0 0 0 3.177.336c2.024 0 3.5-.522 4.069-1.421.439-.755.281-1.654-.46-2.533-1.649-1.977-4.543-1.625-5.524-1.506l-.02.003h-.226a.342.342 0 0 0-.22 0c-.617.309-3.678 1.88-3.479 3.432.103.803.982 1.352 2.683 1.689Zm-1.983-1.813c-.096-.761 1.667-1.97 3.005-2.656.083 0 .179 0 .31-.028.953-.123 3.498-.439 4.912 1.25.483.43.64 1.119.391 1.716-.508.858-2.511 1.586-6.498.803-1.763-.35-2.12-.83-2.12-1.085Z" fill="#231F20"/><path d="M44.737 71.524s-.74-.85-.274-1.448a1.008 1.008 0 0 1 1.633.15s-1.167.42-1.359 1.298Z" fill="#fff"/><path fill-rule="evenodd" clip-rule="evenodd" d="M44.47 71.758a.357.357 0 0 0 .267.116l.09-.006a.35.35 0 0 0 .253-.268c.124-.556.858-.94 1.132-1.037a.35.35 0 0 0 .22-.24.344.344 0 0 0-.069-.323 1.502 1.502 0 0 0-1.194-.624c-.385 0-.747.18-.98.487-.515.645-.062 1.496.28 1.895Zm.281-1.462a.562.562 0 0 1 .432-.213l.007.027a.556.556 0 0 1 .302.041 2.694 2.694 0 0 0-.741.632.528.528 0 0 1 0-.487Z" fill="#231F20"/><path d="M46.356 70.192a1.853 1.853 0 0 0-1.674 1.524L59.4 90.875a4.118 4.118 0 0 1 3.52-3.672l-16.564-17.01Z" fill="#fff"/><path fill-rule="evenodd" clip-rule="evenodd" d="M59.118 91.088a.35.35 0 0 0 .275.137l.103-.014a.35.35 0 0 0 .254-.308 3.761 3.761 0 0 1 3.231-3.35.35.35 0 0 0 .275-.24.343.343 0 0 0-.083-.358L46.61 69.945a.357.357 0 0 0-.254-.11 2.237 2.237 0 0 0-2.017 1.785.357.357 0 0 0 .062.31l14.717 19.158Zm.097-1.037L45.073 71.648a1.51 1.51 0 0 1 1.153-1.085l16 16.434a4.392 4.392 0 0 0-3.011 3.054Z" fill="#231F20"/><path d="m59.4 90.875 5.022 2.609.625-.584-2.127-5.698s-3.911-.39-3.52 3.673Z" fill="#fff"/><path fill-rule="evenodd" clip-rule="evenodd" d="M64.258 93.792a.364.364 0 0 0 .405-.048l.624-.583a.35.35 0 0 0 .089-.385l-2.12-5.697a.357.357 0 0 0-.302-.233 4.115 4.115 0 0 0-3.026.981 3.653 3.653 0 0 0-.885 3.075.35.35 0 0 0 .192.282l5.023 2.608Zm.103-.741-4.625-2.403a2.884 2.884 0 0 1 .686-2.32 3.354 3.354 0 0 1 2.25-.782l1.963 5.258-.274.247Z" fill="#231F20"/><path d="m64.422 93.484.96 1.03.454-.516-.79-1.098-.624.584Z" fill="#fff"/><path fill-rule="evenodd" clip-rule="evenodd" d="M65.13 94.753a.33.33 0 0 0 .253.117h.027a.336.336 0 0 0 .261-.124l.453-.514a.35.35 0 0 0 0-.44l-.79-1.098a.356.356 0 0 0-.527-.055l-.625.584a.364.364 0 0 0-.116.247.374.374 0 0 0 .096.254l.967 1.03Zm.246-.768-.453-.488.062-.055.391.543Z" fill="#231F20"/><path d="M54.734 92.378c.81-1.64 2.84-5.12 3.307-6.63 1.29-4.12-6.264-7.977-8.707-7.977-2.442 0-7.547 8.54-7.547 13.104 0 4.565 16.913 39.518 16.913 39.518l16.227-7.427-20.193-30.588Z" fill="#fff"/><path fill-rule="evenodd" clip-rule="evenodd" d="M58.405 130.551a.35.35 0 0 0 .316.199.256.256 0 0 0 .171-.034l16.234-7.441a.354.354 0 0 0 .192-.22.37.37 0 0 0-.048-.295L55.173 92.35c.152-.282.324-.61.513-.968l.434-.823a37.727 37.727 0 0 0 2.292-4.702 4.12 4.12 0 0 0-.844-3.775c-1.983-2.664-6.354-4.668-8.234-4.668-2.724 0-7.883 8.876-7.883 13.461 0 4.47 15.462 36.578 16.873 39.509l.081.167Zm-16.24-39.676c0-4.517 5.022-12.754 7.17-12.754 1.577 0 5.742 1.805 7.657 4.407a3.433 3.433 0 0 1 .734 3.144 37.485 37.485 0 0 1-2.237 4.578 90.262 90.262 0 0 0-1.05 1.998.37.37 0 0 0 0 .357l19.987 30.203-15.54 7.125-.047-.096C56.953 125.9 42.164 95.04 42.164 90.875Z" fill="#231F20"/><path d="m141.07 99.298 20.001-5.1c-.686-.968-8.755-26.593-17.263-30.787-7.445-4.943-25.099-8.238-40.695-7.119 0 0-4.117-.15-11.335 2.712C74.2 65.992 70.81 90.326 70.81 90.326l13.723 4.743s-2.621 31.473-5.098 47.927c0 0 30.341 5.938 74.514-1.372.034-.014-12.797-37.672-12.879-42.326Z" fill="#E7816B"/><path d="M139.423 64.118c-2.648 2.745-4.713 6.04-7.636 8.628-6.299 5.574-14.539 9.988-23.178 9.452-10.182-.631-18.985-7.592-21.194-17.73-1.373-6.357.054-12.26 4.967-16.75 3.397-3.102 7.747-4.997 12.193-6.178 11.808-3.164 25.057-1.482 35.137 5.45a12.542 12.542 0 0 1 4.061 4.037c2.519 4.565-.377 9.26-3.643 12.397-.219.213-.453.453-.707.694Z" fill="#E7816B"/><path d="M104.684 71.311c-.102 0-1.996 2.307-2.092 2.341 1.077 4.064 2.216 9.356 6.813 9.878 9.325 1.064 10.738-11.374 12.495-17.243-6.457 1.812-11.013 2.54-17.216 5.024Z" fill="#231F20"/><path fill-rule="evenodd" clip-rule="evenodd" d="M109.371 83.873c.373.043.749.066 1.125.069 7.314-.007 9.489-8.711 10.909-14.587l.081-.32c.244-.973.473-1.887.709-2.673a.357.357 0 0 0-.083-.336.342.342 0 0 0-.336-.09 197.414 197.414 0 0 1-5.553 1.455h-.005a85.343 85.343 0 0 0-11.664 3.577c-.11.048-.123.055-1.187 1.277-.364.426-.864 1.01-.974 1.112a.342.342 0 0 0-.137.364l.178.686.011.043c1.048 3.967 2.352 8.903 6.926 9.423Zm-6.299-9.637-.123-.474h.02c.151-.165.419-.467.899-1.085.357-.418.837-.967.974-1.105a82.802 82.802 0 0 1 11.555-3.528l.923-.235c1.285-.327 2.635-.67 4.065-1.062a89.59 89.59 0 0 0-.624 2.423l-.005.017c-1.564 6.273-3.701 14.843-11.33 13.972-4.115-.431-5.299-4.922-6.347-8.897l-.007-.026Z" fill="#231F20"/><path d="M113.714 23.432c-1.372-.055-2.25.543-3.431.968-2.298.81-3.369-1.112-5.345-2.135a15.179 15.179 0 0 0-18.827 3.947 11.35 11.35 0 0 0-2.56 5.698c-.288 2.375.378 4.805-.034 7.152a8.079 8.079 0 0 1-4.995 6.041 19.24 19.24 0 0 0 6.532-.618 6.648 6.648 0 0 1-4.967 2.369 12.347 12.347 0 0 0 7.636 2.56l-4.837 1.133c4.117 2.642 9.133 3.432 13.984 3.212 9.66-.5 25.839-4.455 25.558-16.976-.158-4.798-2.793-13.076-8.714-13.35Z" fill="#fff"/><path fill-rule="evenodd" clip-rule="evenodd" d="M82.673 50.855c4.103 2.623 8.838 3.31 12.536 3.31.576 0 1.132-.015 1.709-.056 2.915-.15 10.381-.878 16.638-4.015 6.258-3.138 9.366-7.62 9.242-13.31-.096-5.368-3.074-13.427-9.015-13.688a5.889 5.889 0 0 0-2.704.638l-.129.054c-.24.1-.487.203-.749.296-1.441.501-2.319-.164-3.431-1.009a11.446 11.446 0 0 0-1.66-1.105A15.516 15.516 0 0 0 85.857 26a11.713 11.713 0 0 0-2.635 5.875 18.355 18.355 0 0 0 0 3.433 15.3 15.3 0 0 1-.04 3.72 7.701 7.701 0 0 1-4.804 5.773.336.336 0 0 0-.22.37c.022.16.15.282.31.296a19.34 19.34 0 0 0 5.447-.343 6.29 6.29 0 0 1-3.863 1.407.343.343 0 0 0-.206.618 12.76 12.76 0 0 0 5.627 2.457l-2.69.625a.364.364 0 0 0-.26.274.35.35 0 0 0 .15.35Zm14.155 2.623c-3.56.171-8.645-.172-13.077-2.746l4.034-1.01a.343.343 0 0 0 .26-.377.336.336 0 0 0-.342-.302 12.003 12.003 0 0 1-6.676-1.95 7.018 7.018 0 0 0 4.267-2.416.35.35 0 0 0 0-.404.343.343 0 0 0-.384-.145 19.17 19.17 0 0 1-5.063.687 8.395 8.395 0 0 0 3.959-5.69 16.04 16.04 0 0 0 .054-3.886 17.55 17.55 0 0 1 0-3.288 11.034 11.034 0 0 1 2.491-5.492 14.816 14.816 0 0 1 18.402-3.85c.549.298 1.07.645 1.558 1.036 1.173.892 2.284 1.737 4.061 1.112.284-.097.552-.21.814-.32l.106-.044a5.418 5.418 0 0 1 2.408-.583c5.503.268 8.241 7.935 8.357 13.042.117 5.41-2.861 9.672-8.865 12.679-6.209 3.116-13.51 3.796-16.364 3.947Z" fill="#231F20"/><path d="m101.906 61.832.686 11.82s5.4 6.178 12.35 2.382c6.951-3.796 6.683-9.816 6.683-9.816l-4.563-22.193s-6.305-1.455-7.911-13.88a38.112 38.112 0 0 1-18.608 7.902s.124 13.9 2.573 19.426c2.45 5.526 8.79 4.359 8.79 4.359Z" fill="#fff"/><path fill-rule="evenodd" clip-rule="evenodd" d="M102.331 73.879c.041.055 3.328 3.727 8.048 3.727a9.737 9.737 0 0 0 4.707-1.27c6.958-3.798 6.866-9.878 6.862-10.177v-.01l-4.57-22.213a.35.35 0 0 0-.254-.267 7.203 7.203 0 0 1-3.225-2.225c-1.571-1.716-3.616-5.072-4.425-11.36a.352.352 0 0 0-.22-.275.343.343 0 0 0-.35.062 38.165 38.165 0 0 1-18.43 7.812.35.35 0 0 0-.294.343v.013c.009.736.167 14.096 2.6 19.55 2.175 4.909 7.335 4.771 8.783 4.627l.686 11.457a.32.32 0 0 0 .082.206Zm12.453 1.832c-6.264 3.426-11.177-1.475-11.863-2.224l-.672-11.71a.37.37 0 0 0-.131-.254.348.348 0 0 0-.274-.062h-.001c-.255.043-6.108 1.019-8.418-4.18-2.189-4.95-2.532-16.935-2.532-18.994a39.447 39.447 0 0 0 18.004-7.551c1.572 10.846 6.731 13.125 7.87 13.502l4.522 21.966v.004c.003.18.091 5.892-6.505 9.504Z" fill="#231F20"/><path d="M114.489 50.245a6.174 6.174 0 0 0 4.57-1.126 6.61 6.61 0 0 0 2.456-5.986 5.493 5.493 0 0 0-.686-2.396 2.916 2.916 0 0 0-1.942-1.455 4.693 4.693 0 0 0-2.868.762c-1.331.687-1.372 1.449-2.099 2.574.082-.103.144-.391.226-.494" fill="#fff"/><path d="M115.409 50.663a6.641 6.641 0 0 1-.974-.075.35.35 0 0 1-.289-.398.338.338 0 0 1 .391-.282 5.809 5.809 0 0 0 4.302-1.078 6.261 6.261 0 0 0 2.313-5.683 5.126 5.126 0 0 0-.611-2.252 2.588 2.588 0 0 0-1.702-1.277c-.85-.15-1.701.24-2.648.728a2.9 2.9 0 0 0-1.427 1.538c-.144.26-.302.556-.515.878a.3.3 0 0 1-.055.076.335.335 0 0 1-.466.055.337.337 0 0 1-.083-.467s0-.09.048-.137c.041-.125.098-.242.172-.35a.363.363 0 0 1 .13-.096l.131-.248a3.608 3.608 0 0 1 1.729-1.825c.809-.42 1.928-.996 3.074-.797.943.187 1.755.78 2.223 1.62a5.83 5.83 0 0 1 .686 2.547 6.913 6.913 0 0 1-2.594 6.28 6.481 6.481 0 0 1-3.835 1.243ZM102.262 68.05a8.315 8.315 0 0 0 6.594-4.118c2.422-4.043 1.455-6.63 1.455-6.63s-3.266 4.166-8.405 4.502l.356 6.247Z" fill="#231F20"/><path fill-rule="evenodd" clip-rule="evenodd" d="M101.926 68.065c.008.18.156.322.337.322l.02.034a8.568 8.568 0 0 0 6.861-4.249c2.484-4.139 1.53-6.816 1.489-6.926a.35.35 0 0 0-.267-.22.344.344 0 0 0-.326.134c-.113.14-3.298 4.051-8.155 4.363a.344.344 0 0 0-.322.364l.363 6.178Zm.659-.385-.322-5.54a12.91 12.91 0 0 0 7.842-4.07c.124.961.082 2.965-1.558 5.711a8.08 8.08 0 0 1-5.962 3.9Z" fill="#231F20"/><path d="M101 43.044s-2.573 6.782-1.407 7.592c1.167.81 3.63-.48 3.63-.48" fill="#fff"/><path d="M100.609 51.247a2.058 2.058 0 0 1-1.215-.33c-1.29-.892.687-6.342 1.277-7.997a.34.34 0 0 1 .631-.018c.038.085.04.18.007.265-1.194 3.151-2.059 6.796-1.523 7.18.816.563 2.641-.164 3.272-.494a.35.35 0 0 1 .467.145.343.343 0 0 1-.151.46 6.78 6.78 0 0 1-2.765.789Z" fill="#231F20"/><ellipse cx="105.628" cy="41.533" rx=".995" ry="1.407" transform="rotate(-17.91 105.628 41.533)" fill="#231F20"/><ellipse cx="96.443" cy="43.711" rx=".995" ry="1.407" transform="rotate(-.78 96.443 43.71)" fill="#231F20"/><path fill-rule="evenodd" clip-rule="evenodd" d="M99.964 58.804c.546.37 1.193.56 1.852.543a4.527 4.527 0 0 0 1.242-.179 5.611 5.611 0 0 0 3.575-3.363 8.86 8.86 0 0 0 .556-4.078.37.37 0 0 0-.144-.247c-.158-.116-.254-.185-9.133 1.758a.35.35 0 0 0-.274.35c.007.153.165 3.638 2.326 5.216Zm.391-.562c-1.55-1.126-1.921-3.556-2.004-4.387v-.007c2.827-.617 6.992-1.51 8.172-1.723a7.93 7.93 0 0 1-.521 3.433 4.96 4.96 0 0 1-3.156 2.958 2.936 2.936 0 0 1-2.491-.274Z" fill="#231F20"/><path d="M106.318 55.695c-1.318 3.185-4.618 3.947-6.176 2.842.35-1.215.988-2.478 2.175-2.938a5.79 5.79 0 0 1 4.001.096Z" fill="#231F20"/><path fill-rule="evenodd" clip-rule="evenodd" d="M99.964 58.804a3.168 3.168 0 0 0 1.852.536c.42 0 .838-.058 1.242-.172a5.627 5.627 0 0 0 3.575-3.356.364.364 0 0 0 0-.268.35.35 0 0 0-.199-.185 6.173 6.173 0 0 0-4.22-.09c-1.104.42-1.907 1.49-2.374 3.165a.337.337 0 0 0 .124.37Zm2.882-.295c-.749.25-1.565.2-2.278-.137.432-1.304 1.049-2.142 1.893-2.485a5.372 5.372 0 0 1 3.39 0 4.884 4.884 0 0 1-3.005 2.622ZM88.21 46.902a2.059 2.059 0 0 0 2.01 1.62c.15-.008.297-.034.44-.076l7.65-1.675a2.06 2.06 0 0 0 1.544-2.43l-.686-3.274a2.06 2.06 0 0 0-2.456-1.572l-7.65 1.682a2.06 2.06 0 0 0-1.572 2.45l.72 3.275Zm8.653-6.741c.098-.01.197-.01.295 0l.027-.02a1.37 1.37 0 0 1 1.317 1.063l.687 3.274a1.373 1.373 0 0 1-1.03 1.607L90.51 47.8a1.372 1.372 0 0 1-1.606-1.03l-.72-3.322c-.15-.73.31-1.446 1.036-1.613l7.644-1.675Zm5.88 5.045c.331.214.717.329 1.111.33.162-.001.322-.017.481-.049l7.643-1.674a2.06 2.06 0 0 0 1.537-2.458l-.686-3.274a2.06 2.06 0 0 0-2.456-1.572l-7.644 1.675a2.06 2.06 0 0 0-1.571 2.457l.686 3.275c.117.532.44.996.899 1.29Zm7.753-8.01a1.373 1.373 0 0 1 1.64 1.037l.686 3.273c.077.351.013.719-.178 1.023-.196.3-.501.512-.851.59l-7.651 1.675a1.371 1.371 0 0 1-1.605-1.03l-.721-3.274a1.373 1.373 0 0 1 .186-1.023 1.33 1.33 0 0 1 .851-.59l7.643-1.682Z" fill="#231F20"/><path d="M98.818 41.5a.329.329 0 0 1-.178-.049.357.357 0 0 1-.13-.48c.322-.556 1.372-1.428 3.094-.735a.368.368 0 0 1-.261.687c-1.537-.618-2.154.322-2.216.432a.363.363 0 0 1-.309.144Z" fill="#231F20"/><path d="M30.466 132.878h141.068l22.636 41.358H7.83l22.636-41.358Z" fill="#fff"/><path fill-rule="evenodd" clip-rule="evenodd" d="M7.83 174.58h186.34a.353.353 0 0 0 .302-.165.36.36 0 0 0 0-.343l-22.643-41.358a.334.334 0 0 0-.302-.179H30.479a.335.335 0 0 0-.302.179L7.535 174.072a.357.357 0 0 0 0 .343.35.35 0 0 0 .295.165Zm185.757-.687H8.413l22.259-40.671h140.656l22.259 40.671Z" fill="#D1D3D4"/><path d="m32.654 106.196.302-1.304c.686-1.304 1.448-2.183 3.218-2.183h67.152a3.76 3.76 0 0 1 3.602 2.705l10.916 37.521a3.35 3.35 0 0 1-1.859 4.194l-1.187.281-82.144-41.214Z" fill="#fff"/><path fill-rule="evenodd" clip-rule="evenodd" d="M114.647 147.719a.395.395 0 0 0 .151.034l.069.028 1.228-.295a3.694 3.694 0 0 0 2.058-4.613l-10.923-37.569a4.117 4.117 0 0 0-3.932-2.952H36.147c-2.045 0-2.834 1.119-3.52 2.362a.441.441 0 0 0 0 .089l-.302 1.304a.337.337 0 0 0 .178.385l82.144 41.227Zm.22-.673-81.794-41.035.206-.995c.727-1.277 1.379-1.964 2.895-1.964h67.173a3.43 3.43 0 0 1 3.272 2.458l10.917 37.521c.391 1.359.048 3.123-1.606 3.768l-1.063.247Z" fill="#231F20"/><path d="M114.798 147.41H46.274a2.167 2.167 0 0 1-2.058-1.565l-11.534-39.649a1.022 1.022 0 0 1 .981-1.304h70.356l11.918 41.001a1.18 1.18 0 0 1-1.139 1.517Z" fill="#231F20"/><path fill-rule="evenodd" clip-rule="evenodd" d="M46.274 147.753h68.524a1.528 1.528 0 0 0 1.468-1.956l-11.925-41.001a.327.327 0 0 0-.322-.24H33.636a1.372 1.372 0 0 0-1.31 1.736l11.533 39.649a2.531 2.531 0 0 0 2.415 1.812Zm-13.176-42.245a.688.688 0 0 1 .538-.273h70.109l11.87 40.754a.847.847 0 0 1-.131.742.856.856 0 0 1-.686.336H46.274a1.846 1.846 0 0 1-1.763-1.318L32.984 106.1a.687.687 0 0 1 .114-.592Z" fill="#231F20"/><path d="m103.305 130.517-4.165 17.717a4.302 4.302 0 0 1-4.199 3.329H51.598a4.315 4.315 0 0 1-4.199-5.306l3.671-15.74h-3.588l-3.513 14.93a7.85 7.85 0 0 0 1.502 6.647 7.839 7.839 0 0 0 6.134 2.963h43.37a7.822 7.822 0 0 0 7.603-6.006l4.35-18.534h-3.623Z" fill="#fff"/><path fill-rule="evenodd" clip-rule="evenodd" d="M51.599 155.448h43.343a8.15 8.15 0 0 0 7.993-6.308l4.357-18.534a.355.355 0 0 0-.07-.288.354.354 0 0 0-.266-.131h-3.623a.337.337 0 0 0-.329.261l-4.165 17.717a3.966 3.966 0 0 1-3.87 3.069h-43.37a3.983 3.983 0 0 1-3.87-4.888l3.698-15.74a.336.336 0 0 0-.062-.288.353.353 0 0 0-.267-.131h-3.623a.344.344 0 0 0-.336.261l-3.506 14.937a8.191 8.191 0 0 0 7.965 10.063Zm-7.315-9.905 3.431-14.669h2.943l-3.595 15.314a4.663 4.663 0 0 0 4.535 5.732h43.357a4.632 4.632 0 0 0 4.535-3.597l4.117-17.449h2.916l-4.254 18.101a7.472 7.472 0 0 1-7.3 5.787h-43.37a7.497 7.497 0 0 1-7.314-9.219Z" fill="#231F20"/><path d="M159.198 94.39s6.134 27.251 1.111 34.212c-5.022 6.96-40.097 5.862-40.097 5.862s-5.688 6.83-10.628 6.377c-4.941-.453-2.059-9.802 3.753-13.694l-.803-3.247 30.924-4.963-4.117-19.584" fill="#fff"/><path d="M110.036 141.205h-.514a2.897 2.897 0 0 1-2.69-2.3c-.775-3.041 1.709-8.841 6.079-11.889l-.741-3.013a.336.336 0 0 1 .275-.419l30.567-4.908-4.048-19.22a.342.342 0 0 1 .267-.405.338.338 0 0 1 .405.26l4.117 19.584a.34.34 0 0 1-.055.268.331.331 0 0 1-.226.144l-30.554 4.908.686 2.883a.337.337 0 0 1-.137.364c-4.199 2.815-6.717 8.478-5.997 11.292a2.19 2.19 0 0 0 2.059 1.778c4.7.439 10.292-6.178 10.333-6.253a.341.341 0 0 1 .274-.124c.35 0 34.993 1.009 39.837-5.725 4.844-6.734-1.098-33.635-1.16-33.93a.351.351 0 0 1 .687-.152c.253 1.12 6.106 27.458 1.049 34.487-4.94 6.865-37.318 6.096-40.248 6.007-.775.906-5.668 6.363-10.265 6.363ZM122.4 80.894a.32.32 0 0 1-.151-.041.342.342 0 0 1-.164-.467c4.981-10.296 17.771-17.223 17.901-17.291a.342.342 0 0 1 .473.144.35.35 0 0 1-.144.48c-.123.07-12.714 6.865-17.592 16.976a.364.364 0 0 1-.323.2Zm-21.146-.487a.373.373 0 0 1-.151 0c-11.953-5.492-13.4-17.56-13.414-17.676a.357.357 0 0 1 .576-.319.35.35 0 0 1 .13.237c0 .116 1.428 11.793 13.037 17.05a.357.357 0 0 1 .179.468.365.365 0 0 1-.357.24ZM46.796 95.968a.357.357 0 0 1 0-.686c5.173-.158 7.684-3.082 7.712-3.11a.35.35 0 0 1 .494-.048c.15.126.172.35.048.501-.11.13-2.745 3.2-8.234 3.364l-.02-.02Z" fill="#231F20"/><path d="M139.3 99.703a.35.35 0 0 1-.343-.268c0-.124-3.232-12.775-3.678-20.36a.348.348 0 0 1 .329-.37.357.357 0 0 1 .378.329c.446 7.516 3.629 20.099 3.657 20.23a.357.357 0 0 1-.254.432l-.089.007Zm-55.302 2.258a.349.349 0 0 1-.33-.378l1.702-26.668a.35.35 0 0 1 .377-.33.343.343 0 0 1 .33.372l-1.73 26.668a.35.35 0 0 1-.35.336Zm60.75-14.916a.344.344 0 0 1-.309-.186l-3.321-6.178a.37.37 0 0 1 0-.281.377.377 0 0 1 .185-.213l10.292-4.867a.351.351 0 0 1 .474.165.357.357 0 0 1-.165.474l-9.976 4.709 3.005 5.573 10.107-3.088a.358.358 0 0 1 .206.686l-10.395 3.213-.103-.007Z" fill="#231F20"/><ellipse cx="153.661" cy="160.274" rx="16.941" ry="5.1" fill="#fff"/><path fill-rule="evenodd" clip-rule="evenodd" d="M136.377 160.274c0 3.055 7.595 5.444 17.284 5.444 9.688 0 17.283-2.389 17.283-5.444 0-3.054-7.595-5.443-17.283-5.443-9.689 0-17.284 2.389-17.284 5.443Zm.686 0c0-2.299 6.669-4.757 16.598-4.757 9.928 0 16.597 2.458 16.597 4.757 0 2.3-6.669 4.757-16.597 4.757-9.929 0-16.598-2.457-16.598-4.757Z" fill="#D1D3D4"/><path d="m140.892 145.708-.405.075a5.026 5.026 0 0 0-3.129 1.765 4.332 4.332 0 0 0-.103 4.578c1.798 3.24 6.175 4.119 9.551 4.455.478.078.967.04 1.427-.11.465-.159.781-.593.789-1.084a1.194 1.194 0 0 0-.686-.913 3.659 3.659 0 0 0-1.118-.316c-2.1-.343-4.309-.597-6.23-1.565-1.119-.57-2.683-1.867-1.867-3.268a2.672 2.672 0 0 1 1.181-1.002c1.928-.92 3.76-.219 5.66.343.138.051.286.072.432.062a.768.768 0 0 0 .556-.858c-.062-.83-.892-1.373-1.674-1.682a8.78 8.78 0 0 0-4.384-.48Z" fill="#fff"/><path fill-rule="evenodd" clip-rule="evenodd" d="M146.779 156.924c.198.022.397.034.597.035a2.76 2.76 0 0 0 .981-.165 1.373 1.373 0 0 0 .171-2.622 3.792 3.792 0 0 0-1.228-.35l-.775-.124a18.209 18.209 0 0 1-5.359-1.414 3.68 3.68 0 0 1-1.852-1.819 1.166 1.166 0 0 1 .13-.961 2.3 2.3 0 0 1 1.036-.872c1.64-.782 3.232-.302 4.92.213l.494.151c.185.063.381.088.576.075.555-.132.922-.661.851-1.228-.09-1.119-1.208-1.716-1.894-1.97a9.054 9.054 0 0 0-4.583-.501l-.426.075a5.382 5.382 0 0 0-3.334 1.895 4.663 4.663 0 0 0-.131 4.949c1.462 2.636 4.673 4.146 9.826 4.633Zm-6.224-10.804.392-.069v.014a8.38 8.38 0 0 1 4.233.46c.419.151 1.4.604 1.455 1.373.013.206-.09.487-.254.487a.782.782 0 0 1-.288-.048l-.494-.151c-1.736-.529-3.534-1.071-5.414-.172a2.948 2.948 0 0 0-1.331 1.14 1.86 1.86 0 0 0-.199 1.51 4.31 4.31 0 0 0 2.202 2.231 18.71 18.71 0 0 0 5.558 1.483l.775.123c.349.036.69.129 1.009.275a.843.843 0 0 1 .48.631.853.853 0 0 1-.576.749 2.81 2.81 0 0 1-1.263.082c-4.905-.46-7.945-1.86-9.283-4.277a3.987 3.987 0 0 1 .076-4.214 4.741 4.741 0 0 1 2.922-1.627Z" fill="#231F20"/><path d="M142.477 142.234s3.17 15.83 3.43 16.784c.261.954 7.754 4.874 13.723 1.023l5.221-16.18-22.374-1.627Z" fill="#fff"/><path fill-rule="evenodd" clip-rule="evenodd" d="M148.549 161.05c1.672.648 3.449.987 5.242 1.002 2.128.037 4.219-.55 6.017-1.689a.329.329 0 0 0 .144-.178l5.222-16.179a.337.337 0 0 0-.302-.447l-22.375-1.661a.33.33 0 0 0-.357.405c.131.652 3.177 15.85 3.431 16.804.165.611 1.661 1.435 2.978 1.943Zm-2.312-2.121c-.227-.845-2.82-13.743-3.335-16.317l21.51 1.565-5.05 15.644c-3.609 2.252-7.547 1.545-9.605.92-2.189-.666-3.424-1.586-3.52-1.812Z" fill="#231F20"/><ellipse cx="153.696" cy="142.697" rx="4.86" ry="11.218" transform="rotate(-87.65 153.696 142.697)" fill="#231F20"/><path fill-rule="evenodd" clip-rule="evenodd" d="M153.475 147.918h1.091c2.39.053 4.77-.326 7.026-1.119 2.271-.851 3.589-2.155 3.644-3.597.123-2.924-4.858-5.402-11.335-5.67-6.477-.267-11.644 1.792-11.767 4.716-.124 2.924 4.857 5.409 11.341 5.67Zm-10.662-5.635c.096-2.334 4.59-4.119 10.031-4.119l1.057.02c5.88.241 10.786 2.513 10.683 4.963-.048 1.133-1.215 2.225-3.204 2.986a20.242 20.242 0 0 1-7.877 1.106c-5.887-.241-10.786-2.513-10.69-4.956Z" fill="#231F20"/><path fill-rule="evenodd" clip-rule="evenodd" d="M90.543 98.254h36.304a.344.344 0 0 0 .343-.322V87.189a.343.343 0 0 0-.343-.343H90.543a.35.35 0 0 0-.343.343V97.91c0 .19.154.343.343.343Zm35.961-.686H90.886V87.532h35.618v10.036Z" fill="#fff"/><path fill="#fff" d="M7.83 174.236h186.333v7.187H7.83z"/><path fill-rule="evenodd" clip-rule="evenodd" d="M7.83 181.767h186.34a.344.344 0 0 0 .343-.344v-7.187a.35.35 0 0 0-.343-.343H7.83a.35.35 0 0 0-.343.343v7.187c0 .19.154.344.343.344Zm185.997-.687H8.173v-6.5h185.654v6.5Z" fill="#D1D3D4"/><path d="M164.845 107.116a.35.35 0 0 1-.337-.35c0-.789.501-19.399 2.553-25.844 2.051-6.446 5.9-9.13 6.058-9.233a.343.343 0 1 1 .384.57c-.041 0-3.794 2.601-5.79 8.868-1.997 6.268-2.512 25.461-2.519 25.653a.34.34 0 0 1-.349.336Z" fill="#fff"/><defs><linearGradient id="a" x1="0" y1="202" x2="202" y2="202" gradientUnits="userSpaceOnUse"><stop stop-color="#5D0202" stop-opacity=".01"/><stop offset="1" stop-color="#5D0202" stop-opacity=".498"/></linearGradient></defs></svg>