<svg width="202" height="202" fill="none" xmlns="http://www.w3.org/2000/svg"><circle opacity=".203" cx="101" cy="101" r="101" transform="matrix(0 1 1 0 0 0)" fill="url(#a)"/><path d="M192.03 166.454H9.97a.355.355 0 0 1 0-.711h182.06c.196 0 .354.159.354.355a.354.354 0 0 1-.354.356Z" fill="#D1D3D4"/><path fill="#fff" d="M136.144 104.141h40.643v70.058h-40.643z"/><path fill-rule="evenodd" clip-rule="evenodd" d="M136.144 174.554h40.643a.357.357 0 0 0 .354-.37v-70.043a.355.355 0 0 0-.354-.356h-40.643a.355.355 0 0 0-.354.356v70.057c0 .197.159.356.354.356Zm40.289-.711h-39.935v-69.347h39.935v69.347Z" fill="#231F20"/><path fill="#fff" d="M24.173 104.141h40.643v70.058H24.173z"/><path fill-rule="evenodd" clip-rule="evenodd" d="M24.173 174.554h40.643a.356.356 0 0 0 .354-.37v-70.043a.355.355 0 0 0-.354-.356H24.173a.355.355 0 0 0-.354.356v70.057c0 .197.159.356.354.356Zm40.289-.711H24.527v-69.347h39.935v69.347Z" fill="#231F20"/><path d="m143.709 83.827 8.047 16.221h-21.762l13.715-16.221Z" fill="#231F20"/><path fill-rule="evenodd" clip-rule="evenodd" d="M130.015 100.403h21.741a.341.341 0 0 0 .332-.511l-8.039-16.222a.354.354 0 0 0-.276-.192.33.33 0 0 0-.311.121L129.746 99.82a.35.35 0 0 0 .269.583Zm21.167-.71h-20.424l12.873-15.22 7.551 15.22Z" fill="#231F20"/><path d="M81.906 100.048h51.811l18.796-27.654h-48.909l-21.698 27.654Z" fill="#231F20"/><path fill-rule="evenodd" clip-rule="evenodd" d="M81.892 100.403h51.825a.346.346 0 0 0 .297-.156L152.81 72.6a.347.347 0 0 0 0-.37.368.368 0 0 0-.311-.191H103.59a.35.35 0 0 0-.276.135L81.616 99.828a.356.356 0 0 0 .276.575Zm51.662-.71H82.635l21.139-26.944h48.095l-18.315 26.944Z" fill="#231F20"/><path d="M105.161 75.08 89.677 95.223h38.449l14.55-20.143h-37.515Z" fill="#fff"/><path fill-rule="evenodd" clip-rule="evenodd" d="M89.677 95.579h38.449a.347.347 0 0 0 .269-.15l14.55-20.143a.351.351 0 0 0 0-.37.34.34 0 0 0-.311-.191h-37.508a.35.35 0 0 0-.276.135L89.359 95.003a.378.378 0 0 0 0 .377.353.353 0 0 0 .318.199Zm38.229-.71H90.399l14.939-19.448h36.644l-14.076 19.447Z" fill="#231F20"/><path d="M116.173 91.557a.355.355 0 0 1-.333-.242c-1.861-5.506-4.451-11.546-5.392-11.688-1.126 0-8.344 5.99-14.756 11.845a.354.354 0 0 1-.587-.185.358.358 0 0 1 .106-.34c2.222-2.026 13.269-12.023 15.3-12.023h.078c1.812.277 5.018 9.379 5.959 12.164a.348.348 0 0 1-.226.448.291.291 0 0 1-.149.021Z" fill="#D1D3D4"/><path d="M127.722 92.296a.353.353 0 0 1-.339-.263c-1.246-4.44-3.022-9.18-3.857-9.428-.835-.25-4.713 3.268-7.87 6.65a.354.354 0 0 1-.502.014.357.357 0 0 1-.014-.504c1.613-1.727 6.992-7.319 8.591-6.835 1.599.483 3.892 8.341 4.331 9.947a.355.355 0 0 1-.24.44l-.1-.02Z" fill="#D1D3D4"/><path fill-rule="evenodd" clip-rule="evenodd" d="M137.538 85.127c0 .533.687.952 1.557.952.87 0 1.557-.42 1.557-.952 0-.533-.708-.945-1.557-.945s-1.557.412-1.557.945Zm.142 0c0-.42.665-.767 1.415-.767v.02c.75 0 1.38.328 1.38.747s-.594.774-1.38.774c-.786 0-1.415-.355-1.415-.774Z" fill="#A7A9AC"/><path d="M145.28 78.022h-3.142a.093.093 0 0 1-.085-.086c0-.048.037-.088.085-.092h3.142a.085.085 0 0 1 .085.092.085.085 0 0 1-.085.086Z" fill="#A7A9AC"/><path d="M133.717 100.403a.368.368 0 0 1-.213-.064.364.364 0 0 1-.078-.497l10.035-13.827a.356.356 0 0 1 .496-.078.364.364 0 0 1 .078.497L134 100.29a.36.36 0 0 1-.283.114Z" fill="#fff"/><path fill-rule="evenodd" clip-rule="evenodd" d="M114.616 78.647a1.56 1.56 0 0 0 1.557 1.563c.86 0 1.557-.7 1.557-1.563a1.56 1.56 0 0 0-1.557-1.563c-.86 0-1.557.7-1.557 1.563Zm.708 0a.85.85 0 0 1 1.451-.605c.16.16.249.378.247.605a.85.85 0 0 1-.849.852.85.85 0 0 1-.849-.852Z" fill="#D1D3D4"/><path fill="#fff" d="M18.773 100.652h159.74v6.8H18.773z"/><path fill-rule="evenodd" clip-rule="evenodd" d="M18.773 107.807h159.748a.355.355 0 0 0 .354-.355v-6.8a.36.36 0 0 0-.354-.355H18.773a.36.36 0 0 0-.354.355v6.8c0 .196.159.355.354.355Zm159.366-.711H19.127V101H178.14v6.096Z" fill="#231F20"/><path d="M78.856 137.436c.149.504-8.79 32.72-8.79 32.72l12.492 2.017 14.762-44.507-18.464 9.77Z" fill="#fff"/><path fill-rule="evenodd" clip-rule="evenodd" d="M82.5 172.529h.058a.347.347 0 0 0 .332-.235l14.77-44.507a.378.378 0 0 0-.106-.384.365.365 0 0 0-.397-.042l-18.463 9.769a.355.355 0 0 0-.192.341c-.099 1.066-5.293 20.044-8.782 32.592a.412.412 0 0 0 .042.291.362.362 0 0 0 .248.157l12.49 2.018Zm-.169-.753-11.804-1.912h-.014c5.364-19.34 8.272-30.147 8.662-32.187l17.55-9.279-14.394 43.378Z" fill="#231F20"/><path d="m69.31 168.763-1.904 6.011 29.914 2.323a12.455 12.455 0 0 0-6.794-6.146c-3.107-1.094-6.454-2.401-6.454-2.401l-1.514 3.623-13.248-3.41Z" fill="#231F20"/><path fill-rule="evenodd" clip-rule="evenodd" d="m67.406 175.129 29.914 2.324a.34.34 0 0 0 .368-.15.356.356 0 0 0 0-.348 12.76 12.76 0 0 0-6.999-6.338c-2.231-.784-4.605-1.693-5.75-2.131a25.544 25.544 0 0 0-.697-.263.346.346 0 0 0-.453.192l-1.415 3.339-12.951-3.332a.353.353 0 0 0-.425.234l-1.904 6.011a.357.357 0 0 0 .312.462Zm29.305 1.57-28.838-2.245 1.67-5.243 12.923 3.311a.361.361 0 0 0 .417-.214l1.38-3.296.122.046c1.015.387 3.606 1.376 6.028 2.227a12.153 12.153 0 0 1 6.298 5.414Z" fill="#231F20"/><path d="m48.312 137.862-2.123 33.935s-7.176.249-8.973 1.513c-1.798 1.265-3.263 6.992-3.263 6.992h2.237s1.302-4.263 2.731-4.775c1.43-.511 9.554-.71 9.554-.71s3.92 1.52 4.55 4.128c.496 2.053.354 2.529.354 2.529h2.477a12.74 12.74 0 0 0-.495-3.453c-.495-1.421-2.357-3.119-2.357-3.119s4.098.085 5.464.085c1.366 0 2.788 2.615 2.788 2.615h2.668s-2.788-4.718-4.593-5.052c-1.805-.334-6.433-1.144-6.433-1.144l-1.26-31.618-3.326-1.926Z" fill="#231F20"/><path fill-rule="evenodd" clip-rule="evenodd" d="M53.408 181.837h2.477a.355.355 0 0 0 .346-.349 12.697 12.697 0 0 0-.516-3.552 8.196 8.196 0 0 0-1.812-2.622l.664.011c1.314.022 3.108.053 3.922.053.835 0 1.967 1.492 2.477 2.43a.363.363 0 0 0 .311.185h2.668a.363.363 0 0 0 .312-.54c-.29-.498-2.93-4.86-4.827-5.216a528.15 528.15 0 0 0-6.157-1.094l-1.252-31.334a.348.348 0 0 0-.177-.291l-3.355-1.94a.359.359 0 0 0-.34 0 .37.37 0 0 0-.183.291l-2.081 33.622c-1.444.064-7.183.398-8.846 1.563-1.883 1.322-3.34 6.957-3.397 7.191a.363.363 0 0 0 .34.448h2.257a.362.362 0 0 0 .34-.256c.481-1.57 1.592-4.199 2.512-4.54 1.111-.448 7.07-.661 9.37-.711.467.199 3.715 1.627 4.246 3.851.242.755.364 1.544.361 2.338a.37.37 0 0 0 .05.319.38.38 0 0 0 .29.143Zm2.102-.711h-1.734a11.95 11.95 0 0 0-.41-2.274c-.666-2.756-4.6-4.305-4.77-4.369h-.135c-.333 0-8.33.22-9.674.71-1.345.49-2.505 3.752-2.831 4.754h-1.514c.502-1.805 1.733-5.45 3.007-6.345 1.401-.96 6.815-1.35 8.783-1.421a.355.355 0 0 0 .34-.334l2.059-33.395 2.689 1.556 1.239 31.419a.353.353 0 0 0 .297.341c.056.008 4.65.803 6.426 1.137 1.189.221 3.071 2.849 4.02 4.349h-1.827c-.382-.661-1.641-2.615-2.993-2.615-1.148 0-4.252-.062-5.187-.08l-.27-.005a.381.381 0 0 0-.34.227.364.364 0 0 0 .093.391l.01.01c.152.141 1.813 1.685 2.255 2.96.286.969.443 1.973.467 2.984Z" fill="#231F20"/><path d="M89.231 116.219s28.265 1.514 30.049 5.557c1.783 4.043-11.323 48.5-11.323 48.5s13.835 4.803 11.57 5.812c-2.264 1.009-24.91-1.009-24.91-1.009l10.735-41.21-27.968-1.89 11.847-15.76Z" fill="#fff"/><path fill-rule="evenodd" clip-rule="evenodd" d="M94.61 175.435c1.818.163 14.72 1.293 21.358 1.293a12.98 12.98 0 0 0 3.743-.313.658.658 0 0 0 .46-.639c-.056-1.457-7.982-4.405-11.74-5.72 1.288-4.37 12.944-44.45 11.196-48.422-.298-.675-1.196-2.715-15.98-4.505a237.872 237.872 0 0 0-14.38-1.265.305.305 0 0 0-.298.142l-11.854 15.788a.35.35 0 0 0-.042.363c.058.114.17.191.297.206l27.544 1.861-10.616 40.763a.365.365 0 0 0 .05.299c.061.085.157.14.262.149Zm24.797.327c-1.748.781-17.756-.42-24.323-1.002l10.629-40.763a.409.409 0 0 0-.056-.299.367.367 0 0 0-.269-.142l-27.317-1.854 11.323-15.113c7.94.433 28.138 2.117 29.553 5.336 1.416 3.219-7.7 35.931-11.323 48.259a.354.354 0 0 0 .219.44c5.28 1.827 11.097 4.278 11.564 5.138Z" fill="#231F20"/><path d="M79.642 90.953s14.522 18.19 20.728 17.685c6.207-.504 23.984-22.928 23.984-22.928 3.213-3.852 6.808-8.74 4.508-14.048-.227-.511-.623-1.058-1.175-1.016a1.498 1.498 0 0 0-.644.263l-1.981 1.222c.063-.547-.63-.938-1.161-.788-.517.203-.947.58-1.217 1.065-2.06 2.942-3.39 5.742-3.277 9.365L98.629 92.431l-8.244-9.159" fill="#fff"/><path d="M100.122 109.001c-6.447 0-20.169-17.053-20.756-17.828a.356.356 0 0 1 .074-.474.353.353 0 0 1 .478.034c.141.177 14.097 17.564 20.183 17.564h.241c5.987-.483 23.545-22.573 23.715-22.8 3.319-3.965 6.666-8.612 4.465-13.678-.085-.2-.382-.832-.821-.803a1.161 1.161 0 0 0-.488.213l-1.996 1.215a.353.353 0 0 1-.538-.341.284.284 0 0 0-.127-.263.705.705 0 0 0-.58-.142 2.125 2.125 0 0 0-1.026.93c-1.741 2.487-3.334 5.315-3.213 9.152a.356.356 0 0 1-.191.327L98.764 92.765a.353.353 0 0 1-.425-.078l-8.237-9.173a.356.356 0 0 1 .502-.504l8.053 8.938 20.347-10.41c-.064-3.928 1.564-6.82 3.34-9.357a2.766 2.766 0 0 1 1.415-1.208c.436-.105.895.003 1.239.291.095.084.176.182.24.292l1.586-.974c.239-.168.516-.275.806-.312.616-.05 1.161.405 1.515 1.229 2.562 5.897-2.067 11.44-4.558 14.416-.707.91-17.918 22.546-24.21 23.057l-.255.029Z" fill="#231F20"/><path d="M32.106 87.848s-7.48 17.017-4.706 18.836c2.774 1.819 19.66 0 19.66 0l-1.465-22.026" fill="#fff"/><path d="M33.819 107.807c-3.022 0-5.662-.213-6.624-.853-.481-.312-1.953-1.272 1.182-10.487 1.507-4.441 3.382-8.718 3.404-8.761a.354.354 0 1 1 .644.284c-2.831 6.473-6.667 17.181-4.84 18.367 2.122 1.421 14.153.484 19.107 0l-1.416-21.678a.356.356 0 1 1 .708-.05l1.465 22.027a.354.354 0 0 1-.319.376c-.495.029-7.628.775-13.311.775Z" fill="#231F20"/><path d="M38.2 116.688s-3.66 8.157.24 13.301c3.9 5.145 58.03 5.763 58.03 5.763l3.886-19.533-22.646-3.097-1.316-6.758-38.195 10.324Z" fill="#fff"/><path fill-rule="evenodd" clip-rule="evenodd" d="M68.885 135.155c13.899.789 27.465.952 27.6.952a.355.355 0 0 0 .347-.291l3.842-19.554a.333.333 0 0 0-.056-.27.341.341 0 0 0-.241-.149l-22.37-3.055-1.267-6.516a.348.348 0 0 0-.155-.227.33.33 0 0 0-.283-.043l-38.216 10.324a.347.347 0 0 0-.233.199c-.156.341-3.695 8.413.283 13.656 1.684 2.238 12.03 3.908 30.749 4.974Zm-30.162-5.379c-3.44-4.533-.729-11.659-.269-12.789l37.713-10.182 1.239 6.395a.356.356 0 0 0 .297.284l22.25 3.041-3.758 18.879c-18.747-.228-54.485-1.691-57.472-5.628Z" fill="#231F20"/><path d="M60.378 47.973a4.876 4.876 0 0 1-1.415-1.293 7.509 7.509 0 0 1-1.132-2.522c-1.918-6.963-1.932-15.88 4.246-20.648a14.306 14.306 0 0 1 12.979-2.31c3 .981 5.548 5.124 6.886 7.817 1.097 2.18 1.84 4.554 3.142 6.615 1.302 2.06 3.376 3.865 5.81 3.986a7.305 7.305 0 0 1-6.37.383 4.146 4.146 0 0 0 4.212 1.585c-1.416 1.13-3.44 1.087-5.223.71-1.784-.376-3.539-.945-5.372-.71-2.83.32-4.67 2.409-6.885 3.922-2.81 1.847-7.665 4.334-10.878 2.465Z" fill="#fff"/><path fill-rule="evenodd" clip-rule="evenodd" d="M60.216 48.286c.863.487 1.84.732 2.83.71 3.213 0 6.752-2.124 8.4-3.275a37.52 37.52 0 0 0 1.664-1.243l.21-.16c1.5-1.145 2.943-2.245 4.857-2.462a11.93 11.93 0 0 1 3.984.454c.425.1.85.2 1.274.278 2.392.462 4.246.191 5.513-.81a.356.356 0 0 0-.304-.626 3.74 3.74 0 0 1-2.775-.469 7.673 7.673 0 0 0 5.167-.845.342.342 0 0 0 .17-.39.347.347 0 0 0-.326-.27c-2.894-.143-4.82-2.715-5.527-3.816a28.136 28.136 0 0 1-1.953-3.994 44.468 44.468 0 0 0-1.168-2.6c-1.253-2.523-3.864-6.913-7.077-7.958a14.623 14.623 0 0 0-13.312 2.366c-7.749 5.997-5.286 17.607-4.352 21.017a7.93 7.93 0 0 0 1.189 2.672c.408.575.931 1.06 1.536 1.421Zm2.045-24.52a14.003 14.003 0 0 1 8.535-2.9 13.4 13.4 0 0 1 4.154.64c3.085 1.002 5.697 5.649 6.673 7.603.36.67.654 1.37.943 2.06l.21.498a28.072 28.072 0 0 0 2.01 4.093 8.648 8.648 0 0 0 4.89 3.957c-1.621.58-3.4.543-4.995-.106a.34.34 0 0 0-.41.106.357.357 0 0 0 0 .426 4.54 4.54 0 0 0 2.922 1.777 7.858 7.858 0 0 1-3.581 0 26.15 26.15 0 0 1-.94-.2l-.313-.07a12.43 12.43 0 0 0-4.246-.47c-2.2.25-3.843 1.528-5.428 2.765a30.09 30.09 0 0 1-1.62 1.215c-1.6 1.087-7.084 4.497-10.495 2.508a4.416 4.416 0 0 1-1.324-1.2 7.197 7.197 0 0 1-1.083-2.43c-.913-3.312-3.297-14.538 4.098-20.272Z" fill="#231F20"/><path d="M79.557 42.914s1.932 6.068.92 6.928c-1.012.86-3.114-.49-3.114-.49" fill="#fff"/><path d="M79.62 50.489a5.258 5.258 0 0 1-2.427-.839.356.356 0 0 1 .019-.627.352.352 0 0 1 .363.03c.496.313 2.046 1.088 2.69.52.488-.42-.142-3.724-1.048-6.545a.363.363 0 0 1 .234-.447.354.354 0 0 1 .446.227c.467 1.478 1.917 6.395.828 7.304a1.61 1.61 0 0 1-1.104.377Z" fill="#231F20"/><path d="M80.732 35.958c1.649 2.36 0 5.898-.708 8.306a227.481 227.481 0 0 1-3.163 10.097c-.708 2.132-6.285.59-7.077-.327l-1.515 8.747-11.726-4.072 3.772-10.608s3.772 1.095 7.169-2.678c3.397-3.773 5.76-13.394 5.76-13.394s5.881 1.62 7.488 3.93Z" fill="#fff"/><path fill-rule="evenodd" clip-rule="evenodd" d="M68.149 63.136h.113a.317.317 0 0 0 .149-.05.334.334 0 0 0 .17-.241l1.415-8.185a9.626 9.626 0 0 0 5.527 1.037 1.954 1.954 0 0 0 1.628-1.187 232.042 232.042 0 0 0 3.17-10.11c.12-.405.262-.839.41-1.294l.015-.042c.769-2.337 1.697-5.157.233-7.276-1.635-2.34-7.251-3.939-7.675-4.06l-.017-.004a.353.353 0 0 0-.27 0 .34.34 0 0 0-.162.22c0 .1-2.463 9.684-5.661 13.237-3.144 3.49-6.546 2.646-6.805 2.582l-.01-.003a.346.346 0 0 0-.425.22L56.21 58.624a.413.413 0 0 0 0 .277.34.34 0 0 0 .205.178l11.734 4.057Zm-.163-.824L56.99 58.489l3.517-9.99c1.026.2 4.239.448 7.204-2.842 3.086-3.425 5.28-11.368 5.754-13.18 1.288.384 5.675 1.861 6.95 3.68 1.257 1.797.39 4.452-.314 6.605l-.026.081-.144.448a29.74 29.74 0 0 0-.274.874 227.342 227.342 0 0 1-3.163 10.075c-.128.384-.496.64-1.104.76-1.798.356-4.862-.61-5.372-1.2a.353.353 0 0 0-.615.17l-1.416 8.342Z" fill="#231F20"/><path d="M77.49 51.803s-3.078.881-3.708-2.238l3.708 2.238Z" fill="#fff"/><path d="M76.55 52.272a3.301 3.301 0 0 1-1.735-.44 3.184 3.184 0 0 1-1.415-2.196.36.36 0 0 1 .708-.142c.095.7.48 1.327 1.061 1.727a3.15 3.15 0 0 0 2.201.241.365.365 0 0 1 .45.45.367.367 0 0 1-.259.26 4.154 4.154 0 0 1-1.012.1Z" fill="#231F20"/><path d="M72.459 43.263a4.843 4.843 0 0 0-.29-2.6 7.175 7.175 0 0 0-.793-1.89 2.349 2.349 0 0 0-1.67-1.074 2.119 2.119 0 0 0-1.62.71c-.414.446-.72.98-.892 1.564a7.59 7.59 0 0 0 1.535 7.382l-.134-.255" fill="#fff"/><path d="M68.73 47.71a.367.367 0 0 1-.263-.113 8.003 8.003 0 0 1-1.613-7.766c.19-.635.524-1.216.977-1.698a2.507 2.507 0 0 1 1.903-.789c.798.09 1.51.544 1.932 1.23a7.39 7.39 0 0 1 .842 1.982 5.17 5.17 0 0 1 .298 2.792.36.36 0 0 1-.44.256.355.355 0 0 1-.247-.434 4.614 4.614 0 0 0-.29-2.401 6.475 6.475 0 0 0-.75-1.79 1.945 1.945 0 0 0-1.416-.925c-.51-.01-.998.2-1.344.576-.377.405-.655.89-.814 1.421a7.277 7.277 0 0 0 1.154 6.693.385.385 0 0 1 .233.185l.127.256a.35.35 0 0 1-.113.454.331.331 0 0 1-.177.072Z" fill="#231F20"/><ellipse cx="79.296" cy="39.985" rx="1.257" ry=".5" transform="rotate(-77.39 79.296 39.985)" fill="#231F20"/><path d="M69.777 54.034a43.284 43.284 0 0 1-4.41-3.29s-.707 6.154 3.49 7.568l.92-4.278Z" fill="#231F20"/><path fill-rule="evenodd" clip-rule="evenodd" d="M68.743 58.667a.317.317 0 0 0 .114 0 .386.386 0 0 0 .177-.043.362.362 0 0 0 .17-.234l.92-4.263a.363.363 0 0 0-.156-.37 43.893 43.893 0 0 1-4.374-3.268.367.367 0 0 0-.36-.057.362.362 0 0 0-.22.291c-.028.263-.672 6.459 3.73 7.944Zm-.141-.839c-2.718-1.208-2.916-4.838-2.916-6.359a43.895 43.895 0 0 0 3.694 2.729l-.778 3.63Z" fill="#231F20"/><path d="M36.005 119.381s.637-43.484 7.134-53.495c6.497-10.011 23.354-12.271 31.393-6.303 8.04 5.969 4.169 51.585 4.169 51.585s-25.633 8.213-42.695 8.213Z" fill="#E7816B"/><path d="M68.92 57.026a46.895 46.895 0 0 1 11.861 7.027c5.563 4.64 17.303 24.59 17.303 24.59L82.6 98.059 68.7 80.85l.22-23.824Zm-19.086 2.707s-8.103.916-12.392 9.848c-2.321 4.845-8.266 20.491-8.266 20.491l17.877 2.068 2.78-32.407Z" fill="#E7816B"/><path d="M81.44 96.971a.346.346 0 0 1-.284-.149L67.35 77.943a.356.356 0 0 1 .071-.497.36.36 0 0 1 .495.078l13.807 18.879a.356.356 0 0 1-.283.568Zm41.215-21.337 3.454-10.764 1.076.312-2.173 10.616s-1.529 1.477-2.357-.164Z" fill="#231F20"/><path fill-rule="evenodd" clip-rule="evenodd" d="M123.476 76.764h.241a2.492 2.492 0 0 0 1.543-.675.341.341 0 0 0 .099-.178l2.172-10.658a.355.355 0 0 0-.247-.412l-1.076-.312a.368.368 0 0 0-.439.234l-3.432 10.779a.36.36 0 0 0 0 .27c.199.487.626.843 1.139.952Zm.092-.718a.846.846 0 0 1-.559-.454l3.305-10.282.432.121-2.088 10.182a1.553 1.553 0 0 1-1.09.433Z" fill="#231F20"/><path d="M57.35 51.263c-6.37-1.42-13.447-.426-18.592 3.553a13.205 13.205 0 0 0-4.692 6.395 8.397 8.397 0 0 0 1.317 7.659c4.883 5.89 15.604 5.862 22.235 3.936 4.523-1.307 17.912-7.688 14.225-13.954-2.654-4.484-9.717-6.559-14.493-7.589Z" fill="#E7816B"/><path d="M49.24 73.34a25.013 25.013 0 0 1-11.982-3.461.348.348 0 0 1-.113-.49.353.353 0 0 1 .488-.107c.085.057 8.84 5.52 17.126 2.366 3.978-1.513 6.37-4.2 8.655-6.792 2.527-2.843 4.912-5.528 9.03-5.905a.353.353 0 0 1 .383.327.35.35 0 0 1-.319.384c-3.835.348-6.03 2.842-8.563 5.684-2.25 2.536-4.798 5.407-8.938 6.984a16.219 16.219 0 0 1-5.768 1.01Zm-12.598 30.502a.356.356 0 0 1-.34-.369c.517-11.248 2.832-27.434 2.832-27.597a.361.361 0 0 1 .403-.299c.19.03.322.207.297.398 0 .164-2.342 16.342-2.83 27.526a.355.355 0 0 1-.361.341Zm54.273 70.477h15.039s1.635-3.659 5.159-4.163c0 0 13.715 5.819 11.698 7.012-2.017 1.194-32.957 1.066-32.957 1.066l1.061-3.915Z" fill="#231F20"/><path fill-rule="evenodd" clip-rule="evenodd" d="M89.847 178.597h3.163c8.202 0 28.265-.107 29.985-1.144a.71.71 0 0 0 .375-.654c-.092-1.762-9.292-5.798-12.123-6.992a.338.338 0 0 0-.184 0c-3.205.462-4.911 3.347-5.328 4.164h-14.82a.354.354 0 0 0-.346.263l-1.062 3.915a.358.358 0 0 0 .064.313.35.35 0 0 0 .276.135Zm32.787-1.734c-1.401.831-19.914 1.059-32.32 1.023l.87-3.212h14.77a.35.35 0 0 0 .325-.206c.015-.035 1.572-3.424 4.784-3.95 5.577 2.373 11.571 5.464 11.571 6.345Z" fill="#231F20"/><path d="M79.55 139.368c9.575-2.025 15.994-6.522 12.229-12.59-3.765-6.068-30.806-2.132-36.093-6.629-5.286-4.498-3.397-28.35-9.2-32.436-5.803-4.085-30.678-8.213-33.46-3.055-2.78 5.158 0 42.695 8.104 51.03 8.103 8.334 49.078 5.613 58.42 3.68Z" fill="#231F20"/><path fill-rule="evenodd" clip-rule="evenodd" d="M49.862 141.749h1.6c11.386 0 23.304-1.045 28.18-2.125 7.098-1.499 11.755-4.135 13.17-7.418.764-1.776.524-3.694-.708-5.684-2.13-3.425-11.025-3.787-19.624-4.135l-.026-.001c-6.977-.284-14.18-.577-16.527-2.578-2.47-2.11-3.354-8.937-4.21-15.545v-.002l-.005-.031c-.94-7.223-1.91-14.687-5.027-16.88-4.954-3.467-22.739-6.806-30.431-4.973-1.84.47-3.022 1.172-3.539 2.132-3.007 5.606.12 43.157 8.132 51.456 4.494 4.604 18.258 5.691 29.015 5.784ZM16.395 83.102a23.696 23.696 0 0 1 5.237-.49c8.485 0 20.8 2.678 24.62 5.385 2.874 2.011 3.83 9.372 4.742 16.421.913 7.048 1.777 13.706 4.452 15.994 2.533 2.167 9.554 2.451 16.984 2.749l.025.001c8.428.341 17.096.692 19.027 3.801 1.103 1.783 1.323 3.481.658 5.044-1.281 3.027-5.895 5.585-12.668 7.006-9.391 1.954-50.154 4.626-58.087-3.552-7.8-8.044-10.793-45.517-8.047-50.611.41-.775 1.444-1.364 3.057-1.748Z" fill="#231F20"/><path d="M97.32 119.737h-.057l-22.816-4.008a.36.36 0 0 1 .12-.71l22.817 4.007a.356.356 0 0 1-.064.711Z" fill="#D1D3D4"/><path d="m163.1 166.368-.708-.078c0-.206 2.23-20.776-4.861-29.913l.559-.433c3.057 3.936 4.833 10.26 5.265 18.793a80.36 80.36 0 0 1-.255 11.631Z" fill="#231F20"/><path d="M160.658 168.99a2.46 2.46 0 0 1 .071-.71c1.692-10.765-1.175-15.781-3.878-18.097l.46-.54c2.831 2.43 5.86 7.659 4.119 18.75a5.36 5.36 0 0 0-.071.519l-.701.078Z" fill="#231F20"/><path d="M156.986 145.614a4.039 4.039 0 0 0-1.883-.554 4.326 4.326 0 0 0-3.333.916c-.234.228-.439.611-.227.86.126.116.284.19.453.213a2.836 2.836 0 0 1 1.946 1.954c-.488-.362-.905-.824-1.415-1.186a2.378 2.378 0 0 0-1.691-.555 2.832 2.832 0 0 0-1.649 1.109 6.569 6.569 0 0 0-1.125 1.655 3.055 3.055 0 0 0-.255 1.968 4.72 4.72 0 0 1 1.988-.135c.473.043.923.229 1.288.533.111.086.19.206.227.341a.567.567 0 0 1-.446.604 1.78 1.78 0 0 1-.821 0 14.504 14.504 0 0 0-1.748-.248 1.718 1.718 0 0 0-.658.042 1.424 1.424 0 0 0-.708 1.464.87.87 0 0 0 .248.647c.29.227.708.064 1.047-.079a5.135 5.135 0 0 1 1.869-.397.42.42 0 0 1 .212.035.316.316 0 0 1 .057.462.841.841 0 0 1-.453.263 9.846 9.846 0 0 1-1.487.348c-.29.043-.629.107-.771.369a.816.816 0 0 0-.078.37 4.559 4.559 0 0 0 .793 2.707c.088.144.203.27.34.369.194.104.409.162.629.171a10.27 10.27 0 0 0 4.954-.711.43.43 0 0 0 .205-.149c.092-.163-.063-.355-.184-.497-.523-.647-.403-1.577-.254-2.395a.707.707 0 0 1 .184-.426.473.473 0 0 1 .637.1c.143.194.224.426.233.667a6.255 6.255 0 0 1-.198 2.509 12.66 12.66 0 0 0 2.371-.81 7.304 7.304 0 0 0 1.727-.96 2.841 2.841 0 0 0 1.054-1.634.527.527 0 0 0-.035-.362.594.594 0 0 0-.213-.185 4.48 4.48 0 0 1-1.67-1.975c-.071-.171-.106-.405.05-.49a.327.327 0 0 1 .205 0c.892.149 1.345 1.151 2.081 1.684a.375.375 0 0 0 .205.085.324.324 0 0 0 .24-.107c.296-.276.497-.639.574-1.037a3.76 3.76 0 0 0-.128-2.366 2.671 2.671 0 0 0-1.727-1.556 3.037 3.037 0 0 0-1.104-.05c-.127 0-.806.242-.898.156-.092-.085.269-.597.354-.767.46-1.052-.156-2.402-1.012-2.97Zm10.693-6.43a3.408 3.408 0 0 0-2.831 1.47 3.93 3.93 0 0 0-.495 2.459c.11.842.314 1.669.608 2.465a3.462 3.462 0 0 1 2.704-1.769c1.153-.099-.191 1.016-.39 1.251a66.753 66.753 0 0 0-1.889 2.352c-.18.199-.301.445-.347.71-.002.286.082.566.241.803a7.251 7.251 0 0 0 2.123 2.721c.253.223.61.281.92.15a1.03 1.03 0 0 0 .311-.455 8.112 8.112 0 0 1 1.309-1.961c.128-.149.333-.299.496-.192.163.106.134.27.12.426l-.148 1.585a3.77 3.77 0 0 0 .099 1.712c.375 1.009 1.507 1.513 2.561 1.712.288.079.591.079.878 0 .566-.199.8-.874.899-1.47a4.373 4.373 0 0 1 .927-2.132 7.992 7.992 0 0 0 .969 2.935c.257.487.611.915 1.041 1.257.457.326.982.545 1.535.64a11.53 11.53 0 0 0 2.831.156 7.016 7.016 0 0 0 1.939-.249 2.623 2.623 0 0 0 1.529-1.158c.559-1.009.127-2.309-.595-3.204-.721-.896-1.698-1.564-2.448-2.437a6.838 6.838 0 0 1 2.555 1.335.944.944 0 0 0 .707.327.626.626 0 0 0 .326-.185c1.118-1.122-.17-3.019-.765-4.028a3.263 3.263 0 0 0-1.585-1.634 2.568 2.568 0 0 0-1.274 0c-.637.106-3.793 1.548-2.448-.349a3.705 3.705 0 0 1 2.93-1.286c.545.05 1.373.491 1.358-.533a1.918 1.918 0 0 0-.41-1.001 22.204 22.204 0 0 0-1.415-1.898.931.931 0 0 0-.531-.376.901.901 0 0 0-.531.149 12.038 12.038 0 0 1-4.204 1.577c-.339 0-.814-.106-.757-.44a.495.495 0 0 1 .219-.291c.899-.711 2.244-.405 3.164-1.059.277-.177.461-.469.502-.796 0-.476-.389-.852-.771-1.144a6.697 6.697 0 0 0-3.376-1.57c-1.861-.149-3.538 1.08-4.791 2.48-.417.476-.708 1.712-1.352 1.634a10.612 10.612 0 0 1-1.188-.505 4.048 4.048 0 0 0-1.26-.184Zm-9.016-9.834a3.108 3.108 0 0 0-.927-1.89c-.949-.867-2.371-.909-3.638-.711-.95.204-1.882.482-2.788.832-.913.263-1.182.469-.368 1.215.573.518 2.123 2.373 1.415 3.261-.708.888-1.896-1.378-2.356-1.755a3.364 3.364 0 0 0-2.237-.959 3.483 3.483 0 0 0-1.925 1.023 20.41 20.41 0 0 0-1.571 1.556.795.795 0 0 0-.184.277c-.113.412.446.654.864.711 1.196.22 2.533.845 2.774 2.039-1.232.305-2.392-.945-3.652-.81a2.868 2.868 0 0 0-2.017 1.798 4.58 4.58 0 0 0-.304 2.536 6.73 6.73 0 0 1 3.312-.284.574.574 0 0 1 .368.163.414.414 0 0 1-.163.555 1.089 1.089 0 0 1-.623.106h-2.052a.89.89 0 0 0-.573.135.812.812 0 0 0-.227.533 11.217 11.217 0 0 0-.035 2.842c.017.587.245 1.148.644 1.578.32.242.694.403 1.09.468 1.036.25 2.097.384 3.163.398a2.507 2.507 0 0 1-.318-2.295c.424-.994 1.146-.419 1.182.484 0 .426-.078.845-.092 1.271a.443.443 0 0 0 .042.235.435.435 0 0 0 .163.128 2.588 2.588 0 0 0 1.84.241c.177-.035.344-.11.488-.22.329-.394.441-.927.297-1.421l-.29-2.565a.398.398 0 0 1 .071-.348c.127-.128.354 0 .488.099a2.31 2.31 0 0 1 .765 1.869c0 .405-.17.796-.199 1.194-.058.408.103.816.425 1.073.341.164.734.184 1.09.056a2.12 2.12 0 0 0 1.238-.646c.282-.448.367-.994.234-1.506a9.52 9.52 0 0 1-.297-1.542c0-1.052 1.075-2.558 1.252-.711.007.603-.028 1.207-.106 1.805a.543.543 0 0 0 0 .234.478.478 0 0 0 .403.192 4.455 4.455 0 0 0 2.414-.469 3.77 3.77 0 0 0 1.316-1.066c.262-.37.482-.768.658-1.186.856-1.826 2.222-3.254.63-5.208-.545-.668-1.557-.846-2.066-1.528-.602-.81.325-2.096.36-3.112.025-.224.032-.45.022-.675Z" fill="#231F20"/><path d="M153.56 164.237h18.046l-1.415 13.599a4.04 4.04 0 0 1-4.02 3.638h-7.211a4.04 4.04 0 0 1-4.013-3.638l-1.387-13.599Z" fill="#fff"/><path fill-rule="evenodd" clip-rule="evenodd" d="M158.96 181.851h7.24a4.396 4.396 0 0 0 4.324-3.972l1.415-13.6a.338.338 0 0 0-.092-.277.346.346 0 0 0-.269-.12h-18.046a.364.364 0 0 0-.276.12.385.385 0 0 0-.092.277l1.415 13.6a4.402 4.402 0 0 0 4.381 3.972Zm-3.652-4.043-1.344-13.195h17.239l-1.352 13.195a3.671 3.671 0 0 1-3.651 3.311h-7.24a3.671 3.671 0 0 1-3.652-3.311Z" fill="#231F20"/><path d="M165.089 164.486c0-.128-1.416-13.145 4.953-23.633l.609.37c-6.235 10.274-4.848 23.049-4.833 23.177l-.729.086Z" fill="#231F20"/><path d="M148.698 139.795a.36.36 0 0 1-.24-.1.354.354 0 0 1 0-.504c3.694-3.908 9.511-6.288 9.759-6.395a.354.354 0 0 1 .46.199.357.357 0 0 1-.198.462c-.057 0-5.924 2.416-9.512 6.217a.352.352 0 0 1-.269.121Zm2.492 18.104a.355.355 0 0 1-.312-.519 29.556 29.556 0 0 1 5.053-6.892.346.346 0 0 1 .495 0 .357.357 0 0 1 0 .498 29.003 29.003 0 0 0-4.911 6.714.361.361 0 0 1-.325.199Zm30.091-5.031a.369.369 0 0 1-.298-.156c-.17-.263-4.246-6.395-9.079-10.018a.357.357 0 0 1-.071-.498.36.36 0 0 1 .495-.071c4.827 3.659 8.804 9.536 9.243 10.189a.357.357 0 0 1-.099.49.318.318 0 0 1-.191.064ZM136.441 29.45h42.964v30.283h-42.964z" fill="#fff"/><path fill-rule="evenodd" clip-rule="evenodd" d="M136.441 60.088h42.957c.196 0 .354-.16.354-.355V29.45a.354.354 0 0 0-.354-.355h-42.957a.355.355 0 0 0-.354.355v30.283c0 .196.159.355.354.355Zm42.603-.71h-42.249V29.804h42.249v29.572Z" fill="#D1D3D4"/><path d="M164.169 88.48a.36.36 0 0 1-.354-.298l-1.741-11.34-3.043 1.35a.353.353 0 0 1-.467-.185.346.346 0 0 1 .184-.462l3.474-1.506a.347.347 0 0 1 .312 0 .362.362 0 0 1 .184.256l1.811 11.76a.346.346 0 0 1-.297.404l-.063.022Z" fill="#231F20"/><path d="M170.17 100.652h-8.86l-.482-19.149h9.823l-.481 19.149Z" fill="#fff"/><path fill-rule="evenodd" clip-rule="evenodd" d="M161.31 101h8.86a.354.354 0 0 0 .325-.298l.482-19.185a.377.377 0 0 0-.354-.37H160.8a.362.362 0 0 0-.354.37l.51 19.142a.354.354 0 0 0 .354.341Zm8.534-.711h-8.166l-.489-18.438h9.115l-.46 18.438Z" fill="#231F20"/><path fill="#fff" d="M159.93 79.563h11.62v1.94h-11.62z"/><path fill-rule="evenodd" clip-rule="evenodd" d="M159.93 81.858h11.62a.355.355 0 0 0 .354-.355v-1.94a.355.355 0 0 0-.354-.355h-11.62a.354.354 0 0 0-.354.355v1.94c0 .196.158.355.354.355Zm11.266-.71h-10.913v-1.23h10.913v1.23Z" fill="#231F20"/><path fill-rule="evenodd" clip-rule="evenodd" d="M161.76 91.821a4.244 4.244 0 0 0 4.171 2.365 4.086 4.086 0 0 0 3.885-4.263 4.262 4.262 0 0 0-2.716-3.961 4.235 4.235 0 0 0-4.663 1.098 4.278 4.278 0 0 0-.677 4.761Zm.656-3.492a3.536 3.536 0 0 1 3.515-1.923 3.376 3.376 0 0 1 3.177 3.552 3.551 3.551 0 0 1-2.281 3.303 3.529 3.529 0 0 1-3.89-.947 3.564 3.564 0 0 1-.521-3.985Zm-15.911-35.034c.819.286 1.68.435 2.547.44a10.005 10.005 0 0 0 5.471-1.946c1.741-1.13 2.505-2.245 2.335-3.41a4.018 4.018 0 0 0-1.033-1.855 3.183 3.183 0 0 1-.885-1.535c.024-.663.24-1.306.623-1.847a6.189 6.189 0 0 0 .29-5.926c-1.033-1.997-3.199-3.325-5.944-3.638a6.223 6.223 0 0 0-5.259 2.054 6.167 6.167 0 0 0-1.344 5.172c.056.284.127.576.205.874l.008.033c.28 1.16.545 2.255-.157 3.008a4.027 4.027 0 0 1-1.132.71 3.412 3.412 0 0 0-1.557 1.187 2.281 2.281 0 0 0-.24 1.492 5.172 5.172 0 0 0 2.271 3.418c.234.156.467.313.708.448.985.54 2.021.983 3.093 1.321Zm.226-.675a16.276 16.276 0 0 1-2.965-1.272v.036a7.56 7.56 0 0 1-.637-.42 4.525 4.525 0 0 1-1.989-2.927 1.6 1.6 0 0 1 .149-1.037 2.83 2.83 0 0 1 1.26-.917c.494-.212.946-.51 1.337-.88.969-1.037.623-2.45.319-3.693v-.002a23.928 23.928 0 0 1-.199-.839 5.462 5.462 0 0 1 1.182-4.569 5.488 5.488 0 0 1 4.65-1.818c2.505.29 4.472 1.478 5.392 3.26a5.523 5.523 0 0 1-.311 5.308 3.84 3.84 0 0 0-.672 2.217 3.828 3.828 0 0 0 1.04 1.912c.417.417.72.936.878 1.506.106.86-.531 1.74-2.017 2.714-2.088 1.329-4.43 2.444-7.417 1.421Z" fill="#D1D3D4"/><path fill-rule="evenodd" clip-rule="evenodd" d="M163.036 52.428a14.165 14.165 0 0 0 5.287 1.102 10 10 0 0 0 3.121-.434 6.82 6.82 0 0 0 4.465-4.533 4.888 4.888 0 0 0-1.167-4.668c-2.152-2.373-7.622-3.318-10.453-2.373-.609.217-1.205.47-1.783.76a9.025 9.025 0 0 1-2.831.98 10.036 10.036 0 0 1-3.801-.582c-1.698-.483-3.446-.973-5.088-.263A4.36 4.36 0 0 0 148.415 47a8.044 8.044 0 0 0 1.939 4.1 5.78 5.78 0 0 0 5.06 2.202 8.544 8.544 0 0 0 2.463-.83 4.528 4.528 0 0 1 4.805-.186l.354.142Zm-2.378-1.456h-.169a7.011 7.011 0 0 0-2.874.852 8.019 8.019 0 0 1-2.25.775c-2.123.27-3.694-1.123-4.444-1.968a7.36 7.36 0 0 1-1.798-3.745 3.677 3.677 0 0 1 1.932-3.844c1.404-.623 2.956-.18 4.593.288l.014.004c1.307.465 2.691.673 4.076.61a9.684 9.684 0 0 0 3.022-1.072 15.002 15.002 0 0 1 1.706-.71c2.59-.875 7.763.042 9.702 2.174a4.216 4.216 0 0 1 1.012 4.014 6.111 6.111 0 0 1-4.005 4.029 11.6 11.6 0 0 1-7.877-.618l-.34-.143a6.845 6.845 0 0 0-2.3-.646Z" fill="#D1D3D4"/><path fill-rule="evenodd" clip-rule="evenodd" d="M164.806 47.15a3.058 3.058 0 0 0 2.512 1.058l.446.014a8.98 8.98 0 0 0 5.159-1.776c2.845-2.31 1.932-4.59 1.132-5.741-2.257-3.255-9.179-5.55-12.908-3.347a5.685 5.685 0 0 0-2.619 3.78 4.229 4.229 0 0 0 .786 3.425 3.639 3.639 0 0 0 2.668 1.279 4.83 4.83 0 0 1 1.649.447c.433.224.83.514 1.175.86Zm-3.298-9.216a6.424 6.424 0 0 1 3.262-.768c3.298 0 7.19 1.727 8.705 3.915 1.125 1.656.807 3.311-.998 4.782a8.557 8.557 0 0 1-4.756 1.613 2.52 2.52 0 0 1-2.427-.846 4.763 4.763 0 0 0-3.213-1.534 2.967 2.967 0 0 1-2.208-1.023 3.454 3.454 0 0 1-.644-2.843 4.975 4.975 0 0 1 2.279-3.296Z" fill="#D1D3D4"/><path d="M59.317 45.622s2.286-1.862 0-4.264H55.63s.792 3.105 0 4.264h3.687Z" fill="#231F20"/><path fill-rule="evenodd" clip-rule="evenodd" d="M55.63 45.977h3.687a.36.36 0 0 0 .198-.078 3.38 3.38 0 0 0 1.146-2.203 3.445 3.445 0 0 0-1.118-2.58.389.389 0 0 0-.254-.106H55.6a.36.36 0 0 0-.282.135.406.406 0 0 0-.064.313c.212.817.63 3.126.056 3.958a.363.363 0 0 0 0 .369.37.37 0 0 0 .319.192Zm3.545-.71h-2.993a8.274 8.274 0 0 0-.128-3.546h3.086c.523.503.817 1.199.814 1.925a2.605 2.605 0 0 1-.779 1.62Z" fill="#231F20"/><path d="M57.314 44.215a2.663 2.663 0 0 0-.8-2.267 5.607 5.607 0 0 0-.927-.952 5.888 5.888 0 0 0-2.186-.867c-1.72-.419-3.73.114-5.485.15a13.907 13.907 0 0 1-5.506-1.024 3.707 3.707 0 0 1-1.564-1.03c-.439 2.58-.382 5.421 1.097 7.588a9.83 9.83 0 0 0 4.954 3.432 7.95 7.95 0 0 0 7.947-1.158 6.882 6.882 0 0 0 2.25-2.977c.103-.29.177-.59.22-.895Z" fill="#fff"/><path fill-rule="evenodd" clip-rule="evenodd" d="M46.748 49.58a9.57 9.57 0 0 0 3.213.589 8.119 8.119 0 0 0 5.089-1.84 7.31 7.31 0 0 0 2.363-3.134c.121-.312.21-.636.262-.966a2.999 2.999 0 0 0-.87-2.55 6.947 6.947 0 0 0-.984-1.01 6.22 6.22 0 0 0-2.321-.923 10.932 10.932 0 0 0-3.758 0l-.243.027c-.548.062-1.07.122-1.576.122a13.856 13.856 0 0 1-5.4-.917 3.46 3.46 0 0 1-1.415-.924.346.346 0 0 0-.36-.127.362.362 0 0 0-.263.284c-.559 3.24-.177 5.876 1.147 7.816a10.148 10.148 0 0 0 5.116 3.552Zm-4.529-3.973c-1.14-1.684-1.507-3.886-1.14-6.657.357.268.745.492 1.154.668 1.8.72 3.724 1.075 5.662 1.044.563-.013 1.163-.075 1.744-.135l.138-.014a10.396 10.396 0 0 1 3.539 0 5.65 5.65 0 0 1 2.06.803c.32.248.614.529.877.838.537.513.8 1.251.707 1.99-.05.281-.129.558-.233.824a6.585 6.585 0 0 1-2.123 2.842 7.646 7.646 0 0 1-7.615 1.101 9.412 9.412 0 0 1-4.77-3.304Z" fill="#231F20"/><path fill="#fff" d="M101 25.691h30.049v19.923H101z"/><path fill-rule="evenodd" clip-rule="evenodd" d="M101 45.977h30.049a.36.36 0 0 0 .353-.355V25.684a.361.361 0 0 0-.353-.355H101a.355.355 0 0 0-.354.355v19.938c0 .196.159.355.354.355Zm29.723-.71h-29.397l.028-19.22h29.369v19.22Z" fill="#D1D3D4"/><path fill="#fff" d="M101 45.622h30.049v3.943H101z"/><path fill-rule="evenodd" clip-rule="evenodd" d="M101 49.92h30.049a.354.354 0 0 0 .353-.355v-3.943a.354.354 0 0 0-.353-.356H101a.355.355 0 0 0-.354.356v3.943c0 .196.159.355.354.355Zm29.723-.71h-29.397l.028-3.233h29.369v3.233Z" fill="#D1D3D4"/><path d="M104.439 40.982a.346.346 0 0 1-.326-.197.35.35 0 0 1 .05-.379c.34-.426 8.493-10.466 16.093-9.862 3.029.242 5.096 1.833 5.534 4.263a4.807 4.807 0 0 1-2.625 5.23c-2.123.988-4.091.973-5.463-.043a4.136 4.136 0 0 1-1.458-4.078 3.103 3.103 0 0 1 2.215-2.842 3.69 3.69 0 0 1 3.623 1.03c.43.476.523 1.168.234 1.74-.538 1.045-1.175 1.592-1.897 1.62-1.153 0-2.003-1.314-2.038-1.37a.357.357 0 0 1 .386-.532.345.345 0 0 1 .215.162c.184.291.772 1.066 1.416 1.03.644-.035 1.005-.71 1.288-1.236a.842.842 0 0 0-.156-.966 2.97 2.97 0 0 0-2.88-.796 2.43 2.43 0 0 0-1.706 2.252 3.454 3.454 0 0 0 1.175 3.404c1.154.86 2.887.852 4.749 0a4.083 4.083 0 0 0 2.194-4.491c-.376-2.082-2.201-3.453-4.891-3.666-7.197-.597-15.378 9.492-15.456 9.599a.358.358 0 0 1-.276.128Z" fill="#D1D3D4"/><path fill-rule="evenodd" clip-rule="evenodd" d="M104.595 64.145h11.578c.195 0 .354-.16.354-.355v-9.237a.355.355 0 0 0-.354-.355h-11.578a.355.355 0 0 0-.354.355v9.237c0 .196.159.355.354.355Zm11.224-.71h-10.87v-8.527h10.87v8.526Z" fill="#D1D3D4"/><path d="M110.384 56.237a.355.355 0 0 1-.354-.355v-2.21a.355.355 0 1 1 .708 0v2.195a.355.355 0 0 1-.354.37Z" fill="#D1D3D4"/><defs><linearGradient id="a" x1="0" y1="202" x2="202" y2="202" gradientUnits="userSpaceOnUse"><stop stop-color="#5D0202" stop-opacity=".01"/><stop offset="1" stop-color="#5D0202" stop-opacity=".498"/></linearGradient></defs></svg>