<svg width="202" height="202" fill="none" xmlns="http://www.w3.org/2000/svg"><circle opacity=".203" cx="101" cy="101" r="101" transform="matrix(0 -1 -1 0 202 202)" fill="url(#a)"/><path d="M173.225 39.485a8.065 8.065 0 0 0-2.937.398c-1.4.621-2.763 3.896-3.734 9.035a62.835 62.835 0 0 0-1.089 13.508 2.535 2.535 0 0 0 1.12 2.02c4.356 3.106 19.136-.69 20.704-1.107.747-1.429 7.555-14.807 4.201-18.404-2.95-3.188-12.845-5.45-18.265-5.45Z" fill="#fff"/><path fill-rule="evenodd" clip-rule="evenodd" d="M166.212 64.936c1.357.982 3.622 1.336 6.179 1.336 5.957 0 13.518-1.926 14.975-2.298l.228-.057a.322.322 0 0 0 .199-.161l.005-.01c.396-.745 8.03-15.12 4.164-19.252-3.883-4.151-18.301-6.76-21.929-5.207s-5.576 16.155-5.209 23.164a3.143 3.143 0 0 0 1.388 2.485Zm4.076-25.053a8.065 8.065 0 0 1 2.937-.398c5.42 0 15.315 2.262 18.264 5.45 3.355 3.597-3.453 16.975-4.2 18.404-1.568.417-16.348 4.213-20.704 1.106a2.535 2.535 0 0 1-1.12-2.019 62.771 62.771 0 0 1 1.089-13.508c.971-5.139 2.334-8.413 3.734-9.035Z" fill="#231F20"/><path d="M131.438 147.086a30.773 30.773 0 0 0 18.29-25.755l-10.299-11.048-14.158 27.296" fill="#fff"/><path d="M131.438 147.409a.322.322 0 0 1-.112-.621 30.692 30.692 0 0 0 18.078-25.345l-9.895-10.613-13.945 26.892a.324.324 0 0 1-.573-.292l14.158-27.296a.31.31 0 0 1 .242-.168.317.317 0 0 1 .28.093l10.299 11.054a.329.329 0 0 1 .087.249 31.335 31.335 0 0 1-18.507 26.022.227.227 0 0 1-.112.025Z" fill="#231F20"/><path d="m163.362 163.962 31.152-.602-.429-39.171-45.745 1.647-6.366 38.126h21.388Z" fill="#231F20"/><path fill-rule="evenodd" clip-rule="evenodd" d="M141.974 164.273h21.394l31.152-.621a.311.311 0 0 0 .305-.317l-.43-39.146a.296.296 0 0 0-.099-.224.343.343 0 0 0-.224-.087l-45.745 1.647a.305.305 0 0 0-.292.261l-6.366 38.127a.284.284 0 0 0 .068.248.306.306 0 0 0 .237.112Zm21.388-.621h-21.021l6.26-37.518 45.178-1.628.424 38.524-30.841.622Z" fill="#231F20"/><path d="M200.519 80.731c-2.788-3.784-9.459-5.778-13.952-6.493-4.325-.683-8.656 0-12.999-.373a38.28 38.28 0 0 0-11.824 1.156c-14.493 4.001-27.966 24.954-27.966 24.954l14.774.776s-2.147 15.429-8.308 49.237c25.663.913 55.533 3.461 55.533 3.461s.131-7.077.454-14.043c2.315-2.156 2.234-5.592 2.658-7.587.547-2.566-.56-30.446-.56-30.446l3.366-1.243s.044-17.77-1.176-19.399Z" fill="#E7816B"/><path d="m166 80.34-11.257 73.935 13.442 1.349 15.289-75.44L166 80.34Z" fill="#231F20"/><path fill-rule="evenodd" clip-rule="evenodd" d="M168.154 155.934h.031a.31.31 0 0 0 .305-.254l15.283-75.433a.312.312 0 0 0-.068-.261.3.3 0 0 0-.243-.112l-17.468.155a.312.312 0 0 0-.305.261l-11.257 73.942a.298.298 0 0 0 .056.236.334.334 0 0 0 .218.118l13.448 1.348Zm-.199-.646-12.838-1.286 11.17-73.358 16.802-.149-15.134 74.793Z" fill="#231F20"/><path d="m167.998 71.07-1.935 9.27s2.059 6.157 8.301 5.505a12.491 12.491 0 0 0 9.11-5.66l2.216-17.038s-4.163-2.989-1.537-12.527a30.306 30.306 0 0 1-15.999.075s-4.164 10.171-4.058 14.912c.106 4.741 3.902 5.462 3.902 5.462Z" fill="#fff"/><path fill-rule="evenodd" clip-rule="evenodd" d="M165.761 80.449c.099.27 2.11 5.769 7.701 5.769.32 0 .64-.019.958-.056a12.663 12.663 0 0 0 9.334-5.816.297.297 0 0 0 .044-.118l2.215-17.038a.31.31 0 0 0-.13-.304c-.038-.025-3.952-2.964-1.419-12.185a.317.317 0 0 0-.411-.385 30.26 30.26 0 0 1-15.812.068.324.324 0 0 0-.38.193c-.174.416-4.182 10.29-4.082 15.074.112 4.138 2.887 5.356 3.846 5.654l-1.867 8.966a.299.299 0 0 0 .003.178Zm8.572 5.08c-5.607.577-7.667-4.48-7.934-5.214l1.91-9.153a.322.322 0 0 0-.05-.248.303.303 0 0 0-.205-.13l-.005-.002c-.211-.043-3.543-.726-3.635-5.125-.085-4.136 3.159-12.547 3.886-14.432l.047-.12a31.496 31.496 0 0 0 15.345 0c-2.109 8.295.909 11.576 1.656 12.197l-2.185 16.777a12.292 12.292 0 0 1-8.83 5.45Z" fill="#231F20"/><path d="M182.186 62.376a3.978 3.978 0 0 1 1.624-1.932 7.009 7.009 0 0 1 2.259-.777 3.005 3.005 0 0 1 1.307-.062c.296.093.572.238.815.429a3.107 3.107 0 0 1 1.245 1.721c.088.584.035 1.18-.156 1.74a6.952 6.952 0 0 1-.715 1.77 4.822 4.822 0 0 1-6.671 1.647" fill="#fff"/><path d="M184.439 67.938a5.197 5.197 0 0 1-2.701-.752.323.323 0 0 1 .093-.587.317.317 0 0 1 .243.04 4.617 4.617 0 0 0 3.435.534 4.554 4.554 0 0 0 2.8-2.069 6.66 6.66 0 0 0 .679-1.696 3.357 3.357 0 0 0 .149-1.578 2.804 2.804 0 0 0-1.126-1.535 2.16 2.16 0 0 0-.71-.38 2.753 2.753 0 0 0-1.157.063 6.965 6.965 0 0 0-2.191.74 3.666 3.666 0 0 0-1.493 1.776.333.333 0 0 1-.622-.236 4.346 4.346 0 0 1 1.755-2.088 7.358 7.358 0 0 1 2.414-.801c.473-.13.969-.15 1.45-.056.338.1.653.264.927.485a3.354 3.354 0 0 1 1.375 1.907 3.982 3.982 0 0 1-.155 1.864 7.462 7.462 0 0 1-.747 1.864 5.214 5.214 0 0 1-3.192 2.368 5.11 5.11 0 0 1-1.226.136Zm-17.188 7.766a7.933 7.933 0 0 0 6.46-1.18c3.011-2.206 2.98-3.728 2.98-3.728s-4.611 1.777-8.469.453l-.971 4.456Z" fill="#231F20"/><path fill-rule="evenodd" clip-rule="evenodd" d="M167.164 76.003c.673.174 1.365.26 2.06.254a7.83 7.83 0 0 0 4.661-1.503c3.111-2.274 3.111-3.915 3.111-3.983a.29.29 0 0 0-.137-.249.299.299 0 0 0-.28 0c-.043.019-4.555 1.69-8.257.448a.293.293 0 0 0-.249 0 .3.3 0 0 0-.15.205l-.97 4.467a.303.303 0 0 0 .211.36Zm6.366-1.728a7.64 7.64 0 0 1-5.912 1.2l.834-3.828c3.087.92 6.491.043 7.798-.373-.231.584-.884 1.653-2.72 3.001Z" fill="#231F20"/><path d="M173.568 57.2s-3.952 4.157-3.342 5.102c.61.944 2.794.795 2.794.795" fill="#fff"/><path d="M172.56 63.39c-.741 0-2.079-.119-2.595-.92-.673-1.032 2.134-4.182 3.372-5.48a.313.313 0 0 1 .534.217c0 .081-.033.16-.092.217-2.016 2.125-3.559 4.35-3.304 4.722.411.622 1.991.665 2.489.622a.31.31 0 0 1 .336.28.309.309 0 0 1-.286.335c-.025-.006-.212.006-.454.006Z" fill="#231F20"/><ellipse cx="178.918" cy="57.975" rx="1.112" ry=".79" transform="rotate(-68.08 178.918 57.975)" fill="#231F20"/><ellipse cx="170.72" cy="56.636" rx="1.112" ry=".79" transform="rotate(-68.08 170.72 56.636)" fill="#231F20"/><path d="M173.014 68.633c-.319 0-.637-.04-.946-.118-4.307-1.037-4.207-6.058-4.207-6.108a.317.317 0 0 1 .324-.298.304.304 0 0 1 .298.317c0 .186-.081 4.567 3.734 5.487 3.815.92 5.7-5.102 5.719-5.164a.31.31 0 1 1 .591.186c-.081.25-1.829 5.698-5.513 5.698Z" fill="#231F20"/><path d="m37 82.98 23.26 26.029 32.547 11.365-4.157 8.587s-21.127-3.187-29.447-4.119c-8.32-.932-18.837-13.409-18.837-13.409L37 82.981Z" fill="#fff"/><path fill-rule="evenodd" clip-rule="evenodd" d="M88.606 129.266h.044c.12 0 .23-.07.28-.181l4.163-8.612a.302.302 0 0 0 0-.254.31.31 0 0 0-.18-.174l-32.472-11.34L37.23 82.738a.312.312 0 0 0-.361-.074.323.323 0 0 0-.18.317l3.366 28.489a.28.28 0 0 0 .075.161c.429.516 10.69 12.577 19.035 13.515 6.182.696 19.594 2.675 25.958 3.613 2.099.31 3.43.507 3.483.507Zm-29.372-4.741c-7.779-.876-17.704-12.222-18.57-13.229l-3.241-27.383 22.62 25.283c.035.04.08.07.13.087l32.217 11.253-3.908 8.077c-2.322-.36-21.47-3.212-29.248-4.088Z" fill="#231F20"/><path d="M48.294 70.075c-.323-2.181-1.2-4.238-1.867-6.332-1.68-5.076-1.923-10.314-3.684-15.372-2.259-6.506-6.596-11.24-14.182-10.973a7.735 7.735 0 0 0-7.137 4.76c-3.591-1.977-8.376 2.044-8.544 5.722-.25 5.424.1 10.054-2.266 15.192-1.792 3.902-4.567 7.556-4.797 11.843-.23 4.288 2.202 8.295 5.687 10.663 3.485 2.367 7.879 3.156 12.079 2.846 4.2-.311 8.264-1.653 12.166-3.256a31.455 31.455 0 0 0 5.5-2.772c3.965-2.647 7.804-7.276 7.045-12.321Z" fill="#fff"/><path fill-rule="evenodd" clip-rule="evenodd" d="M11.33 85.833a18.69 18.69 0 0 0 10.523 2.963c.579 0 1.164-.018 1.736-.05 4.63-.341 8.98-1.932 12.26-3.28a31.236 31.236 0 0 0 5.569-2.802c3.989-2.678 7.971-7.37 7.2-12.62a26.385 26.385 0 0 0-1.37-4.834 76.424 76.424 0 0 1-.54-1.554 58.376 58.376 0 0 1-1.762-7.456 56.717 56.717 0 0 0-1.923-7.922c-2.632-7.562-7.648-11.408-14.493-11.185a7.997 7.997 0 0 0-7.25 4.648 5.221 5.221 0 0 0-4.81.41c-2.203 1.23-3.802 3.58-3.902 5.717l-.013.296c-.04.841-.08 1.688-.08 2.506-.118 4.35-.224 8.078-2.14 12.272-.488 1.058-1.058 2.116-1.613 3.145l-.037.067c-1.48 2.747-3.012 5.586-3.18 8.749-.224 4.095 2.091 8.376 5.825 10.93Zm5.439-43.148a5.333 5.333 0 0 1 2.595-.739l.006.025a3.925 3.925 0 0 1 1.91.478c.08.037.17.037.25 0a.311.311 0 0 0 .18-.161 7.43 7.43 0 0 1 6.845-4.58c6.671-.236 11.313 3.387 13.902 10.769a54.652 54.652 0 0 1 1.867 7.841 59.265 59.265 0 0 0 1.786 7.519c.136.413.28.824.423 1.23.04.112.08.224.118.335a25.97 25.97 0 0 1 1.344 4.716c.735 4.965-3.099 9.464-6.926 12.017a30.865 30.865 0 0 1-5.445 2.747c-3.236 1.33-7.554 2.914-12.072 3.231-4.518.317-8.73-.659-11.88-2.79-3.584-2.436-5.762-6.512-5.557-10.389.168-3.015 1.663-5.794 3.104-8.474l.008-.014c.572-1.056 1.163-2.15 1.667-3.243 1.967-4.287 2.078-8.265 2.196-12.482l.001-.039c.025-.925.05-1.839.094-2.79.087-1.932 1.561-4.076 3.584-5.207Z" fill="#231F20"/><path d="M48.412 86.883a63.758 63.758 0 0 0-.852-3.064c-.822-2.715-1.799-6.654-3.734-8.81-3.155-3.493-10.255-3.604-14.568-3.63-6.677-.037-13.503 1.53-18.96 5.363C1.895 82.645.34 91.214 1.304 100.77c1.108 10.687 2.49 21.35 3.989 31.994.15 1.093 1.948 17.354 2.757 17.361.056 0 55.383.043 53.616 1.348-2.489-8.631-4.356-17.398-6.36-26.097-.423-1.864-1.176-3.554-1.636-5.369-.666-2.622-.361-5.499-.623-8.183-.54-6.214-1.866-12.328-3.16-18.417-.455-2.187-.928-4.368-1.476-6.524Z" fill="#E7816B"/><path d="m64.094 164.167-6.341-27.787-51.215 4.213-.653 23.574h58.21Z" fill="#231F20"/><path fill-rule="evenodd" clip-rule="evenodd" d="M5.885 164.478h58.21a.317.317 0 0 0 .273-.379l-6.341-27.787a.328.328 0 0 0-.33-.242l-51.215 4.212a.318.318 0 0 0-.286.305l-.622 23.574c0 .083.03.163.087.224a.32.32 0 0 0 .224.093Zm57.83-.621H6.22l.604-22.978 50.667-4.163 6.223 27.141Z" fill="#231F20"/><path d="M33.714 94.786c.17.07.351.112.535.125 1.164.087 2.078-.995 2.558-2.057 1.07-2.367 1.07-5.064.883-7.649a11.976 11.976 0 0 0-.964-4.436 10.042 10.042 0 0 0-2.265-2.877c-1.662-1.535-3.678-2.821-5.925-3.107-2.246-.286-5.532.932-6.223 3.392-.721 2.66 2.079 5.338 3.436 7.295a79.075 79.075 0 0 0 6.41 8.078c.416.525.949.948 1.555 1.236Z" fill="#231F20"/><path fill-rule="evenodd" clip-rule="evenodd" d="M34.224 95.221h.162c1.562 0 2.458-1.677 2.7-2.23 1.127-2.48 1.096-5.307.915-7.792a12.375 12.375 0 0 0-.995-4.555 10.172 10.172 0 0 0-2.334-2.964c-2.01-1.864-4.063-2.932-6.098-3.169-2.602-.31-5.85 1.075-6.54 3.623-.623 2.274 1.132 4.517 2.538 6.313.349.447.672.864.934 1.243a80.944 80.944 0 0 0 6.434 8.077 4.722 4.722 0 0 0 1.662 1.311c.2.075.41.123.622.143Zm.05-.627a1.47 1.47 0 0 1-.448-.106 4.024 4.024 0 0 1-1.419-1.18 78.836 78.836 0 0 1-6.385-8.035c-.263-.35-.57-.745-.897-1.163l-.061-.08c-1.326-1.683-2.968-3.79-2.433-5.766.597-2.205 3.572-3.436 5.868-3.168 1.904.223 3.84 1.236 5.75 3.007a9.554 9.554 0 0 1 2.197 2.784c.58 1.378.897 2.854.933 4.35.174 2.385.206 5.138-.859 7.493-.429.944-1.27 1.95-2.246 1.864Z" fill="#231F20"/><path fill="#fff" d="M60.584 45.27h87.482v93.254H60.584z"/><path fill-rule="evenodd" clip-rule="evenodd" d="M60.584 138.828h87.476a.31.31 0 0 0 .311-.31V45.27a.31.31 0 0 0-.311-.31H60.584a.31.31 0 0 0-.31.31v93.248c0 .171.139.31.31.31Zm87.165-.621H60.896V45.581h86.853v92.626Z" fill="#231F20"/><path fill="#fff" d="M66.228 52.441h76.181v68.455H66.228z"/><path fill-rule="evenodd" clip-rule="evenodd" d="M66.228 121.207h76.188a.313.313 0 0 0 .311-.324V52.441a.31.31 0 0 0-.311-.31H66.228a.31.31 0 0 0-.31.31v68.455a.31.31 0 0 0 .31.311Zm75.876-.622H66.54V52.752h75.564v67.833Z" fill="#D1D3D4"/><path d="M133.89 76.35c-1.095 1.206-2.14 2.486-3.285 3.61-2.994 3.045-6.03 6.047-9.049 9.066-.105.106-.186.249-.311.305-.541.236-1.244.758-1.605.578a2.119 2.119 0 0 1-.822-1.585c-.087-2.33-.031-4.66-.031-7.152-.983 0-1.91-.037-2.837 0-3.504.168-6.877.864-9.926 2.685a12.158 12.158 0 0 0-6.266 10.308c.032 1.159.218 2.308.553 3.417.131.585.461 1.243-.273 1.473a1.606 1.606 0 0 1-1.363-.746 31.863 31.863 0 0 1-2.265-5.871c-2.097-9.47 3.111-18.15 12.526-21.127a27.683 27.683 0 0 1 8.395-1.31h1.45v-5.288c-.018-.832.038-1.664.168-2.486.187-.944.784-1.168 1.624-.702.34.213.65.47.921.764a5818.11 5818.11 0 0 1 11.376 11.39c.372.435.712.899 1.014 1.385l.006 1.287Z" fill="#E7816B"/><path d="M86.515 110.507a9.924 9.924 0 0 1-5.52-3.107 8.779 8.779 0 0 1-2.146-5.779c0-8.245-.05-16.484 0-24.73a8.773 8.773 0 0 1 2.577-6.254 8.8 8.8 0 0 1 6.265-2.569 94.768 94.768 0 0 1 4.605 0c1.245 0 2.029.74 2.017 1.82-.013 1.082-.778 1.697-1.992 1.71h-4.493a5.293 5.293 0 0 0-3.874 1.51 5.278 5.278 0 0 0-1.583 3.84c-.025 8.284-.025 16.569 0 24.854 0 1.405.563 2.751 1.564 3.739a5.27 5.27 0 0 0 3.763 1.517h30.492a5.258 5.258 0 0 0 5.495-5.412c.043-2.59 0-5.182 0-7.773 0-1.243.535-1.901 1.549-2.038.847-.118 1.867.466 1.867 1.311 0 3.461.255 6.959-.162 10.371-.46 3.728-3.36 6.213-7.1 6.915a2.49 2.49 0 0 0-.405.156l-32.919-.081Z" fill="#E7816B"/><path d="M141.849 127.799H77.336a.31.31 0 1 1 0-.621h64.513a.31.31 0 1 1 0 .621Zm-16.036 4.841H77.336a.31.31 0 1 1 0-.622h48.477a.31.31 0 0 1 .311.311.318.318 0 0 1-.311.311Z" fill="#D1D3D4"/><ellipse cx="69.819" cy="128.744" rx="3.584" ry="3.579" fill="#fff"/><path fill-rule="evenodd" clip-rule="evenodd" d="M66.21 130.239a3.902 3.902 0 0 0 3.61 2.401 3.895 3.895 0 0 0 1.485-7.496 3.906 3.906 0 0 0-4.253.847 3.892 3.892 0 0 0-.842 4.248Zm.574-2.745a3.281 3.281 0 0 1 6.308 1.25 3.274 3.274 0 0 1-2.021 3.03 3.283 3.283 0 0 1-3.577-.709 3.27 3.27 0 0 1-.71-3.571Z" fill="#D1D3D4"/><path d="M40.204 51.217s3.112 7.239 2.21 12.949A8.274 8.274 0 0 1 36.476 71l.622 9.973s.38 5.095-5.93 4.716a10.78 10.78 0 0 1-8.812-5.636L20.484 61.78s6.845-4.536 5.781-11.079c0 0 8.693 3.523 13.94.516Z" fill="#fff"/><path fill-rule="evenodd" clip-rule="evenodd" d="M31.181 86.031h.672c1.855 0 3.286-.497 4.257-1.46a4.967 4.967 0 0 0 1.319-3.579l-.622-9.724a8.66 8.66 0 0 0 5.911-7.028c.934-5.735-2.11-12.824-2.24-13.123a.305.305 0 0 0-.187-.174.33.33 0 0 0-.255 0c-4.673 2.69-12.349-.062-13.506-.477a1.45 1.45 0 0 0-.147-.05.312.312 0 0 0-.311.043.305.305 0 0 0-.112.292c.996 6.263-5.582 10.724-5.65 10.768a.317.317 0 0 0-.137.292l1.904 18.305a.299.299 0 0 0 .031.106 11.202 11.202 0 0 0 9.073 5.81Zm.037-.64a10.543 10.543 0 0 1-8.525-5.412l-1.848-18.025c.995-.721 6.403-4.928 5.824-10.756 1.898.696 8.756 2.883 13.398.478.58 1.448 2.863 7.575 2.073 12.465a7.926 7.926 0 0 1-5.7 6.599.31.31 0 0 0-.243.323l.622 9.942a4.39 4.39 0 0 1-1.151 3.107c-.952.969-2.452 1.398-4.45 1.28Z" fill="#231F20"/><path d="M23.857 60.264s-3.566-6.723-6.727-2.138c-3.161 4.586 2.19 9.047 5.246 8.432" fill="#fff"/><path d="M21.766 66.937c-1.749 0-3.84-1.243-4.978-3.001a5.064 5.064 0 0 1 .118-5.977c.84-1.243 1.798-1.803 2.85-1.734 2.408.143 4.356 3.728 4.406 3.896a.31.31 0 0 1-.548.286s-1.867-3.436-3.945-3.56c-.83-.05-1.595.438-2.297 1.466a4.48 4.48 0 0 0-.112 5.281c1.177 1.79 3.442 2.989 5.041 2.666.17-.03.333.08.367.248a.304.304 0 0 1-.243.36 3.422 3.422 0 0 1-.66.07Zm15.824-2.815a8.153 8.153 0 0 1-1.512-.143.299.299 0 0 1-.242-.36.31.31 0 0 1 .367-.248s2.016.39 2.968-.187c.137-.777-1.78-3.38-3.173-4.97a.304.304 0 0 1 .03-.436.318.318 0 0 1 .443 0c.622.684 3.54 4.176 3.335 5.456a.683.683 0 0 1-.317.484 3.8 3.8 0 0 1-1.898.404Zm-1.12 6.891s-5.289 1.02-8.4.441c0 0 3.852 7.63 8.923 7.258l-.522-7.699Z" fill="#231F20"/><path fill-rule="evenodd" clip-rule="evenodd" d="M27.796 71.585c.124.317 3.82 7.456 8.836 7.456.133 0 .264.004.393.013a.31.31 0 0 0 .286-.33l-.523-7.698a.323.323 0 0 0-.118-.224.33.33 0 0 0-.25-.062c-.055.012-5.27 1-8.288.435a.312.312 0 0 0-.336.08.304.304 0 0 0 0 .33Zm8.843 6.835c-3.902 0-7.014-4.909-7.99-6.568 2.694.317 6.397-.267 7.51-.466l.48 7.034Z" fill="#231F20"/><ellipse cx="32.984" cy="57.029" rx=".784" ry="1.373" transform="rotate(-6.85 32.984 57.03)" fill="#231F20"/><ellipse cx="39.807" cy="56.784" rx=".784" ry="1.373" transform="rotate(-6.85 39.807 56.784)" fill="#231F20"/><path d="M34.442 67.111c-.453-.003-.9-.1-1.313-.286-1.518-.658-2.49-2.485-2.894-5.474a.314.314 0 1 1 .623-.087c.373 2.74 1.244 4.418 2.526 4.97 1.574.697 3.348-.515 3.367-.527a.311.311 0 1 1 .354.51 5.17 5.17 0 0 1-2.663.894Z" fill="#231F20"/><path d="M118.047 138.841a19.519 19.519 0 0 1-.199-2.076 11.5 11.5 0 0 1 .665-4.243 3.022 3.022 0 0 1 .953-1.56 1.245 1.245 0 0 1 1.667.118c.243.498.265 1.075.063 1.591a12.884 12.884 0 0 0-.218 4.399c.236-1.976.498-4.027 1.574-5.692.224-.39.543-.717.927-.95a1.243 1.243 0 0 1 1.276 0c.554.403.51 1.242.442 1.901a22.613 22.613 0 0 0 .081 5.226 14.897 14.897 0 0 1 .33-4.549c.224-.975.665-2.05 1.618-2.361.2-.07.415-.083.622-.037.435.147.753.522.827.975.072.445.072.898 0 1.342a19.82 19.82 0 0 0 .162 5.251 12.583 12.583 0 0 1 .168-4.573c.088-.601.328-1.17.697-1.653a1.466 1.466 0 0 1 1.631-.479c.421.224.713.63.79 1.1a5.9 5.9 0 0 1 .05 1.405 12.704 12.704 0 0 0 .964 5.169c.56 1.361 1.288 2.871 1.158 4.393a4.42 4.42 0 0 1-2.875 3.523 8.384 8.384 0 0 1-4.717.224c-5.147-1.019-9.397-3.467-11.201-8.382" fill="#fff"/><path d="M128.881 147.857a11.438 11.438 0 0 1-2.222-.23c-5.924-1.175-9.776-4.064-11.456-8.587a.33.33 0 1 1 .622-.224c1.593 4.3 5.29 7.052 10.977 8.177a8.022 8.022 0 0 0 4.537-.205 4.106 4.106 0 0 0 2.67-3.25c.112-1.286-.43-2.572-.953-3.809l-.18-.441a13.172 13.172 0 0 1-.99-5.3v-.218c.033-.369.019-.74-.043-1.106a1.245 1.245 0 0 0-.622-.876 1.172 1.172 0 0 0-1.245.392 3.287 3.287 0 0 0-.622 1.516 12.033 12.033 0 0 0-.168 4.455.324.324 0 0 1-.268.367.318.318 0 0 1-.348-.236 19.888 19.888 0 0 1-.162-5.338v-.106c.059-.376.059-.76 0-1.137a.935.935 0 0 0-.622-.733.883.883 0 0 0-.467.031c-.654.211-1.126.932-1.407 2.125a14.468 14.468 0 0 0-.317 4.449.322.322 0 0 1-.285.274.322.322 0 0 1-.337-.205 22.87 22.87 0 0 1-.081-5.301c.062-.621.093-1.305-.311-1.603a.919.919 0 0 0-.934 0 2.323 2.323 0 0 0-.815.833c-1.058 1.64-1.3 3.728-1.518 5.592a.325.325 0 0 1-.318.28.324.324 0 0 1-.317-.28 13.198 13.198 0 0 1 .218-4.505c.18-.425.18-.904 0-1.329a.624.624 0 0 0-.43-.249 1.075 1.075 0 0 0-.784.193 2.73 2.73 0 0 0-.84 1.404 10.927 10.927 0 0 0-.653 4.119c0 .218.031.411.043.591.022.489.074.977.156 1.46a.323.323 0 0 1-.622.106 12.544 12.544 0 0 1-.162-1.523c0-.18 0-.373-.044-.584-.052-1.48.181-2.956.685-4.349a3.34 3.34 0 0 1 1.064-1.721c.36-.258.805-.369 1.245-.311.34.047.646.229.852.503a2.24 2.24 0 0 1 .118 1.864.834.834 0 0 0 0 .1 8.058 8.058 0 0 1 .791-1.628 2.981 2.981 0 0 1 1.051-1.057 1.529 1.529 0 0 1 1.612.044c.622.472.622 1.342.622 1.945a2.684 2.684 0 0 1 1.587-1.771c.264-.094.549-.109.822-.044.563.179.978.66 1.07 1.243.057.284.074.575.05.864.108-.225.246-.434.41-.622a1.765 1.765 0 0 1 2.004-.559c.511.268.87.756.971 1.324.073.41.096.827.068 1.242v.218a12.664 12.664 0 0 0 .94 5.039l.181.435c.529 1.243 1.126 2.666 1.001 4.113a4.692 4.692 0 0 1-3.074 3.791 7.164 7.164 0 0 1-2.75.348Z" fill="#231F20"/><path d="m183.151 104.144-.946 14.254s-29.248-22.99-34.145-23.978v4.02s-8.133-.994-8.781.621c-.647 1.616.455 7.755 2.57 8.998 1.245.751 11.755.814 11.755.814s1.488 3.641 15.987 16.981c14.499 13.341 28.14 20.474 28.993 7.979.852-12.496 1.935-33.554 1.935-33.554" fill="#fff"/><path d="M193.219 140.612c-5.146 0-13.621-5.133-23.846-14.54-12.75-11.738-15.47-15.982-15.968-16.895-1.736 0-10.473-.124-11.717-.857-2.328-1.374-3.404-7.662-2.707-9.395.697-1.734 6.795-1.094 8.761-.876v-3.66a.332.332 0 0 1 .119-.249.34.34 0 0 1 .267-.068c4.624.932 29.87 20.579 33.797 23.667l.902-13.632a.324.324 0 1 1 .622.043l-.921 14.248a.302.302 0 0 1-.192.267.318.318 0 0 1-.33-.037c-.28-.224-27.866-21.878-33.604-23.81v3.597a.32.32 0 0 1-.361.323c-3.273-.404-8.09-.534-8.444.429-.592 1.473.485 7.456 2.433 8.606.877.516 7.411.739 11.593.77a.32.32 0 0 1 .299.199c0 .031 1.724 3.809 15.906 16.864 11.636 10.693 20.846 15.782 25.327 14.036 1.867-.739 2.906-2.709 3.111-5.847.84-12.346 1.923-33.348 1.936-33.553a.316.316 0 0 1 .336-.305.32.32 0 0 1 .305.335c0 .212-1.096 21.22-1.936 33.554-.236 3.405-1.419 5.593-3.528 6.394a5.756 5.756 0 0 1-2.16.392Z" fill="#231F20"/><path d="m182.205 118.367 7.013 5.219-7.013-5.219Z" fill="#fff"/><path d="M189.218 123.91a.394.394 0 0 1-.193-.063l-7.013-5.219a.33.33 0 0 1-.062-.454.325.325 0 0 1 .448-.062l7.013 5.22a.323.323 0 0 1-.193.578Z" fill="#231F20"/><path d="M20.005 92.636s11.997 22.245 12.321 23.115c.112.292 24.724-12.868 25.626-14.664a12.577 12.577 0 0 1 .579-5.996c.398-1.05 1.132-1.18 2.004-1.92a29.776 29.776 0 0 0-.075 3.945 46.204 46.204 0 0 1 5.34-4.821 1.726 1.726 0 0 1 1.567-.51c.258.13.474.33.623.578 2.551 3.585.423 7.891-1.407 11.247-3.447 6.313-8.612 10.233-14.1 14.645a136.186 136.186 0 0 1-11.395 8.171 56.91 56.91 0 0 1-9.677 5.251c-2.028.807-4.829 1.864-6.982.857-7.81-3.616-16.764-22.096-19.21-30.229" fill="#fff"/><path d="M26.464 133.255a5.057 5.057 0 0 1-2.14-.441c-4.425-2.045-8.837-8.494-11.756-13.546a89.116 89.116 0 0 1-7.617-16.87.31.31 0 0 1 .592-.18c2.489 8.363 11.512 26.551 19.042 30.036 1.954.901 4.505 0 6.74-.863a56.85 56.85 0 0 0 9.614-5.226 136.32 136.32 0 0 0 11.375-8.152l.946-.764c5.072-4.058 9.857-7.892 13.068-13.788 1.935-3.542 3.796-7.593 1.425-10.918-.12-.2-.294-.362-.504-.466-.392-.155-.884.168-1.245.46a47.264 47.264 0 0 0-5.302 4.79.311.311 0 0 1-.535-.186c-.05-.571-.043-2.237 0-3.305l-.217.149a2.362 2.362 0 0 0-1.12 1.243 12.41 12.41 0 0 0-.567 5.828.3.3 0 0 1 0 .193c-.523 1.043-7.386 5.008-13.068 8.146-3.236 1.795-12.265 6.698-12.856 6.698a.336.336 0 0 1-.287-.205c-.249-.671-8.158-15.391-12.302-23.078a.311.311 0 1 1 .547-.298c.467.87 10.934 20.288 12.216 22.891 2.713-1.081 23.784-12.651 25.115-14.403a12.758 12.758 0 0 1 .623-6.033c.259-.65.74-1.187 1.356-1.516a7.74 7.74 0 0 0 .74-.535c.1-.085.241-.1.355-.037.112.064.173.19.156.317a28.448 28.448 0 0 0-.106 3.156 47.248 47.248 0 0 1 4.867-4.35c.51-.39 1.188-.813 1.867-.552.324.15.598.389.79.69 2.788 3.914.174 8.698-1.388 11.575-3.273 6.003-8.09 9.874-13.23 13.975l-.952.764a134.956 134.956 0 0 1-11.419 8.19 57.497 57.497 0 0 1-9.726 5.281 14.576 14.576 0 0 1-5.097 1.33Z" fill="#231F20"/><path d="M20.005 92.922a.31.31 0 0 1-.268-.155l-6.024-10.259a.313.313 0 1 1 .542-.316l6.036 10.29a.304.304 0 0 1-.112.422.28.28 0 0 1-.174.018Zm163.146 11.545a.319.319 0 0 1-.287-.348l1.326-14.421c.02-.174.174-.3.348-.286a.31.31 0 0 1 .293.348l-1.332 14.415a.316.316 0 0 1-.348.292Z" fill="#231F20"/><defs><linearGradient id="a" x1="0" y1="202" x2="202" y2="202" gradientUnits="userSpaceOnUse"><stop stop-color="#5D0202" stop-opacity=".01"/><stop offset="1" stop-color="#5D0202" stop-opacity=".498"/></linearGradient></defs></svg>