<svg width="202" height="202" fill="none" xmlns="http://www.w3.org/2000/svg"><circle opacity=".203" cx="101" cy="101" r="101" transform="matrix(-1 0 0 1 202 0)" fill="url(#a)"/><path d="M163.347 100.866h14.536s9.538 19.67 11.416 28.098h-25.952v-28.098Z" fill="#E7816B"/><path fill-rule="evenodd" clip-rule="evenodd" d="M163.346 129.231h25.953a.267.267 0 0 0 .21-.098.284.284 0 0 0 .052-.227c-1.866-8.393-11.34-27.958-11.439-28.156a.257.257 0 0 0-.239-.151h-14.537a.268.268 0 0 0-.268.267v28.098c0 .148.12.267.268.267Zm25.62-.529h-25.334l-.017-27.574h14.099c.875 1.819 9.327 19.495 11.252 27.574Z" fill="#231F20"/><path d="m164.321 122.477 11.345 5.017s-9.975-43.013-29.458-62.427c0 0-6.807 5.232-11.719 18.804-1.248 3.447-.187 1.278-.268 1.86l-1.325 9.375 31.425 27.371Z" fill="#E7816B"/><path fill-rule="evenodd" clip-rule="evenodd" d="M175.562 127.761a.37.37 0 0 0 .105 0 .281.281 0 0 0 .175-.064.263.263 0 0 0 .087-.262c-.099-.43-10.22-43.285-29.534-62.554a.263.263 0 0 0-.35 0c-.07.053-6.924 5.435-11.807 18.92-.775 2.15-.705 2.191-.484 2.325a.337.337 0 0 0 .14.046l-1.283 8.888c-.013.09.023.18.093.238l31.424 27.4c.018.019.04.033.065.041l11.369 5.022Zm-.263-.727-10.832-4.783-31.29-27.308 1.324-9.2a.33.33 0 0 0-.158-.384h-.07c.031-.087.07-.202.118-.345.087-.261.205-.616.367-1.062 4.38-12.136 10.342-17.589 11.45-18.53 17.944 18.088 27.878 56.672 29.091 61.612Z" fill="#231F20"/><path d="M134.775 91.566s3.109-14.659 11.568-22.82c0 0 13.031 11.044 25.631 55.266l-40.961-2.273s.805-22.477 3.762-30.173Z" fill="#231F20"/><path fill-rule="evenodd" clip-rule="evenodd" d="m131.013 122.03 40.962 2.272c.095.026.197 0 .268-.069a.282.282 0 0 0 .052-.262c-12.483-43.826-25.59-55.3-25.725-55.41a.286.286 0 0 0-.39 0c-8.295 7.98-11.521 22.279-11.667 22.941-2.915 7.6-3.728 29.021-3.773 30.205l-.001.021a.29.29 0 0 0 .274.302Zm40.571 1.674-40.25-2.238c.087-2.633.991-22.698 3.727-29.795v-.046c.029-.146 3.121-14.433 11.288-22.477.77.732 3.78 3.801 7.863 10.84 4.369 7.498 10.914 21.157 17.372 43.716Z" fill="#231F20"/><path d="M120.991 104.214s6.86-14.27 15.377-22.552c0 0 10.751 8.405 17.751 17.403 7 8.997 13.416 24.947 13.416 24.947h-45.92l-.624-19.798Z" fill="#fff"/><path fill-rule="evenodd" clip-rule="evenodd" d="M121.615 124.302h45.926l-.03-.023a.292.292 0 0 0 .275-.395c-.047-.14-6.522-16.089-13.464-24.994-6.72-8.62-17.017-16.812-17.761-17.404a1.236 1.236 0 0 1-.042-.033.292.292 0 0 0-.385 0c-8.284 8.077-15.116 21.984-15.425 22.613l-.01.021a.33.33 0 0 0 0 .133l.624 19.803a.29.29 0 0 0 .292.279Zm45.494-.581h-45.214l-.607-19.443.037-.072c.735-1.47 7.21-14.413 15.066-22.16 1.505 1.203 11.124 9.003 17.5 17.199 6.218 8.027 12.162 21.948 13.218 24.476Z" fill="#231F20"/><path d="M136.251 84.504s-9.275 8.719-12.676 20.646c0 0 39.789 14.003 39.434 13.654-.356-.349-5.91-12.91-12.25-20.263-8.966-10.41-14.508-14.037-14.508-14.037Z" fill="#231F20"/><path fill-rule="evenodd" clip-rule="evenodd" d="M143.152 112.323c16.508 5.76 19.343 6.731 19.927 6.731.122 0 .151-.041.175-.093a.273.273 0 0 0-.03-.349c-.075-.099-.408-.767-.793-1.546l-.018-.036c-1.923-3.862-6.385-12.822-11.421-18.68-8.902-10.347-14.525-14.05-14.583-14.084a.293.293 0 0 0-.362.029c-.093.087-9.368 8.905-12.752 20.774a.284.284 0 0 0 .181.354s9.829 3.459 19.676 6.9Zm19.279 6.033c-4.042-1.273-26.25-9.05-38.5-13.368 3.144-10.725 11.095-18.868 12.361-20.088 1.05.732 6.347 4.632 14.274 13.845 4.992 5.797 9.432 14.728 11.342 18.569l.016.031.507 1.011Z" fill="#231F20"/><path d="M126.742 92.002s18.749 2.854 29.925 15.619c5.705 6.521 10.874 16.391 10.874 16.391H144.68l-17.938-32.01Z" fill="#E7816B"/><path fill-rule="evenodd" clip-rule="evenodd" d="M144.68 124.279h22.861a.255.255 0 0 0 .227-.139.261.261 0 0 0 0-.262l-.003-.006c-.159-.301-5.307-10.037-10.911-16.437-11.107-12.678-29.896-15.694-30.082-15.694a.28.28 0 0 0-.263.11.29.29 0 0 0 0 .285l17.938 32.01a.266.266 0 0 0 .233.133Zm22.417-.529h-22.26L127.25 92.363c3.162.593 19.297 4.103 29.213 15.432 4.988 5.696 9.614 14.066 10.634 15.955Z" fill="#231F20"/><path d="M116.593 105.168c4.083-6.01 6.416-9.818 10.15-13.166a95.803 95.803 0 0 1 19.098 14.846 73.493 73.493 0 0 1 12.571 17.164h-51.036s5.437-13.299 9.217-18.844Z" fill="#fff"/><path fill-rule="evenodd" clip-rule="evenodd" d="M107.376 124.302h51.035c.098 0 .189-.05.24-.133a.312.312 0 0 0 0-.285 74.647 74.647 0 0 0-12.63-17.246 96.657 96.657 0 0 0-19.162-14.886.282.282 0 0 0-.333.035c-3.214 2.854-5.401 6.103-8.423 10.596-.537.826-1.12 1.698-1.75 2.622-3.757 5.504-9.193 18.768-9.246 18.902a.274.274 0 0 0 .029.268c.053.08.143.128.24.127Zm50.557-.581h-50.12c.939-2.255 5.664-13.473 9.024-18.391l1.779-2.621c2.946-4.388 5.093-7.574 8.167-10.346a97.044 97.044 0 0 1 18.853 14.688 74.76 74.76 0 0 1 12.297 16.67Z" fill="#231F20"/><path d="M109.236 124.012s3.961-9.742 8.884-17.496c5.011-7.887 8.885-11.66 8.885-11.66s5.874 2.779 15.58 12.282c6.633 6.493 12.793 16.856 12.793 16.856l-46.142.018Z" fill="#231F20"/><path fill-rule="evenodd" clip-rule="evenodd" d="M109.237 124.302h46.142a.28.28 0 0 0 .268-.145.289.289 0 0 0 0-.29 8.912 8.912 0 0 0-.063-.103c-.668-1.097-6.542-10.739-12.77-16.835-9.625-9.428-15.599-12.334-15.657-12.334a.303.303 0 0 0-.332.052l-.025.025c-.338.343-4.137 4.189-8.9 11.687-4.883 7.667-8.873 17.449-8.908 17.548a.272.272 0 0 0 0 .268c.056.08.147.128.245.127Zm45.623-.581h-45.185c.799-1.877 4.398-10.288 8.691-17.048 4.393-6.917 7.945-10.695 8.698-11.462 1.067.558 6.708 3.702 15.318 12.136 5.758 5.633 11.229 14.334 12.478 16.374Z" fill="#231F20"/><path d="M127.833 127.493h-59.61s-2.842-25.574-1.436-42.43c1.406-16.857 10.15-29.4 10.15-29.4s22.108 5.417 35.403 26.69c13.294 21.274 15.493 45.14 15.493 45.14Z" fill="#fff"/><path fill-rule="evenodd" clip-rule="evenodd" d="M68.222 127.784h59.611a.272.272 0 0 0 .233-.093.275.275 0 0 0 .076-.221v-.001c-.031-.316-2.366-24.202-15.551-45.296-13.207-21.128-35.362-26.766-35.584-26.818a.274.274 0 0 0-.309.116c-.087.11-8.814 12.84-10.202 29.539-1.272 15.301.996 38.043 1.385 41.942.036.356.055.555.055.576a.285.285 0 0 0 .286.256Zm59.308-.581H68.485c-.292-2.732-2.719-26.4-1.394-42.17 1.306-15.513 8.966-27.516 9.992-29.062 2.2.604 22.599 6.643 35.012 26.51 12.291 19.664 15.108 41.816 15.435 44.722Z" fill="#231F20"/><path d="M127.833 127.493H109.75s-2.205-23.081-11.083-43.558c-8.879-20.478-21.712-28.301-21.712-28.301s22.108 5.417 35.403 26.69c13.294 21.274 15.475 45.169 15.475 45.169Z" fill="#E7816B"/><path fill-rule="evenodd" clip-rule="evenodd" d="M109.75 127.761h18.171a.268.268 0 0 0 .268-.291v-.002c-.034-.349-2.364-24.21-15.551-45.283C99.419 61.062 77.276 55.43 77.054 55.378a.263.263 0 0 0-.309.157.267.267 0 0 0 .105.325l.026.017c.645.418 13.003 8.42 21.557 28.168 8.75 20.198 11.055 43.245 11.055 43.478a.267.267 0 0 0 .262.238Zm17.792-.529H109.96c-.262-2.517-2.765-24.232-11.083-43.39-7.111-16.432-16.911-24.826-20.464-27.476 5.262 1.697 22.634 8.428 33.682 26.11 12.338 19.721 15.138 41.966 15.447 44.756Z" fill="#231F20"/><path d="M107.375 127.493s-3.768-24.482-8.709-37.618c-7.256-19.181-21-30.19-21-30.19s-5.833 11.009-7.146 20.088c-.851 5.998-1.551 35.811.059 47.453l36.796.267Z" fill="#231F20"/><path fill-rule="evenodd" clip-rule="evenodd" d="m70.579 127.517 36.796.267a.288.288 0 0 0 .228-.099.291.291 0 0 0 .07-.238l-.033-.202c-.384-2.384-4.044-25.091-8.717-37.457-7.204-19.048-20.948-30.202-21.088-30.312a.269.269 0 0 0-.239-.059.286.286 0 0 0-.198.146c-.058.087-5.88 11.13-7.17 20.17-.822 5.817-1.55 35.874.065 47.534.02.142.141.248.286.25Zm36.458-.314-36.202-.267c-1.563-11.788-.845-41.362-.023-47.11 1.143-8.086 5.973-17.793 6.936-19.659a77.452 77.452 0 0 1 20.627 29.836c4.579 12.096 8.184 34.201 8.662 37.2Z" fill="#231F20"/><path d="M62.5 75.704s12.21 2.11 26.128 11.788c23.654 16.449 31.873 40.001 31.873 40.001H58.627S60.75 82.528 62.5 75.704Z" fill="#E7816B"/><path fill-rule="evenodd" clip-rule="evenodd" d="M58.627 127.761h61.891v-.047a.273.273 0 0 0 .257-.354l-.016-.041c-.418-1.123-8.974-24.085-31.957-40.065-13.825-9.609-26.127-11.835-26.25-11.835a.274.274 0 0 0-.309.198c-1.732 6.771-3.815 50.005-3.902 51.842 0 .073.026.143.076.197.05.065.127.103.21.105Zm61.53-.535h-61.25c.18-3.761 2.176-44.041 3.832-51.22 1.791.36 13.137 2.907 25.778 11.695 21.723 15.113 30.473 36.526 31.64 39.525Z" fill="#231F20"/><path d="M101.065 127.493s-1.61-12.845-12.49-27.167C77.696 86.004 62.5 75.704 62.5 75.704s-6.516 9.103-8.936 19.943c-2.421 10.84-.584 31.846-.584 31.846h48.085Z" fill="#fff"/><path fill-rule="evenodd" clip-rule="evenodd" d="M52.986 127.784h48.079a.293.293 0 0 0 .192-.087.298.298 0 0 0 .07-.227c-.017-.139-1.767-13.13-12.547-27.319-10.702-14.085-25.75-24.43-26.117-24.681l-.005-.004a.292.292 0 0 0-.41.08c-.25.356-6.631 9.438-8.97 20.037-2.219 10.053-.8 29.019-.605 31.634.014.183.021.286.021.3.015.15.14.265.292.267Zm47.717-.581H53.254c-.198-2.453-1.615-21.477.566-31.51 2.194-9.718 7.73-18.1 8.75-19.6 1.978 1.396 15.768 11.265 25.749 24.413 9.753 12.828 12.04 24.61 12.384 26.697Z" fill="#231F20"/><path d="M98.264 125.756S95.05 112.596 82.059 97.1a101.138 101.138 0 0 0-18.818-17.327s-6.026 7.91-7.537 17.949c-1.237 8.236-1.505 23-1.563 28.034h44.123Z" fill="#231F20"/><path fill-rule="evenodd" clip-rule="evenodd" d="M54.14 126.046h44.124a.285.285 0 0 0 .216-.11.278.278 0 0 0 .052-.25c-.03-.134-3.377-13.404-16.263-28.772a102.525 102.525 0 0 0-18.877-17.385.286.286 0 0 0-.39.064c-.053.064-6.08 8.09-7.584 18.082-1.22 8.115-1.505 22.338-1.57 28.075a.3.3 0 0 0 .292.296Zm43.739-.581H54.438c.07-5.906.361-19.763 1.557-27.702 1.342-8.917 6.341-16.235 7.315-17.595a103.035 103.035 0 0 1 18.527 17.118c11.608 13.851 15.417 25.964 16.042 28.179Z" fill="#231F20"/><path d="M94.752 127.494c-.583-2.285-3.016-10.149-10.5-21.478-8.966-13.549-21.256-17.565-21.256-17.565h-24.18v.907l16.52 38.136h39.416Z" fill="#E7816B"/><path fill-rule="evenodd" clip-rule="evenodd" d="M55.337 127.761h39.415a.275.275 0 0 0 .24-.122.25.25 0 0 0 .046-.227c-.566-2.18-2.998-10.154-10.54-21.558-8.914-13.474-21.269-17.63-21.391-17.67a.234.234 0 0 0-.088 0H38.846a.268.268 0 0 0-.263.267v.907a.328.328 0 0 0 0 .104l16.509 38.136c.04.099.137.164.245.163Zm39.054-.535H55.5l-16.415-37.92v-.582h23.852c.77.262 12.519 4.505 21.07 17.438 7.158 10.817 9.684 18.512 10.384 21.064Z" fill="#231F20"/><path d="M82.059 127.494c-3.267-5.65-18.393-29.853-43.243-39.043 0 0-7.77 16.571-5.559 39.043H82.06Z" fill="#fff"/><path fill-rule="evenodd" clip-rule="evenodd" d="M33.258 127.784h48.801a.291.291 0 0 0 .251-.436c-2.835-4.876-18.252-29.87-43.388-39.17a.292.292 0 0 0-.368.15l-.003.008c-.195.428-7.76 17.073-5.585 39.187a.297.297 0 0 0 .292.261Zm48.294-.581H33.526c-1.943-20.536 4.515-36.253 5.442-38.363 24.139 9.039 39.2 32.62 42.584 38.363Z" fill="#231F20"/><path d="M79.084 127.493c-1.5-2.801-7-10.712-13.493-17.919-12.197-13.497-25.777-17.92-25.777-17.92-6.306 17.332-4.037 30.527-3.914 35.839h43.184Z" fill="#231F20"/><path fill-rule="evenodd" clip-rule="evenodd" d="M35.918 127.784h43.167v.012a.29.29 0 0 0 .257-.43c-1.377-2.569-6.767-10.486-13.534-17.973-12.11-13.415-25.766-17.972-25.906-18.018a.298.298 0 0 0-.361.18c-5.344 14.729-4.527 26.569-4.084 32.963l.046.64c.066.896.123 1.686.123 2.341a.285.285 0 0 0 .292.285Zm42.67-.581H36.182a72.227 72.227 0 0 0-.143-2.501l-.015-.225c-.438-6.295-1.242-17.967 3.967-32.451 1.96.703 14.303 5.492 25.386 17.739 6.394 7.08 11.539 14.532 13.213 17.438Z" fill="#231F20"/><path d="m181.657 127.494-2.794-5.627H88.377l-2.777 5.627H28.58v19.872h162.597v-19.872h-9.52Z" fill="#fff"/><path fill-rule="evenodd" clip-rule="evenodd" d="M28.579 147.657h162.598a.29.29 0 0 0 .286-.291v-19.872a.291.291 0 0 0-.292-.291h-9.333l-2.713-5.464a.298.298 0 0 0-.262-.163H88.376a.292.292 0 0 0-.262.163l-2.695 5.464h-56.84a.291.291 0 0 0-.292.291v19.872c0 .161.13.291.292.291Zm162.306-.581H28.87v-19.292H85.6a.297.297 0 0 0 .262-.163l2.695-5.463h90.125l2.713 5.463c.05.099.151.162.262.163h9.228v19.292Z" fill="#231F20"/><path fill="#D1D3D4" d="M68.223 127.493h32.842v19.867H68.223z"/><path fill-rule="evenodd" clip-rule="evenodd" d="M68.222 147.657h32.842c.161 0 .292-.13.292-.291v-19.872a.291.291 0 0 0-.292-.291H68.222a.297.297 0 0 0-.291.291v19.872c0 .161.13.291.291.291Zm32.55-.581H68.514v-19.292h32.258v19.292Z" fill="#231F20"/><path d="m152.503 128.964 21.688 18.402h-21.688v-18.402Z" fill="#D1D3D4"/><path fill-rule="evenodd" clip-rule="evenodd" d="M152.503 147.657h21.688a.29.29 0 0 0 .187-.511l-21.689-18.403a.298.298 0 0 0-.309-.04.284.284 0 0 0-.169.261v18.402c0 .161.131.291.292.291Zm20.895-.581h-20.604v-17.478l20.604 17.478Z" fill="#231F20"/><path fill="#fff" d="M23.884 131.103h44.339v2H23.884z"/><path fill-rule="evenodd" clip-rule="evenodd" d="M23.89 133.393h44.333a.29.29 0 0 0 .291-.29v-2c0-.16-.13-.291-.291-.291H23.889a.292.292 0 0 0-.291.291v2a.296.296 0 0 0 .291.29Zm44.035-.581h-43.75v-1.418h43.75v1.418Z" fill="#231F20"/><path fill="#fff" d="M19.602 136.177h48.627v3.522H19.602z"/><path fill-rule="evenodd" clip-rule="evenodd" d="M19.601 139.985h48.621a.292.292 0 0 0 .292-.291v-3.517a.29.29 0 0 0-.292-.29h-48.62a.29.29 0 0 0-.292.29v3.517c0 .16.13.291.291.291Zm48.33-.582H19.892l.023-2.935H67.93v2.935Z" fill="#231F20"/><path fill="#E7816B" d="M19.602 138.276h48.627v4.388H19.602z"/><path fill-rule="evenodd" clip-rule="evenodd" d="M19.601 142.926h48.621a.267.267 0 0 0 .19-.075.26.26 0 0 0 .078-.187v-4.388a.268.268 0 0 0-.268-.268h-48.62a.268.268 0 0 0-.269.268v4.388a.26.26 0 0 0 .079.187c.05.049.119.076.19.075Zm48.359-.529H19.864v-3.854H67.96v3.854Z" fill="#231F20"/><path fill="#E7816B" d="M23.884 133.103h44.339v3.075H23.884z"/><path fill-rule="evenodd" clip-rule="evenodd" d="M23.89 136.439h44.333a.263.263 0 0 0 .268-.262v-3.074a.264.264 0 0 0-.268-.268H23.89a.265.265 0 0 0-.263.268v3.074c0 .145.118.262.263.262Zm44.07-.529H24.152v-2.546H67.96v2.546Z" fill="#231F20"/><path fill="#E7816B" d="M28.579 129.307h39.649v1.796H28.579z"/><path fill-rule="evenodd" clip-rule="evenodd" d="M28.555 131.37h39.667a.267.267 0 0 0 .268-.267v-1.796a.266.266 0 0 0-.268-.267H28.555a.27.27 0 0 0-.268.267v1.796c0 .148.12.267.268.267Zm39.405-.534H28.84v-1.262h39.12v1.262Z" fill="#231F20"/><path d="M85.6 127.494h25.76l2.38-5.627H88.376l-2.776 5.627Z" fill="#D1D3D4"/><path fill-rule="evenodd" clip-rule="evenodd" d="M85.6 127.784h25.76a.293.293 0 0 0 .257-.18l2.38-5.621a.287.287 0 0 0 0-.273.295.295 0 0 0-.245-.134H88.388a.292.292 0 0 0-.262.163l-2.777 5.627a.278.278 0 0 0 0 .279c.055.085.15.138.25.139Zm25.55-.581H86.066l2.491-5.045h24.728l-2.135 5.045Z" fill="#231F20"/><path fill="#E7816B" d="M119.305 124.884h38.483v1.738h-38.483zm50.692 8.701h16.188v1.273h-16.188z"/><path fill="#fff" d="M10.822 141.06h57.406v6.307H10.822z"/><path fill-rule="evenodd" clip-rule="evenodd" d="M10.823 147.657h57.4c.161 0 .292-.13.292-.291v-6.306a.291.291 0 0 0-.292-.291h-57.4a.291.291 0 0 0-.292.291v6.306c0 .161.13.291.292.291Zm57.108-.581H11.115v-5.725H67.93v5.725Z" fill="#231F20"/><path d="M181.657 129.231H152.49a.267.267 0 1 1 0-.528h29.167a.268.268 0 0 1 .265.409.268.268 0 0 1-.265.119Z" fill="#231F20"/><defs><linearGradient id="a" x1="0" y1="202" x2="202" y2="202" gradientUnits="userSpaceOnUse"><stop stop-color="#5D0202" stop-opacity=".01"/><stop offset="1" stop-color="#5D0202" stop-opacity=".498"/></linearGradient></defs></svg>