<svg width="202" height="202" fill="none" xmlns="http://www.w3.org/2000/svg"><circle opacity=".203" cx="101" cy="101" r="101" transform="matrix(0 -1 -1 0 202 202)" fill="url(#a)"/><path fill="#fff" d="M126.429 172.025h-47.23V106.97h47.23z"/><path fill-rule="evenodd" clip-rule="evenodd" d="M79.211 172.359h47.224a.32.32 0 0 0 .327-.334v-65.074a.321.321 0 0 0-.321-.321h-47.23a.32.32 0 0 0-.32.321v65.087a.32.32 0 0 0 .32.321Zm46.903-.642H79.525v-64.426h46.589v64.426Z" fill="#231F20"/><path d="M124.34 114.594H81.294a.32.32 0 0 1-.32-.32.327.327 0 0 1 .32-.321h43.046a.32.32 0 0 1 0 .641Zm0 7.106H81.294a.327.327 0 0 1-.32-.321.32.32 0 0 1 .32-.321h43.046a.32.32 0 0 1 0 .642Zm0 7.098H81.294a.327.327 0 0 1-.32-.32.32.32 0 0 1 .32-.321h43.046a.32.32 0 0 1 0 .641Zm0 7.099H81.294a.32.32 0 0 1 0-.641h43.046a.32.32 0 0 1 0 .641Zm0 7.099H81.294a.32.32 0 0 1-.32-.321.327.327 0 0 1 .32-.321h43.046a.32.32 0 0 1 0 .642Zm0 7.105H81.294a.327.327 0 0 1-.32-.321.32.32 0 0 1 .32-.32h43.046a.32.32 0 0 1 .226.547.32.32 0 0 1-.226.094Zm0 7.098H81.294a.327.327 0 0 1-.32-.32.32.32 0 0 1 .32-.321h43.046a.32.32 0 0 1 0 .641Zm0 7.099H81.294a.32.32 0 1 1 0-.641h43.046a.32.32 0 1 1 0 .641Z" fill="#D1D3D4"/><path fill="#231F20" d="M126.436 106.964H86.229v-3.758h40.207z"/><path fill-rule="evenodd" clip-rule="evenodd" d="M86.222 107.291h40.213a.326.326 0 0 0 .32-.34v-3.739a.32.32 0 0 0-.32-.32H86.222a.32.32 0 0 0-.32.32v3.758a.327.327 0 0 0 .32.321Zm39.892-.642H86.542v-3.116h39.572v3.116Z" fill="#231F20"/><path fill="#fff" d="M56.968 123.752h13.156v48.267H56.968z"/><path fill-rule="evenodd" clip-rule="evenodd" d="M56.968 172.359h13.156a.323.323 0 0 0 .32-.34v-48.267a.32.32 0 0 0-.32-.321H56.968a.327.327 0 0 0-.32.321v48.286a.32.32 0 0 0 .32.321Zm12.855-.642H57.308l-.02-47.645h12.535v47.645Z" fill="#231F20"/><path fill="#fff" d="M31.674 117.608h25.73v54.417h-25.73z"/><path fill-rule="evenodd" clip-rule="evenodd" d="M31.673 172.359h25.75a.32.32 0 0 0 .32-.334v-54.417a.32.32 0 0 0-.32-.32h-25.75a.32.32 0 0 0-.32.32v54.43a.32.32 0 0 0 .32.321Zm25.429-.642h-25.09l-.019-53.788h25.109v53.788Z" fill="#231F20"/><path d="M56.263 124.04H32.815a.32.32 0 1 1 0-.641h23.448a.32.32 0 1 1 0 .641Zm0 5.945H32.815a.32.32 0 0 1 0-.642h23.448a.32.32 0 0 1 0 .642Zm0 5.938H32.815a.32.32 0 0 1 0-.642h23.448a.32.32 0 0 1 0 .642Zm0 5.938H32.815a.32.32 0 0 1 0-.642h23.448a.32.32 0 0 1 0 .642Zm0 5.938H32.815a.32.32 0 0 1 0-.642h23.448a.32.32 0 0 1 0 .642Zm0 5.963H32.815a.32.32 0 1 1 0-.641h23.448a.32.32 0 0 1 0 .641Zm0 5.913H32.815a.32.32 0 0 1 0-.642h23.448a.32.32 0 0 1 0 .642Zm0 5.938H32.815a.32.32 0 0 1 0-.642h23.448a.32.32 0 0 1 0 .642Z" fill="#D1D3D4"/><path fill="#231F20" d="M31.674 114.466h21.904v3.142H31.674z"/><path fill-rule="evenodd" clip-rule="evenodd" d="M31.673 117.929h21.904a.32.32 0 0 0 .32-.321v-3.142a.32.32 0 0 0-.32-.32H31.673a.32.32 0 0 0-.32.32v3.142a.32.32 0 0 0 .32.321Zm21.584-.641H31.993v-2.501h21.264v2.501Z" fill="#231F20"/><path fill="#D1D3D4" d="M64.684 128.035h2.422v.641h-2.422zm-4.249 7.015h2.422v.641h-2.422zm3.024 6.663h2.422v.641h-2.422z"/><path d="M93.515 157.417c-5.954-9.522-21.11-16.294-38.867-16.294-17.758 0-32.908 6.772-38.88 16.294h77.747Z" fill="#E7816B"/><path fill-rule="evenodd" clip-rule="evenodd" d="M15.767 157.712h77.748a.314.314 0 0 0 .18-.448c-6.12-9.831-21.866-16.436-39.092-16.436s-32.946 6.605-39.092 16.436a.294.294 0 0 0 0 .301c.053.092.15.148.256.147Zm77.21-.583H16.319c6.241-9.42 21.538-15.711 38.329-15.711 16.79 0 32.093 6.291 38.328 15.711Z" fill="#231F20"/><path d="M92.182 162.535h-73.12l-3.172-5.265h77.523l-1.23 5.265Z" fill="#231F20"/><path fill-rule="evenodd" clip-rule="evenodd" d="M19.062 162.855h73.12a.32.32 0 0 0 .34-.25l1.224-5.264a.315.315 0 0 0-.314-.392H15.89a.315.315 0 0 0-.276.161.334.334 0 0 0 0 .327l3.172 5.264a.318.318 0 0 0 .276.154Zm72.864-.641H19.24l-2.781-4.623h76.543l-1.077 4.623Z" fill="#231F20"/><path fill="#231F20" d="M17.318 162.535h76.088v9.491H17.318z"/><path fill-rule="evenodd" clip-rule="evenodd" d="M17.319 172.359h76.087a.32.32 0 0 0 .32-.321v-9.49a.32.32 0 0 0-.32-.321H17.318a.32.32 0 0 0-.32.321v9.49a.32.32 0 0 0 .32.321Zm75.767-.642H17.639v-8.849h75.447v8.849Z" fill="#231F20"/><path d="M87.58 158.514c-4.92-7.875-17.45-13.466-32.125-13.466s-27.21 5.598-32.132 13.466h64.258Z" fill="#E7816B"/><path fill-rule="evenodd" clip-rule="evenodd" d="M23.323 158.803H87.58a.295.295 0 0 0 .25-.443c-5.088-8.144-18.097-13.614-32.375-13.614-14.278 0-27.294 5.47-32.382 13.614a.289.289 0 0 0 .25.443Zm63.719-.552H23.861c5.178-7.759 17.777-12.883 31.594-12.883 13.816 0 26.409 5.188 31.587 12.883Z" fill="#231F20"/><path fill-rule="evenodd" clip-rule="evenodd" d="M31.962 158.835h46.98a.334.334 0 0 0 .308-.148.328.328 0 0 0 0-.308c-3.736-8.169-13.285-13.658-23.776-13.658-10.49 0-20.045 5.489-23.781 13.658a.328.328 0 0 0 0 .308c.06.09.16.145.269.148Zm46.474-.642H32.468c3.807-7.695 12.945-12.825 22.987-12.825 10.042 0 19.206 5.13 22.981 12.825Z" fill="#231F20"/><path fill-rule="evenodd" clip-rule="evenodd" d="M41.824 158.835h27.255a.319.319 0 0 0 .308-.404c-2.173-8.202-7.767-13.71-13.932-13.71s-11.766 5.508-13.939 13.71a.32.32 0 0 0 .308.404Zm26.839-.642H42.24c2.172-7.695 7.453-12.825 13.214-12.825s11.035 5.13 13.208 12.825Z" fill="#231F20"/><path fill-rule="evenodd" clip-rule="evenodd" d="M51.392 158.835h8.12a.333.333 0 0 0 .237-.103.34.34 0 0 0 .083-.244c-.532-6.656-1.916-13.767-4.377-13.767-2.46 0-3.858 7.111-4.383 13.767a.34.34 0 0 0 .083.244.333.333 0 0 0 .237.103Zm7.774-.642h-7.428c.705-8.426 2.397-12.825 3.717-12.825 1.32 0 3.006 4.399 3.71 12.825Z" fill="#231F20"/><path d="M86.479 162.74H24.426l-1.013-4.354h64.078l-1.012 4.354Z" fill="#fff"/><path fill-rule="evenodd" clip-rule="evenodd" d="M24.425 163.061h62.053a.321.321 0 0 0 .32-.251l1.013-4.347a.328.328 0 0 0-.058-.276.327.327 0 0 0-.256-.122H23.413a.328.328 0 0 0-.314.398l1.012 4.347a.322.322 0 0 0 .314.251Zm61.778-.642H24.68l-.865-3.713h63.252l-.865 3.713Z" fill="#231F20"/><path fill="#E7816B" d="M23.413 162.74h64.085v9.285H23.413z"/><path fill-rule="evenodd" clip-rule="evenodd" d="M23.406 172.32h64.085a.296.296 0 0 0 .294-.295v-9.285a.295.295 0 0 0-.294-.295H23.406a.295.295 0 0 0-.295.295v9.285c0 .163.132.295.295.295Zm63.796-.603H23.701v-8.682h63.501v8.682Z" fill="#231F20"/><path d="M87.08 160.887H25.618a.32.32 0 0 1 0-.642h61.464a.32.32 0 0 1 0 .642Z" fill="#D1D3D4"/><path fill="#231F20" d="M25.912 165.35h12.176v6.675H25.912z"/><path fill-rule="evenodd" clip-rule="evenodd" d="M25.92 172.359h12.175a.32.32 0 0 0 .32-.334v-6.675a.327.327 0 0 0-.32-.321H25.92a.327.327 0 0 0-.32.321v6.688a.32.32 0 0 0 .32.321Zm11.848-.642H26.233v-6.034h11.535v6.034Z" fill="#231F20"/><path d="M29.026 172.359a.32.32 0 0 1-.32-.321v-6.688a.32.32 0 1 1 .64 0v6.675a.32.32 0 0 1-.32.334Zm2.981 0a.32.32 0 0 1-.32-.321v-6.688a.32.32 0 0 1 .32-.321.327.327 0 0 1 .32.321v6.675a.32.32 0 0 1-.32.334Zm2.986 0a.32.32 0 0 1-.32-.321v-6.688a.327.327 0 0 1 .32-.321.32.32 0 0 1 .32.321v6.675a.32.32 0 0 1-.32.334Z" fill="#fff"/><path fill="#231F20" d="M41.549 165.35h12.176v6.675H41.549z"/><path fill-rule="evenodd" clip-rule="evenodd" d="M41.549 172.359h12.176a.321.321 0 0 0 .32-.334v-6.675a.32.32 0 0 0-.32-.321H41.549a.32.32 0 0 0-.32.321v6.688a.32.32 0 0 0 .32.321Zm11.856-.642H41.869v-6.034h11.536v6.034Z" fill="#231F20"/><path d="M44.657 172.359a.32.32 0 0 1-.32-.321v-6.688a.327.327 0 0 1 .32-.321.32.32 0 0 1 .32.321v6.675a.32.32 0 0 1-.32.334Zm2.98 0a.32.32 0 0 1-.32-.321v-6.688a.32.32 0 1 1 .64 0v6.675a.32.32 0 0 1-.32.334Zm2.979 0a.32.32 0 0 1-.32-.321v-6.688a.32.32 0 0 1 .32-.321.327.327 0 0 1 .32.321v6.675a.32.32 0 0 1-.32.334Z" fill="#fff"/><path fill="#231F20" d="M57.179 165.35h12.176v6.675H57.179z"/><path fill-rule="evenodd" clip-rule="evenodd" d="M57.179 172.359h12.176a.321.321 0 0 0 .32-.334v-6.675a.32.32 0 0 0-.32-.321H57.179a.32.32 0 0 0-.32.321v6.688a.32.32 0 0 0 .32.321Zm11.855-.642H57.5v-6.034h11.535v6.034Z" fill="#231F20"/><path d="M60.293 172.359a.32.32 0 0 1-.32-.321v-6.688a.32.32 0 0 1 .32-.321.327.327 0 0 1 .32.321v6.675a.32.32 0 0 1-.32.334Zm2.974 0a.32.32 0 0 1-.32-.321v-6.688a.327.327 0 0 1 .32-.321.32.32 0 0 1 .32.321v6.675a.32.32 0 0 1-.32.334Zm2.98 0a.32.32 0 0 1-.32-.321v-6.688a.32.32 0 0 1 .32-.321.327.327 0 0 1 .32.321v6.675a.32.32 0 0 1-.32.334Z" fill="#fff"/><path fill="#231F20" d="M72.81 165.35h12.176v6.675H72.81z"/><path fill-rule="evenodd" clip-rule="evenodd" d="M72.803 172.359h12.176a.32.32 0 0 0 .32-.334v-6.675a.327.327 0 0 0-.32-.321H72.803a.327.327 0 0 0-.32.321v6.688a.32.32 0 0 0 .32.321Zm11.85-.642H73.116v-6.034h11.535v6.034Z" fill="#231F20"/><path d="M75.924 172.359a.32.32 0 0 1-.32-.321v-6.688a.32.32 0 0 1 .32-.321.327.327 0 0 1 .32.321v6.675a.32.32 0 0 1-.32.334Zm2.974 0a.32.32 0 0 1-.32-.321v-6.688a.328.328 0 0 1 .32-.321.32.32 0 0 1 .32.321v6.675a.32.32 0 0 1-.32.334Zm2.979 0a.32.32 0 0 1-.32-.321v-6.688a.32.32 0 1 1 .64 0v6.675a.32.32 0 0 1-.32.334Z" fill="#fff"/><path d="M95.553 36.836a.32.32 0 0 1-.32-.32V30.91a.32.32 0 0 1 .32-.321.327.327 0 0 1 .32.32v5.605a.327.327 0 0 1-.32.32Z" fill="#231F20"/><path fill="#E7816B" d="M92.944 63.916h5.216v3.61h-5.216z"/><path fill-rule="evenodd" clip-rule="evenodd" d="M92.944 67.834h5.217a.295.295 0 0 0 .288-.308v-3.61c0-.16-.13-.289-.288-.289h-5.217a.295.295 0 0 0-.295.289v3.623a.301.301 0 0 0 .295.295Zm4.922-.59h-4.627v-3.033h4.627v3.033Z" fill="#231F20"/><path fill="#fff" d="M91.919 61.588h7.267v2.334h-7.267z"/><path fill-rule="evenodd" clip-rule="evenodd" d="M91.92 64.237h7.266a.32.32 0 0 0 .32-.321v-2.328a.32.32 0 0 0-.32-.32H91.92a.32.32 0 0 0-.32.32v2.328c0 .177.143.32.32.32Zm6.946-.642H92.24V61.91h6.626v1.686Z" fill="#231F20"/><path d="M94.149 41.427h2.807l.564 20.161h-3.935l.564-20.16Z" fill="#E7816B"/><path fill-rule="evenodd" clip-rule="evenodd" d="M93.586 61.877h3.935a.294.294 0 0 0 .192-.084.327.327 0 0 0 .083-.211l-.545-20.161a.295.295 0 0 0-.294-.289H94.15a.295.295 0 0 0-.295.289l-.564 20.16a.295.295 0 0 0 .083.212.275.275 0 0 0 .212.084Zm3.633-.584h-3.332l.545-19.57h2.236l.551 19.57Z" fill="#231F20"/><path d="M98.469 49.988c0 .385-.308.737-.814.994h-4.21c-.506-.257-.814-.61-.814-.994.05-.422.325-.782.718-.943h4.447c.374.175.629.533.673.943Z" fill="#fff"/><path fill-rule="evenodd" clip-rule="evenodd" d="M93.445 51.303h4.21c.049.012.1.012.148 0 .546-.205.928-.702.987-1.283a1.481 1.481 0 0 0-.872-1.225.327.327 0 0 0-.16-.038h-4.41a.327.327 0 0 0-.16.038c-.493.218-.83.687-.877 1.225a1.53 1.53 0 0 0 .993 1.282.27.27 0 0 0 .14 0Zm4.133-.642h-4.05c-.365-.199-.577-.346-.577-.641 0-.295.276-.513.481-.641h4.242c.302.211.475.442.475.641s-.205.442-.57.641Z" fill="#231F20"/><path d="M94.566 35.99h1.973l.116 5.437H94.45l.115-5.438Z" fill="#231F20"/><path fill-rule="evenodd" clip-rule="evenodd" d="M94.45 41.748h2.205a.352.352 0 0 0 .205-.096.346.346 0 0 0 .09-.231l-.116-5.438a.315.315 0 0 0-.32-.314h-1.948a.314.314 0 0 0-.32.314l-.116 5.438a.32.32 0 0 0 .09.23.327.327 0 0 0 .23.097Zm1.878-.642h-1.55l.102-4.796h1.346l.102 4.796Z" fill="#231F20"/><path d="M88.863 67.379h13.374c.606 0 1.096.49 1.096 1.096v1.77h-15.56v-1.77c0-.603.487-1.093 1.09-1.096Z" fill="#fff"/><path fill-rule="evenodd" clip-rule="evenodd" d="M87.773 70.566h15.559a.321.321 0 0 0 .321-.32v-1.77c0-.783-.634-1.418-1.417-1.418H88.862c-.78.004-1.41.637-1.41 1.417v1.77c0 .177.144.32.32.32Zm15.239-.641H88.093v-1.45c0-.426.343-.772.769-.776h13.374a.777.777 0 0 1 .776.776v1.45Z" fill="#231F20"/><path fill="#231F20" d="M92.361 81.519h6.383v90.507h-6.383z"/><path fill-rule="evenodd" clip-rule="evenodd" d="M92.336 172.359h6.409a.32.32 0 0 0 .32-.334V81.518a.327.327 0 0 0-.32-.32h-6.409a.32.32 0 0 0-.32.32v90.52a.32.32 0 0 0 .32.321Zm6.1-.642H92.67V81.839h5.768v89.878Z" fill="#231F20"/><path d="M97.886 84.346h-4.672a.32.32 0 0 1-.32-.32.327.327 0 0 1 .32-.32h4.672a.32.32 0 0 1 0 .64Zm.025 1.444h-4.717a.32.32 0 0 1 0-.642h4.717a.32.32 0 0 1 0 .641Zm.019 1.513h-4.76a.327.327 0 0 1-.321-.321.32.32 0 0 1 .32-.32h4.761a.32.32 0 0 1 0 .64Zm.026 1.519H93.15a.32.32 0 0 1 0-.64h4.806a.32.32 0 0 1 0 .64Zm.026 1.552h-4.858a.32.32 0 0 1 0-.641h4.858a.32.32 0 0 1 0 .641Zm.026 1.578h-4.91a.32.32 0 0 1 0-.642h4.91a.327.327 0 0 1 .32.321.32.32 0 0 1-.32.32Zm.024 1.616h-4.96a.32.32 0 0 1 0-.642h4.96a.32.32 0 0 1 0 .642Zm.026 1.648h-5.011a.32.32 0 0 1 0-.642h5.011a.32.32 0 0 1 0 .642Zm.026 1.68h-5.062a.32.32 0 0 1 0-.642h5.062a.327.327 0 0 1 .32.321.32.32 0 0 1-.32.32Zm.026 1.718h-5.126a.32.32 0 0 1 0-.64h5.126a.32.32 0 0 1 0 .64Zm.025 1.751H92.97a.32.32 0 0 1 0-.641h5.165a.32.32 0 0 1 0 .641Zm.027 1.795h-5.223a.326.326 0 0 1-.32-.32.32.32 0 0 1 .32-.321h5.223a.32.32 0 0 1 0 .641Zm.031 1.828h-5.28a.32.32 0 1 1 0-.641h5.28a.327.327 0 0 1 .32.32.32.32 0 0 1-.32.321Zm.027 1.873h-5.34a.328.328 0 0 1-.32-.321.32.32 0 0 1 .32-.321h5.338a.32.32 0 0 1 0 .642Zm.03 1.91h-5.395a.32.32 0 1 1 0-.641h5.395a.32.32 0 0 1 0 .641Zm.032 1.956h-5.46a.32.32 0 1 1 0-.641h5.46a.32.32 0 0 1 .32.321.327.327 0 0 1-.32.32Zm.033 2.001h-5.524a.32.32 0 0 1 0-.641h5.524a.32.32 0 0 1 .32.32.327.327 0 0 1-.32.321Zm.025 2.039h-5.58a.32.32 0 0 1-.32-.32.327.327 0 0 1 .32-.321h5.582a.32.32 0 0 1 0 .641Zm.039 2.097h-5.652a.32.32 0 1 1 0-.641h5.652a.32.32 0 0 1 .32.32.327.327 0 0 1-.32.321Zm.058 2.142h-5.768a.32.32 0 0 1 0-.641h5.768a.32.32 0 0 1 .32.32.327.327 0 0 1-.32.321Zm0 2.193h-5.768a.32.32 0 0 1 0-.641h5.768a.32.32 0 1 1 0 .641Zm.038 2.244h-5.85a.327.327 0 0 1-.321-.32.32.32 0 0 1 .32-.321h5.851a.32.32 0 0 1 0 .641Zm.038 2.296h-5.921a.32.32 0 1 1 0-.641h5.921a.32.32 0 1 1 0 .641Zm-5.959 1.719h5.998v.641h-5.998zm-.038 2.417h6.075v.641h-6.075zm-.039 2.475h6.146v.641h-6.146zm-.038 2.54h6.229v.641h-6.229zm-.04 2.603h6.306v.641h-6.306zm-.043 2.674h6.389v.641h-6.389zm-.04 2.751h6.479v.641h-6.479zm-.044 2.815h6.562v.641h-6.562zm-.045 2.899h6.652v.641h-6.652zm-.045 2.975h6.748v.641h-6.748zm-.051 3.066h6.838v.641h-6.838zm-.052 3.148h6.94v.641h-6.94zm-.045 3.238h7.036v.641h-7.036zm-.051 3.335h7.139v.641h-7.139zm-.057 3.437h7.248v.641h-7.248z" fill="#fff"/><path d="M92.67 172.025c2.345-30.222 2.473-90.507 2.473-90.507h-2.615c-3.698 69.731-7.248 86.57-8.523 90.507h8.664Z" fill="#E7816B"/><path fill-rule="evenodd" clip-rule="evenodd" d="M83.992 172.32h8.677a.294.294 0 0 0 .276-.263c2.32-29.889 2.48-89.923 2.48-90.526a.308.308 0 0 0-.084-.205.301.301 0 0 0-.211-.09h-2.615a.295.295 0 0 0-.288.282c-3.672 69.186-7.178 86.281-8.51 90.418a.293.293 0 0 0 .038.262.298.298 0 0 0 .237.122Zm8.401-.59h-7.991l-.013-.013c1.423-4.764 4.839-22.815 8.408-89.904h2.038c-.013 4.617-.243 61.048-2.442 89.917Z" fill="#231F20"/><path d="M107.108 172.025c-1.282-3.943-4.826-20.776-8.524-90.507H95.97s.134 60.279 2.48 90.507h8.658Z" fill="#E7816B"/><path fill-rule="evenodd" clip-rule="evenodd" d="M98.436 172.32h8.671a.28.28 0 0 0 .224-.134.295.295 0 0 0 .045-.263c-1.339-4.124-4.838-21.219-8.51-90.417a.295.295 0 0 0-.295-.282h-2.615a.288.288 0 0 0-.205.09.307.307 0 0 0-.083.205c0 .602.154 60.637 2.48 90.526a.288.288 0 0 0 .288.275Zm8.274-.603h-7.992c-2.204-28.856-2.441-85.287-2.454-89.916h2.044c3.563 67.088 6.985 85.139 8.402 89.916Z" fill="#231F20"/><path d="M87.773 78.652h15.56v1.77c0 .606-.491 1.097-1.096 1.097H88.862a1.096 1.096 0 0 1-1.095-1.097v-1.77h.006Z" fill="#fff"/><path fill-rule="evenodd" clip-rule="evenodd" d="M88.862 81.84h13.374c.783 0 1.417-.635 1.417-1.418v-1.77a.321.321 0 0 0-.321-.32h-15.56a.32.32 0 0 0-.32.32v1.77c0 .78.63 1.414 1.41 1.417Zm-.769-1.418v-1.45h14.919v1.45a.776.776 0 0 1-.776.776H88.862a.776.776 0 0 1-.769-.776Z" fill="#231F20"/><rect x="85.671" y="68.815" width="19.757" height="10.818" rx="3.18" fill="#E7816B"/><path fill-rule="evenodd" clip-rule="evenodd" d="M87.716 79.922h15.675a2.333 2.333 0 0 0 2.332-2.334v-6.734a2.333 2.333 0 0 0-2.332-2.334H87.716a2.333 2.333 0 0 0-2.333 2.334v6.734a2.333 2.333 0 0 0 2.333 2.334Zm-1.237-10.297c.328-.327.773-.51 1.237-.508h15.675a1.75 1.75 0 0 1 1.749 1.737v6.74a1.75 1.75 0 0 1-1.749 1.75H87.716a1.75 1.75 0 0 1-1.75-1.75v-6.733c0-.464.184-.909.513-1.236Z" fill="#231F20"/><path d="M106.018 71.874h-20.93a.32.32 0 0 1 0-.641h20.93a.32.32 0 0 1 0 .641Zm0 2.668h-20.93a.32.32 0 0 1 0-.642h20.93a.326.326 0 0 1 .32.321.32.32 0 0 1-.32.32Zm0 2.668h-20.93a.32.32 0 0 1 0-.642h20.93a.326.326 0 0 1 .32.32.32.32 0 0 1-.32.321Zm28.479 45.349a.32.32 0 0 1-.32-.321v-11.049a.32.32 0 0 1 .641 0v11.049a.321.321 0 0 1-.321.321Z" fill="#231F20"/><path fill="#fff" d="M131.209 123.758h13.156v48.267h-13.156z"/><path fill-rule="evenodd" clip-rule="evenodd" d="M131.209 172.359h13.157a.322.322 0 0 0 .32-.334v-48.267a.32.32 0 0 0-.32-.321h-13.157a.32.32 0 0 0-.32.321v48.28a.32.32 0 0 0 .32.321Zm12.855-.642h-12.515l-.019-47.638h12.534v47.638Z" fill="#231F20"/><path fill="#231F20" d="M131.209 121.257h6.575v2.501h-6.575z"/><path fill-rule="evenodd" clip-rule="evenodd" d="M131.209 124.079h6.575a.321.321 0 0 0 .321-.321v-2.501a.321.321 0 0 0-.321-.321h-6.575a.32.32 0 0 0-.32.321v2.501a.32.32 0 0 0 .32.321Zm6.255-.642h-5.934v-1.859h5.934v1.859Z" fill="#231F20"/><path fill="#fff" d="M143.392 78.171h39.463v93.854h-39.463z"/><path fill-rule="evenodd" clip-rule="evenodd" d="M143.392 77.53h39.463c.354 0 .641.287.641.641v93.854a.642.642 0 0 1-.641.642h-39.463a.642.642 0 0 1-.641-.642V78.171c0-.354.287-.641.641-.641Zm39.463 94.495V78.171h-39.463v93.854h39.463Z" fill="#231F20"/><path fill="#D1D3D4" d="M143.392 85.167h39.463v.641h-39.463zm0 7.554h39.463v.641h-39.463zm0 7.561h39.463v.641h-39.463zm0 7.554h39.463v.641h-39.463zm0 7.56h39.463v.641h-39.463zm0 7.554h39.463v.641h-39.463zm0 7.56h39.463v.641h-39.463zm0 7.554h39.463v.641h-39.463zm0 7.554h39.463v.641h-39.463zm0 7.561h39.463v.641h-39.463zm0 7.554h39.463v.641h-39.463z"/><path fill="#fff" d="M153.806 71.105h18.636v100.921h-18.636z"/><path fill-rule="evenodd" clip-rule="evenodd" d="M153.806 172.359h18.636a.322.322 0 0 0 .32-.334V71.105a.32.32 0 0 0-.32-.321h-18.636a.321.321 0 0 0-.321.32v100.934c0 .177.144.321.321.321Zm18.328-.642h-18.008V71.425h18.008v100.292Z" fill="#231F20"/><path d="M172.442 81.942h-18.636a.321.321 0 1 1 0-.642h18.636a.32.32 0 0 1 0 .642Zm0 7.528h-18.636a.321.321 0 1 1 0-.641h18.636a.32.32 0 0 1 0 .641Zm0 7.554h-18.636a.321.321 0 1 1 0-.641h18.636a.32.32 0 0 1 0 .641Zm0 7.56h-18.636a.32.32 0 1 1 0-.641h18.636a.32.32 0 0 1 0 .641Zm0 7.554h-18.636a.32.32 0 1 1 0-.641h18.636a.32.32 0 0 1 0 .641Zm0 7.561h-18.636a.32.32 0 1 1 0-.641h18.636a.32.32 0 0 1 0 .641Zm0 7.554h-18.636a.32.32 0 1 1 0-.641h18.636a.32.32 0 0 1 0 .641Zm0 7.554h-18.636a.32.32 0 1 1 0-.641h18.636a.32.32 0 0 1 0 .641Zm0 7.56h-18.636a.32.32 0 1 1 0-.641h18.636a.32.32 0 0 1 0 .641Zm0 7.548h-18.636a.32.32 0 1 1 0-.641h18.636a.32.32 0 0 1 0 .641Zm0 7.567h-18.636a.321.321 0 0 1 0-.642h18.636a.32.32 0 0 1 0 .642Zm-15.9-89.372h13.156v3.027h-13.156z" fill="#231F20"/><path fill-rule="evenodd" clip-rule="evenodd" d="M156.542 71.464h13.157a.32.32 0 0 0 .32-.321V68.11a.32.32 0 0 0-.32-.32h-13.157a.327.327 0 0 0-.32.32v3.033a.327.327 0 0 0 .32.32Zm12.836-.642h-12.496l-.019-2.392h12.515v2.392Z" fill="#231F20"/><path fill="#D1D3D4" d="M134.605 130.805h2.422v.641h-2.422zm3.333 7.272h2.422v.641h-2.422zm-3.633 7.272h2.422v.641h-2.422zm1.211 10.908h2.422v.641h-2.422z"/><path fill="#E7816B" d="M113.112 164.959h72.46v7.067h-72.46z"/><path fill-rule="evenodd" clip-rule="evenodd" d="M113.112 172.32h72.48a.295.295 0 0 0 .295-.295v-7.054a.29.29 0 0 0-.295-.288h-72.48a.295.295 0 0 0-.295.288v7.054a.302.302 0 0 0 .295.295Zm72.172-.603h-71.877v-6.476h71.877v6.476Z" fill="#231F20"/><path d="M132.574 160.72s4.255-4.591 16.771-4.591c12.516 0 16.765 4.591 16.765 4.591h-33.536Z" fill="#E7816B"/><path fill-rule="evenodd" clip-rule="evenodd" d="M132.574 161.015h33.536a.296.296 0 0 0 .269-.173.31.31 0 0 0-.051-.321c-.18-.192-4.486-4.681-16.983-4.681-12.496 0-16.809 4.489-16.982 4.681a.295.295 0 0 0-.058.321.31.31 0 0 0 .269.173Zm32.748-.584h-31.959c1.525-1.167 6.242-4.007 15.982-4.007 9.741 0 14.451 2.84 15.977 4.007Z" fill="#231F20"/><path fill-rule="evenodd" clip-rule="evenodd" d="M135.977 165.305h26.73a.33.33 0 0 0 .263-.128l3.082-4.239a.326.326 0 0 0-.262-.513h-32.895a.328.328 0 0 0-.263.513l3.089 4.239c.059.082.155.13.256.128Zm26.544-.641h-26.377l-2.621-3.598h31.613l-2.615 3.598Z" fill="#231F20"/><path d="m141.937 165.164-3.204-3.918-2.852 3.905-.519-.378 3.096-4.239a.322.322 0 0 1 .25-.135.36.36 0 0 1 .256.122l3.486 4.239-.513.404Z" fill="#231F20"/><path d="m148.903 165.164-3.204-3.918-2.852 3.905-.519-.378 3.095-4.239a.325.325 0 0 1 .25-.135.354.354 0 0 1 .257.122l3.486 4.239-.513.404Z" fill="#231F20"/><path d="m155.869 165.164-3.204-3.918-2.852 3.905-.519-.378 3.095-4.239a.323.323 0 0 1 .25-.135.341.341 0 0 1 .256.122l3.487 4.239-.513.404Z" fill="#231F20"/><path d="m162.836 165.164-3.205-3.918-2.877 3.905-.513-.378 3.089-4.239a.33.33 0 0 1 .25-.135.35.35 0 0 1 .256.122l3.487 4.239-.487.404Zm-41.752 6.874h-.641c.14-2.297.157-4.601.052-6.9.047.102.15.167.262.167v-.641l.25.109c.109.083.353.34.077 7.265Zm9.51 0h-.641c.143-2.297.16-4.601.051-6.9.05.103.155.168.27.167v-.641l.243.109c.103.083.353.34.077 7.265Zm9.498 0h-.641c.143-2.297.16-4.601.051-6.9.05.103.155.168.27.167v-.641l.243.109c.115.083.359.34.077 7.265Zm9.51 0h-.641c.143-2.297.16-4.601.051-6.9.05.103.155.168.269.167v-.641l.244.109c.109.083.352.34.077 7.265Z" fill="#231F20"/><path d="M159.106 172.038h-.641c.14-2.297.159-4.6.058-6.9a.274.274 0 0 0 .262.167v-.641l.25.109c.103.083.346.34.071 7.265Zm9.504 0h-.641c.143-2.297.162-4.6.057-6.9.045.105.15.171.263.167v-.641l.25.109c.103.083.346.34.071 7.265Zm9.503 0h-.641c.143-2.297.162-4.6.057-6.9a.291.291 0 0 0 .263.167v-.641l.25.109c.103.083.346.34.071 7.265Z" fill="#231F20"/><path fill="#231F20" d="M113.112 166.761h72.46v.641h-72.46zm78.247 5.867H10.641a.32.32 0 1 1 0-.641h180.718a.32.32 0 1 1 0 .641Z"/><defs><linearGradient id="a" x1="0" y1="202" x2="202" y2="202" gradientUnits="userSpaceOnUse"><stop stop-color="#5D0202" stop-opacity=".01"/><stop offset="1" stop-color="#5D0202" stop-opacity=".498"/></linearGradient></defs></svg>