<svg width="202" height="202" fill="none" xmlns="http://www.w3.org/2000/svg"><circle opacity=".203" cx="101" cy="101" r="101" transform="matrix(0 1 1 0 0 0)" fill="url(#a)"/><path d="m64.201 90.934 4.7-4.831-4.7 4.83Z" fill="#fff"/><path d="M64.2 91.204a.262.262 0 0 1-.186-.077.27.27 0 0 1 0-.381l4.671-4.83a.268.268 0 0 1 .385.375l-4.7 4.83a.274.274 0 0 1-.17.083Z" fill="#231F20"/><path d="m68.901 90.934-4.7-4.831 4.7 4.83Z" fill="#fff"/><path d="M68.9 91.204a.273.273 0 0 1-.192-.082l-4.671-4.831a.265.265 0 0 1 0-.376.268.268 0 0 1 .38 0l4.7 4.83a.277.277 0 0 1 0 .382.262.262 0 0 1-.216.077Z" fill="#231F20"/><path d="m68.901 90.934 4.7-4.831-4.7 4.83Z" fill="#fff"/><path d="M68.9 91.204a.256.256 0 0 1-.186-.077.277.277 0 0 1 0-.381l4.67-4.83a.262.262 0 0 1 .374 0 .259.259 0 0 1 0 .375l-4.67 4.83a.274.274 0 0 1-.187.083Z" fill="#231F20"/><path d="m73.602 90.934-4.7-4.831 4.7 4.83Z" fill="#fff"/><path d="M73.602 91.204a.274.274 0 0 1-.193-.082l-4.671-4.831a.271.271 0 0 1 .013-.374.268.268 0 0 1 .372-.002l4.671 4.83a.264.264 0 0 1 0 .382.244.244 0 0 1-.192.077Z" fill="#231F20"/><path d="m73.6 90.934 4.695-4.831-4.694 4.83Z" fill="#fff"/><path d="M73.601 91.204a.245.245 0 0 1-.187-.077.271.271 0 0 1 0-.381l4.7-4.83a.268.268 0 0 1 .354.02.271.271 0 0 1 .026.355l-4.7 4.83a.274.274 0 0 1-.193.083Z" fill="#231F20"/><path d="M78.295 90.934 73.6 86.103l4.694 4.83Z" fill="#fff"/><path d="M78.312 91.204a.25.25 0 0 1-.186-.082l-4.7-4.831a.271.271 0 0 1 .025-.355.268.268 0 0 1 .354-.02l4.7 4.83a.27.27 0 0 1 0 .381.256.256 0 0 1-.193.077Z" fill="#231F20"/><path d="m78.295 90.934 4.7-4.831-4.7 4.83Z" fill="#fff"/><path d="M78.313 91.204a.262.262 0 0 1-.187-.077.27.27 0 0 1 0-.381l4.671-4.83c.105-.101.27-.1.373 0 .104.102.11.267.013.375l-4.671 4.83a.274.274 0 0 1-.199.083Z" fill="#231F20"/><path d="m82.995 90.934-4.7-4.831 4.7 4.83Z" fill="#fff"/><path d="M82.984 91.204a.274.274 0 0 1-.193-.082L78.12 86.29a.265.265 0 0 1 0-.376.268.268 0 0 1 .38 0l4.67 4.83a.277.277 0 0 1 0 .382.262.262 0 0 1-.186.077Z" fill="#231F20"/><path d="m82.995 90.934 4.7-4.831-4.7 4.83Z" fill="#fff"/><path d="M82.984 91.204a.256.256 0 0 1-.187-.077.277.277 0 0 1 0-.381l4.7-4.83a.268.268 0 0 1 .458.187c0 .07-.028.138-.078.188l-4.671 4.83a.273.273 0 0 1-.222.083Z" fill="#231F20"/><path d="m87.695 90.934-4.7-4.831 4.7 4.83Z" fill="#fff"/><path d="M87.696 91.204a.274.274 0 0 1-.193-.082l-4.7-4.831a.271.271 0 0 1 .013-.374.268.268 0 0 1 .373-.002l4.67 4.83a.271.271 0 0 1 0 .382.263.263 0 0 1-.163.077Z" fill="#231F20"/><path d="m87.695 90.934 4.695-4.831-4.695 4.83Z" fill="#fff"/><path d="M87.696 91.204a.256.256 0 0 1-.187-.077.27.27 0 0 1 0-.381l4.671-4.83a.268.268 0 0 1 .354.02.271.271 0 0 1 .026.355l-4.7 4.83a.274.274 0 0 1-.164.083Z" fill="#231F20"/><path d="m92.39 90.934-4.695-4.831 4.695 4.83Z" fill="#fff"/><path d="M92.39 91.204a.262.262 0 0 1-.187-.082l-4.671-4.831a.271.271 0 0 1 .026-.355.268.268 0 0 1 .353-.02l4.7 4.83a.27.27 0 0 1 0 .381.256.256 0 0 1-.221.077Z" fill="#231F20"/><path d="m92.39 90.934 4.7-4.831-4.7 4.83Z" fill="#fff"/><path d="M92.39 91.204a.262.262 0 0 1-.186-.077.27.27 0 0 1 0-.381l4.67-4.83c.105-.101.27-.1.373 0 .104.102.11.267.013.375l-4.7 4.83a.274.274 0 0 1-.17.083Z" fill="#231F20"/><path d="m97.09 90.934-4.7-4.831 4.7 4.83Z" fill="#fff"/><path d="M97.09 91.204a.274.274 0 0 1-.193-.082l-4.67-4.831a.265.265 0 0 1 0-.376.268.268 0 0 1 .379 0l4.7 4.83a.277.277 0 0 1 0 .382.262.262 0 0 1-.216.077Z" fill="#231F20"/><path d="m103.811 90.934 4.7-4.831-4.7 4.83Z" fill="#fff"/><path d="M103.81 91.204a.263.263 0 0 1-.187-.077.272.272 0 0 1 0-.381l4.671-4.83a.268.268 0 0 1 .373 0 .271.271 0 0 1 .013.375l-4.677 4.83a.274.274 0 0 1-.193.083Z" fill="#231F20"/><path d="m108.511 90.934-4.7-4.831 4.7 4.83Z" fill="#fff"/><path d="M108.511 91.204a.274.274 0 0 1-.193-.082l-4.671-4.831a.265.265 0 0 1 0-.376.268.268 0 0 1 .38 0l4.7 4.83a.276.276 0 0 1 0 .382.256.256 0 0 1-.216.077Z" fill="#231F20"/><path d="m108.511 90.934 4.7-4.831-4.7 4.83Z" fill="#fff"/><path d="M108.511 91.204a.263.263 0 0 1-.187-.077.278.278 0 0 1 0-.381l4.7-4.83a.268.268 0 0 1 .458.187c0 .07-.028.138-.078.188l-4.671 4.83a.273.273 0 0 1-.222.083Z" fill="#231F20"/><path d="m113.211 90.934-4.7-4.831 4.7 4.83Z" fill="#fff"/><path d="M113.211 91.204a.274.274 0 0 1-.193-.082l-4.7-4.831a.27.27 0 0 1 .013-.374.267.267 0 0 1 .372-.002l4.671 4.83a.27.27 0 0 1 0 .382.263.263 0 0 1-.163.077Z" fill="#231F20"/><path d="m113.211 90.934 4.694-4.831-4.694 4.83Z" fill="#fff"/><path d="M113.211 91.204a.258.258 0 0 1-.187-.077.278.278 0 0 1 0-.381l4.701-4.83a.267.267 0 0 1 .353.02.272.272 0 0 1 .026.355l-4.671 4.83a.25.25 0 0 1-.222.083Z" fill="#231F20"/><path d="m117.905 90.934-4.694-4.831 4.694 4.83Z" fill="#fff"/><path d="M117.905 91.204a.276.276 0 0 1-.187-.082l-4.7-4.831a.27.27 0 0 1 0-.376.262.262 0 0 1 .374 0l4.671 4.83a.272.272 0 0 1 0 .382.247.247 0 0 1-.158.077Z" fill="#231F20"/><path d="m117.905 90.934 4.7-4.831-4.7 4.83Z" fill="#fff"/><path d="M117.906 91.204a.243.243 0 0 1-.181-.077.264.264 0 0 1 0-.381l4.671-4.83a.26.26 0 0 1 .373 0 .27.27 0 0 1 0 .375l-4.7 4.83a.274.274 0 0 1-.163.083Z" fill="#231F20"/><path d="m122.605 90.934-4.7-4.831 4.7 4.83Z" fill="#fff"/><path d="M122.605 91.204a.247.247 0 0 1-.186-.082l-4.671-4.831a.257.257 0 0 1 0-.376.26.26 0 0 1 .373 0l4.7 4.83a.276.276 0 0 1 0 .382.256.256 0 0 1-.216.077Z" fill="#231F20"/><path d="m122.605 90.934 4.701-4.831-4.701 4.83Z" fill="#fff"/><path d="M122.605 91.204a.263.263 0 0 1-.187-.077.272.272 0 0 1 0-.381l4.671-4.83a.268.268 0 0 1 .373 0 .271.271 0 0 1 .013.375l-4.7 4.83a.279.279 0 0 1-.17.083Z" fill="#231F20"/><path d="m127.306 90.934-4.701-4.831 4.701 4.83Z" fill="#fff"/><path d="M127.306 91.204a.274.274 0 0 1-.193-.082l-4.671-4.831a.265.265 0 0 1 0-.376.268.268 0 0 1 .38 0l4.7 4.83a.276.276 0 0 1 0 .382.262.262 0 0 1-.216.077Z" fill="#231F20"/><path d="m127.306 90.934 4.7-4.831-4.7 4.83Z" fill="#fff"/><path d="M127.306 91.204a.256.256 0 0 1-.187-.077.278.278 0 0 1 0-.381l4.671-4.83a.262.262 0 0 1 .374 0 .26.26 0 0 1 0 .375l-4.671 4.83a.276.276 0 0 1-.187.083Z" fill="#231F20"/><path d="m132.006 90.934-4.7-4.831 4.7 4.83Z" fill="#fff"/><path d="M132.029 91.204a.271.271 0 0 1-.192-.082l-4.671-4.831a.271.271 0 0 1 .012-.374.268.268 0 0 1 .373-.002l4.671 4.83a.264.264 0 0 1 0 .382.246.246 0 0 1-.193.077Z" fill="#231F20"/><path d="m132.006 90.934 4.694-4.831-4.694 4.83Z" fill="#fff"/><path d="M132.029 91.204a.258.258 0 0 1-.187-.077.272.272 0 0 1 0-.381l4.7-4.83a.264.264 0 0 1 .374 0 .27.27 0 0 1 0 .375l-4.671 4.83a.272.272 0 0 1-.216.083Z" fill="#231F20"/><path d="m136.7 90.934-4.694-4.831 4.694 4.83Z" fill="#fff"/><path d="M136.7 91.204a.25.25 0 0 1-.187-.082l-4.7-4.831a.272.272 0 0 1 .026-.355.268.268 0 0 1 .354-.02l4.671 4.83a.278.278 0 0 1 0 .381.259.259 0 0 1-.164.077Z" fill="#231F20"/><path d="M142.113 86.185H58.888a.262.262 0 0 1-.269-.264c0-.149.12-.27.269-.27h83.225a.269.269 0 0 1 .189.459.26.26 0 0 1-.189.075Z" fill="#231F20"/><path fill="#fff" d="M62.274 132.12h76.446v2.671H62.274z"/><path fill-rule="evenodd" clip-rule="evenodd" d="M62.273 135.043h76.453a.262.262 0 0 0 .262-.258v-2.676a.263.263 0 0 0-.262-.264H62.273a.263.263 0 0 0-.262.264v2.67c0 .146.117.264.262.264Zm76.178-.516H62.548v-2.137h75.903v2.137Z" fill="#231F20"/><path d="M138.726 134.797v15.848h-9.155s-6.253-14.205-29.071-14.205c-22.817 0-29.07 14.205-29.07 14.205h-9.156v-15.848h76.452Z" fill="#fff"/><path fill-rule="evenodd" clip-rule="evenodd" d="M129.571 150.891h9.156a.27.27 0 0 0 .268-.27v-15.848a.266.266 0 0 0-.079-.19.265.265 0 0 0-.189-.08H62.274a.269.269 0 0 0-.269.27v15.848a.27.27 0 0 0 .27.27h9.155a.278.278 0 0 0 .245-.158c.058-.141 6.463-14.052 28.825-14.052 22.363 0 28.768 13.911 28.826 14.052a.279.279 0 0 0 .245.158Zm8.881-.534h-8.711v.024c-.794-1.579-7.818-14.228-29.235-14.228-21.416 0-28.446 12.631-29.24 14.21H62.55v-15.32h75.903v15.314Z" fill="#231F20"/><path fill="#231F20" d="M59.349 90.934h82.302v2.448H59.349z"/><path fill-rule="evenodd" clip-rule="evenodd" d="M59.325 93.675h82.326a.293.293 0 0 0 .292-.305v-2.436a.293.293 0 0 0-.292-.294H59.325a.293.293 0 0 0-.292.294v2.447c0 .162.13.294.292.294Zm82.046-.587h-81.73l-.012-1.86h81.742v1.86Z" fill="#231F20"/><path d="m97.19 84.935 3.31-2.295 3.311 2.295v5.999h-6.622v-5.999Z" fill="#E7816B"/><path fill-rule="evenodd" clip-rule="evenodd" d="M96.92 90.934c0 .149.121.27.27.27h6.621a.27.27 0 0 0 .268-.27v-5.999a.269.269 0 0 0-.117-.223l-3.31-2.295a.285.285 0 0 0-.304 0l-3.31 2.295a.27.27 0 0 0-.117.223v5.999Zm6.628-5.858v5.594h-6.096v-5.594l3.048-2.113 3.048 2.113Z" fill="#231F20"/><path d="M97.19 89.63a.262.262 0 0 1-.27-.263v-6.034a.27.27 0 0 1 .12-.267.267.267 0 0 1 .292 0 .27.27 0 0 1 .12.267v6.034a.263.263 0 0 1-.263.264Zm6.621 0a.263.263 0 0 1-.263-.263v-6.034a.269.269 0 1 1 .531 0v6.034a.263.263 0 0 1-.268.264Zm-3.311-6.72a.275.275 0 0 1-.269-.27v-1.667c0-.15.121-.27.269-.27a.27.27 0 0 1 .269.27v1.667a.276.276 0 0 1-.269.27Zm-90.179 49.199v-15.678c18.684-3.128 37.368-26.037 37.368-26.037l-1.028 4.513s-19.028 21.618-36.351 23.631" fill="#231F20"/><path fill-rule="evenodd" clip-rule="evenodd" d="M10.03 132.12a.293.293 0 1 0 .583-.011v-13.307c17.172-2.183 36.09-23.478 36.276-23.695a.252.252 0 0 0 .07-.13l1.022-4.513a.306.306 0 0 0-.152-.329.297.297 0 0 0-.356.083l-.01.013c-.54.648-19.005 22.873-37.188 25.912a.3.3 0 0 0-.246.294v15.683Zm.583-13.916v-1.526c16.366-2.888 32.82-20.902 36.539-25.187l-.748 3.275c-1.08 1.21-19.285 21.289-35.79 23.438Z" fill="#231F20"/><path d="M15.973 132.39a.261.261 0 0 1-.262-.27v-14.873a.27.27 0 0 1 .53 0v14.862a.263.263 0 0 1-.268.281Zm6.043 0a.264.264 0 0 1-.269-.27v-17.438a.27.27 0 0 1 .532 0v17.427a.264.264 0 0 1-.263.281Zm6.312 0a.27.27 0 0 1-.268-.27v-21.142c0-.149.12-.27.268-.27a.27.27 0 0 1 .268.27v21.131a.27.27 0 0 1-.268.281Zm6.312 0a.26.26 0 0 1-.188-.079.266.266 0 0 1-.075-.191v-25.837a.269.269 0 0 1 .531 0v25.826a.263.263 0 0 1-.269.281Zm20.137-79.104a.27.27 0 0 1-.268-.264v-5.33c0-.148.12-.27.268-.27a.27.27 0 0 1 .269.27v5.33a.27.27 0 0 1-.269.264Zm-.747 1.144h1.495l6.48 26.79H47.55l6.48-26.79Z" fill="#231F20"/><path fill-rule="evenodd" clip-rule="evenodd" d="M47.554 81.507h14.451a.289.289 0 0 0 .292-.358l-6.475-26.783a.287.287 0 0 0-.28-.229h-1.513a.298.298 0 0 0-.286.23l-6.475 26.782a.29.29 0 0 0 .286.358Zm14.077-.587H47.922l6.335-26.196h1.04L61.63 80.92Z" fill="#231F20"/><path fill="#231F20" d="M54.035 52.423h1.489v2.007h-1.489z"/><path fill-rule="evenodd" clip-rule="evenodd" d="M54.059 54.724h1.483a.293.293 0 0 0 .291-.293v-2.008a.293.293 0 0 0-.291-.293h-1.483a.293.293 0 0 0-.292.293v2.008c0 .162.13.293.291.293Zm1.214-.587h-.9v-1.42h.9v1.42Z" fill="#231F20"/><path d="M57.936 80.34v-6.346l-3.16-5.341-3.158 5.341v6.345h-3.036v50.778h12.39V80.339h-3.036Z" fill="#E7816B"/><path fill-rule="evenodd" clip-rule="evenodd" d="M48.588 131.387h12.384a.27.27 0 0 0 .263-.264V80.345a.263.263 0 0 0-.263-.264h-2.774V74a.271.271 0 0 0-.035-.135l-3.158-5.341a.274.274 0 0 0-.456 0l-3.158 5.341a.271.271 0 0 0-.035.135v6.075h-2.768a.262.262 0 0 0-.269.264v50.778c0 .149.12.27.269.27Zm12.115-.54H48.851l-.059-50.238h2.768a.27.27 0 0 0 .268-.27v-6.274l2.92-4.89 2.92 4.89v6.274a.275.275 0 0 0 .268.27h2.767v50.238Z" fill="#231F20"/><path d="M60.972 85.258H48.588a.268.268 0 0 1-.265-.12.271.271 0 0 1 0-.294.268.268 0 0 1 .265-.12h12.384a.27.27 0 0 1 0 .534Zm-8.384 9.679h-1.956v-6.363c0-.546.98-1.426.98-1.426s.976.88.976 1.426v6.363Zm3.17 0H53.79v-6.363c0-.546.98-1.426.98-1.426s.982.88.982 1.426l.006 6.363Zm3.165 0h-1.956v-6.363c0-.546.975-1.426.975-1.426s.98.88.98 1.426v6.363Zm-6.335 11.933h-1.956v-6.392c0-.54.98-1.427.98-1.427s.976.887.976 1.427v6.392Zm3.17 0H53.79v-6.392c0-.54.98-1.427.98-1.427s.982.887.982 1.427l.006 6.392Zm3.165 0h-1.956v-6.392c0-.54.975-1.427.975-1.427s.98.887.98 1.427v6.392Zm-6.335 11.885h-1.956v-6.368c0-.546.98-1.426.98-1.426s.976.88.976 1.426v6.368Zm3.17 0H53.79v-6.368c0-.546.98-1.426.98-1.426s.982.88.982 1.426l.006 6.368Zm3.165 0h-1.956v-6.368c0-.546.975-1.426.975-1.426s.98.88.98 1.426v6.368Zm1.606 3.516H49.026a.27.27 0 0 1-.268-.264.275.275 0 0 1 .268-.27H60.53a.275.275 0 0 1 .268.27.269.269 0 0 1-.268.264Zm-14.002-61.66 2.954 11.311h-5.909l2.955-11.31Z" fill="#231F20"/><path fill-rule="evenodd" clip-rule="evenodd" d="M43.573 72.24h5.909a.292.292 0 0 0 .216-.118.283.283 0 0 0 .052-.253l-2.954-11.31a.304.304 0 0 0-.584 0l-2.92 11.31a.295.295 0 0 0 .047.253.303.303 0 0 0 .234.117Zm5.547-.588h-5.167l2.592-9.867 2.575 9.867Z" fill="#231F20"/><path d="m44.635 71.922.122 18.853 1.127 3.017v37.325h3.626V93.411l-.882-1.978v-19.51h-3.993Z" fill="#E7816B"/><path fill-rule="evenodd" clip-rule="evenodd" d="M45.884 131.387h3.626a.275.275 0 0 0 .263-.27V93.411a.313.313 0 0 0 0-.106l-.858-1.931V71.922a.27.27 0 0 0-.269-.27h-3.994a.268.268 0 0 0-.268.27l.128 18.853a.27.27 0 0 0 0 .094l1.104 2.97v37.278a.275.275 0 0 0 .268.27Zm3.358-.54h-3.09l.007-37.06a.296.296 0 0 0 0-.095l-1.11-2.97-.122-18.536h3.456v19.247a.386.386 0 0 0 0 .111l.859 1.925v37.378Z" fill="#231F20"/><path d="M48.63 84.442h-3.913a.268.268 0 0 1-.265-.12.271.271 0 0 1 0-.293.268.268 0 0 1 .265-.121h3.912a.27.27 0 1 1 0 .534Zm.88 9.614h-3.626a.268.268 0 0 1-.265-.12.271.271 0 0 1 0-.293.268.268 0 0 1 .265-.12h3.626a.268.268 0 0 1 .265.12.271.271 0 0 1 0 .293.268.268 0 0 1-.265.12Zm13.518-33.445-2.955 11.311h5.909l-2.954-11.31Z" fill="#231F20"/><path fill-rule="evenodd" clip-rule="evenodd" d="M59.845 72.122a.291.291 0 0 0 .228.117h5.908a.303.303 0 0 0 .251-.117.3.3 0 0 0 .053-.253l-2.954-11.31a.304.304 0 0 0-.584 0l-2.955 11.31a.283.283 0 0 0 .053.253Zm3.182-10.337 2.575 9.867h-5.15l2.575-9.867Z" fill="#231F20"/><path d="m64.92 71.922-.123 18.853-1.127 3.017v37.325h-3.626V93.411l.882-1.978v-19.51h3.993Z" fill="#E7816B"/><path fill-rule="evenodd" clip-rule="evenodd" d="M60.044 131.387h3.625a.275.275 0 0 0 .257-.27V93.839l1.11-2.97a.526.526 0 0 0 0-.094l.128-18.853a.259.259 0 0 0-.268-.27h-3.994a.27.27 0 0 0-.269.27v19.452l-.858 1.931a.313.313 0 0 0 0 .106v37.706a.275.275 0 0 0 .269.27Zm3.357-.54h-3.089l.006-37.378.858-1.925a.253.253 0 0 0 0-.111V72.186h3.457l-.123 18.536-1.11 2.97a.296.296 0 0 0 0 .094v37.061Z" fill="#231F20"/><path d="M64.837 84.442h-3.912a.27.27 0 1 1 0-.534h3.912a.27.27 0 1 1 0 .534Zm-1.167 9.614h-3.627a.268.268 0 0 1-.265-.12.271.271 0 0 1 0-.293.268.268 0 0 1 .265-.12h3.626a.268.268 0 0 1 .266.12.271.271 0 0 1 0 .293.268.268 0 0 1-.266.12ZM46.527 61.345a.27.27 0 0 1-.268-.27V58.44c0-.15.12-.27.268-.27a.27.27 0 0 1 .269.27v2.647a.27.27 0 0 1-.269.258Zm16.5 0a.262.262 0 0 1-.262-.27V58.44a.27.27 0 0 1 .12-.267.267.267 0 0 1 .29 0 .27.27 0 0 1 .12.267v2.647a.265.265 0 0 1-.268.258Z" fill="#231F20"/><path fill="#E7816B" d="M41.827 131.117h25.877v19.534H41.827z"/><path fill-rule="evenodd" clip-rule="evenodd" d="M41.827 150.891H67.71a.269.269 0 0 0 .269-.24v-19.534a.275.275 0 0 0-.269-.27H41.827a.269.269 0 0 0-.262.27v19.51c0 .146.117.264.262.264Zm25.632-.51H42.113v-18.994H67.46v18.994Z" fill="#231F20"/><path d="M55.758 81.214H53.79V74.85c0-.546.98-1.426.98-1.426s.982.88.982 1.426l.006 6.363Z" fill="#231F20"/><path fill-rule="evenodd" clip-rule="evenodd" d="M53.79 81.507h1.968a.293.293 0 0 0 .286-.293V74.85c0-.646-.9-1.485-1.08-1.643a.285.285 0 0 0-.386 0c-.18.158-1.08.997-1.08 1.643v6.363c0 .162.13.293.292.293Zm1.676-.587h-1.378v-6.069a2.3 2.3 0 0 1 .689-1.021c.318.27.556.624.689 1.021v6.07Z" fill="#231F20"/><path fill="#fff" d="M10.321 132.12h31.506v2.671H10.321z"/><path fill-rule="evenodd" clip-rule="evenodd" d="M10.298 135.043h31.529a.264.264 0 0 0 .269-.258v-2.676a.266.266 0 0 0-.08-.189.259.259 0 0 0-.19-.075H10.299a.264.264 0 0 0-.263.264v2.67c0 .146.118.264.263.264Zm31.266-.516h-30.98v-2.137h30.98v2.137Z" fill="#231F20"/><path fill="#fff" d="M10.321 134.797h31.506v15.854H10.321z"/><path fill-rule="evenodd" clip-rule="evenodd" d="M10.298 150.891h31.53a.265.265 0 0 0 .268-.264v-15.848a.263.263 0 0 0-.269-.27H10.298a.264.264 0 0 0-.263.27v15.848c0 .146.118.264.263.264Zm31.266-.51h-30.98v-15.338h30.98v15.338Z" fill="#231F20"/><path d="M40.945 132.39a.264.264 0 0 1-.269-.27v-31.396a.269.269 0 1 1 .532 0v31.385a.264.264 0 0 1-.263.281Zm149.734-.281v-15.678c-18.684-3.128-37.367-26.037-37.367-26.037l1.027 4.513s19.028 21.618 36.352 23.631" fill="#231F20"/><path fill-rule="evenodd" clip-rule="evenodd" d="M190.387 132.12c0 .163.13.294.292.294a.294.294 0 0 0 .321-.305v-15.701a.3.3 0 0 0-.245-.294c-18.185-3.04-36.649-25.264-37.188-25.913l-.011-.013a.296.296 0 0 0-.356-.082.306.306 0 0 0-.152.329l.993 4.537a.25.25 0 0 0 .07.13c.187.216 19.104 21.511 36.276 23.695v13.323Zm0-13.916c-16.524-2.149-34.711-22.228-35.792-23.438l-.747-3.275c3.719 4.285 20.19 22.299 36.539 25.187v1.526Z" fill="#231F20"/><path d="M185.027 132.39a.26.26 0 0 1-.192-.077.27.27 0 0 1-.077-.193v-14.873a.27.27 0 0 1 .266-.23.27.27 0 0 1 .266.23v14.862a.263.263 0 0 1-.263.281Zm-6.043 0a.265.265 0 0 1-.245-.281v-17.427a.268.268 0 0 1 .531 0v17.427a.262.262 0 0 1-.286.281Zm-6.311 0a.265.265 0 0 1-.19-.079.267.267 0 0 1-.079-.191v-21.142a.27.27 0 1 1 .537 0v21.131a.27.27 0 0 1-.268.281Zm-6.312 0a.26.26 0 0 1-.192-.077.27.27 0 0 1-.077-.193v-25.837a.27.27 0 0 1 .266-.231.27.27 0 0 1 .266.231v25.826a.263.263 0 0 1-.263.281Zm-20.138-79.104a.27.27 0 0 1-.269-.264v-5.33a.269.269 0 1 1 .537 0v5.33a.269.269 0 0 1-.268.264Zm.747 1.144h-1.501l-6.475 26.79h14.457l-6.481-26.79Z" fill="#231F20"/><path fill-rule="evenodd" clip-rule="evenodd" d="M138.995 81.507h14.451c.09 0 .176-.04.233-.111a.29.29 0 0 0 .053-.247l-6.476-26.783a.297.297 0 0 0-.286-.229h-1.5a.285.285 0 0 0-.28.23l-6.476 26.782a.29.29 0 0 0 .281.358Zm14.083-.587h-13.71l6.335-26.196h1.04l6.335 26.196Z" fill="#231F20"/><path fill="#231F20" d="M146.965 54.436h-1.489V52.43h1.489z"/><path fill-rule="evenodd" clip-rule="evenodd" d="M145.458 54.724h1.506a.294.294 0 0 0 .269-.293v-2.008a.293.293 0 0 0-.292-.293h-1.483a.293.293 0 0 0-.292.293v2.008c0 .162.131.293.292.293Zm1.238-.587h-.899v-1.42h.899v1.42Z" fill="#231F20"/><path d="M143.064 80.34v-6.346l3.159-5.341 3.159 5.341v6.345h3.036v50.778h-12.39V80.339h3.036Z" fill="#E7816B"/><path fill-rule="evenodd" clip-rule="evenodd" d="M140.028 131.387h12.384a.27.27 0 0 0 .269-.264V80.345a.263.263 0 0 0-.269-.264h-2.767V74a.277.277 0 0 0-.035-.135l-3.159-5.341a.274.274 0 0 0-.455 0l-3.159 5.341a.266.266 0 0 0-.035.135v6.075h-2.774a.263.263 0 0 0-.262.264v50.778c0 .147.116.267.262.27Zm12.122-.54h-11.853V80.609h2.767a.275.275 0 0 0 .269-.27v-6.274l2.89-4.89 2.89 4.89v6.274c0 .15.121.27.269.27h2.768v50.238Z" fill="#231F20"/><path d="M152.412 85.258h-12.384a.27.27 0 0 1-.229-.267.27.27 0 0 1 .229-.267h12.384a.268.268 0 0 1 .265.12.272.272 0 0 1 0 .293.268.268 0 0 1-.265.12Zm-4 9.679h1.956v-6.363c0-.546-.981-1.426-.981-1.426s-.975.88-.975 1.426v6.363Zm-3.17 0h1.968v-6.363c0-.546-.981-1.426-.981-1.426s-.981.88-.981 1.426l-.006 6.363Zm-3.165 0h1.956v-6.363c0-.546-.975-1.426-.975-1.426s-.981.88-.981 1.426v6.363Zm6.335 11.933h1.956v-6.392c0-.54-.981-1.427-.981-1.427s-.975.887-.975 1.427v6.392Zm-3.17 0h1.968v-6.392c0-.54-.981-1.427-.981-1.427s-.981.887-.981 1.427l-.006 6.392Zm-3.165 0h1.956v-6.392c0-.54-.975-1.427-.975-1.427s-.981.887-.981 1.427v6.392Zm6.335 11.885h1.956v-6.368c0-.546-.981-1.426-.981-1.426s-.975.88-.975 1.426v6.368Zm-3.17 0h1.968v-6.368c0-.546-.981-1.426-.981-1.426s-.981.88-.981 1.426l-.006 6.368Zm-3.165 0h1.956v-6.368c0-.546-.975-1.426-.975-1.426s-.981.88-.981 1.426v6.368Zm9.412-21.277H140.98a.275.275 0 0 1-.269-.27.269.269 0 0 1 .269-.264h10.509a.27.27 0 0 1 .269.264.276.276 0 0 1-.269.27Zm.001 12.133h-10.51a.27.27 0 0 1-.265-.414.267.267 0 0 1 .265-.12h10.51a.267.267 0 0 1 .265.12.27.27 0 0 1-.265.414Zm.484 12.66h-11.502a.27.27 0 0 1-.269-.264.275.275 0 0 1 .269-.27h11.502a.276.276 0 0 1 .269.27.27.27 0 0 1-.269.264Zm2.499-61.66-2.954 11.311h5.908l-2.954-11.31Z" fill="#231F20"/><path fill-rule="evenodd" clip-rule="evenodd" d="M151.519 72.24h5.909a.304.304 0 0 0 .245-.142.299.299 0 0 0 .047-.252l-2.92-11.31a.303.303 0 0 0-.584 0l-2.977 11.333a.283.283 0 0 0 .052.253.292.292 0 0 0 .228.117Zm5.512-.588h-5.15l2.575-9.867 2.575 9.867Z" fill="#231F20"/><path d="m156.365 71.922-.123 18.853-1.127 3.017v37.325h-3.626V93.411l.882-1.978v-19.51h3.994Z" fill="#E7816B"/><path fill-rule="evenodd" clip-rule="evenodd" d="M151.49 131.387h3.626a.274.274 0 0 0 .268-.27V93.839l1.098-2.97a.247.247 0 0 0 0-.094l.128-18.853a.267.267 0 0 0-.268-.27h-3.994a.269.269 0 0 0-.268.27v19.452l-.859 1.931a.313.313 0 0 0 0 .106v37.706a.275.275 0 0 0 .269.27Zm3.357-.54h-3.089l.024-37.378.858-1.925a.348.348 0 0 0 0-.111V72.186h3.439l-.123 18.536-1.109 2.97a.296.296 0 0 0 0 .094v37.061Z" fill="#231F20"/><path d="M156.283 84.442h-3.911a.27.27 0 1 1 0-.534h3.911a.269.269 0 0 1 .266.12.272.272 0 0 1 0 .293.269.269 0 0 1-.266.121Zm-1.167 9.614h-3.626a.267.267 0 0 1-.265-.12.268.268 0 0 1 0-.293.267.267 0 0 1 .265-.12h3.626a.268.268 0 0 1 .265.12.272.272 0 0 1 0 .293.268.268 0 0 1-.265.12Zm-17.143-33.445 2.954 11.311h-5.908l2.954-11.31Z" fill="#231F20"/><path fill-rule="evenodd" clip-rule="evenodd" d="M134.785 72.122a.302.302 0 0 0 .233.117h5.909a.29.29 0 0 0 .245-.117.283.283 0 0 0 .053-.253l-2.955-11.31a.303.303 0 0 0-.584 0l-2.954 11.31a.3.3 0 0 0 .053.253Zm3.188-10.337 2.574 9.867h-5.149l2.575-9.867Z" fill="#231F20"/><path d="m136.081 71.922.123 18.853 1.127 3.017v37.325h3.625V93.411l-.881-1.978v-19.51h-3.994Z" fill="#E7816B"/><path fill-rule="evenodd" clip-rule="evenodd" d="M137.331 131.387h3.626a.276.276 0 0 0 .257-.27V93.411a.313.313 0 0 0 0-.106l-.859-1.931V71.922a.27.27 0 0 0-.268-.27h-3.994a.259.259 0 0 0-.269.27l.129 18.853a.491.491 0 0 0 0 .094l1.109 2.97v37.278a.275.275 0 0 0 .269.27Zm3.357-.54h-3.089l-.017-37.06a.296.296 0 0 0 0-.095l-1.109-2.97-.123-18.536h3.48v19.247a.262.262 0 0 0 0 .111l.858 1.925v37.378Z" fill="#231F20"/><path d="M140.075 84.442h-3.912a.27.27 0 1 1 0-.534h3.912a.268.268 0 0 1 .265.12.272.272 0 0 1 0 .293.268.268 0 0 1-.265.121Zm.881 9.614h-3.625a.269.269 0 0 1-.266-.12.272.272 0 0 1 0-.293.269.269 0 0 1 .266-.12h3.625a.27.27 0 1 1 0 .533Zm13.517-32.711a.269.269 0 0 1-.257-.258V58.44a.269.269 0 1 1 .537 0v2.647a.269.269 0 0 1-.28.258Zm-16.5 0a.263.263 0 0 1-.269-.27V58.44a.27.27 0 0 1 .12-.267.269.269 0 0 1 .411.267v2.647a.263.263 0 0 1-.262.258Z" fill="#231F20"/><path fill="#E7816B" d="M133.29 131.117h25.877v19.534H133.29z"/><path fill-rule="evenodd" clip-rule="evenodd" d="M133.29 150.891h25.883a.263.263 0 0 0 .263-.24v-19.534a.27.27 0 0 0-.263-.27H133.29a.276.276 0 0 0-.269.27v19.51a.27.27 0 0 0 .269.264Zm25.597-.534h-25.328v-18.97h25.328v18.97Z" fill="#231F20"/><path d="M145.242 81.214h1.968V74.85c0-.546-.981-1.426-.981-1.426s-.981.88-.981 1.426l-.006 6.363Z" fill="#231F20"/><path fill="#fff" d="M190.673 134.797h-31.506v-2.671h31.506z"/><path fill-rule="evenodd" clip-rule="evenodd" d="M159.149 135.043h31.529a.262.262 0 0 0 .263-.258v-2.676a.263.263 0 0 0-.263-.264h-31.529a.264.264 0 0 0-.268.264v2.67a.262.262 0 0 0 .268.264Zm31.267-.534h-30.98v-2.136h30.98v2.136Z" fill="#231F20"/><path fill="#fff" d="M190.673 150.645h-31.506v-15.854h31.506z"/><path fill-rule="evenodd" clip-rule="evenodd" d="M159.15 150.891h31.529a.263.263 0 0 0 .262-.264v-15.848a.26.26 0 0 0-.075-.19.26.26 0 0 0-.187-.08H159.15a.266.266 0 0 0-.269.27v15.848a.264.264 0 0 0 .269.264Zm31.266-.534h-30.98v-15.314h30.98v15.314Z" fill="#231F20"/><path d="M160.055 132.39a.262.262 0 0 1-.263-.27v-31.396a.268.268 0 0 1 .411-.266.268.268 0 0 1 .12.266v31.385a.263.263 0 0 1-.268.281Z" fill="#231F20"/><path d="M74.284 151.478a.298.298 0 0 1-.292-.287.294.294 0 0 1 .286-.3 10.605 10.605 0 0 0 7.894-3.926.301.301 0 0 1 .21-.112.286.286 0 0 1 .222.082 9.835 9.835 0 0 0 5.495 2.888 6.194 6.194 0 0 0 5.581-2.048.29.29 0 0 1 .397-.053 7.738 7.738 0 0 0 10.428-1.761.301.301 0 0 1 .473 0c2.435 3.439 7.783 4.367 11.222 1.949a.28.28 0 0 1 .386.052 4.774 4.774 0 0 0 3.55 1.62 4.701 4.701 0 0 0 3.631-1.414.302.302 0 0 1 .251-.088.295.295 0 0 1 .216.147 2.638 2.638 0 0 0 1.678 1.163 2.618 2.618 0 0 0 2.001-.389.296.296 0 0 1 .408.059.295.295 0 0 1-.064.411 3.047 3.047 0 0 1-2.464.493 3.134 3.134 0 0 1-1.856-1.139 5.632 5.632 0 0 1-7.591-.287c-3.579 2.347-8.921 1.438-11.572-1.92a8.354 8.354 0 0 1-10.79 1.72 6.832 6.832 0 0 1-5.926 2.054 10.277 10.277 0 0 1-5.606-2.829 11.168 11.168 0 0 1-8.156 3.915h-.012Zm41.467 2.589a4.208 4.208 0 0 1-3.054-1.174 5.817 5.817 0 0 1-7.882-.992 10.736 10.736 0 0 1-7.491 1.72.297.297 0 0 1 .087-.587c2.568.373 5.18-.257 7.299-1.761a.302.302 0 0 1 .222-.053c.076.016.145.06.192.123a5.237 5.237 0 0 0 7.415.934.287.287 0 0 1 .415.035 3.746 3.746 0 0 0 3.246 1.174 11.696 11.696 0 0 0 3.579-1.174.293.293 0 0 1 .386.152.296.296 0 0 1-.146.388 12.112 12.112 0 0 1-3.766 1.174 4.97 4.97 0 0 1-.502.041Zm-34.174.534a.293.293 0 0 1-.286-.253.299.299 0 0 1 .245-.334 5.322 5.322 0 0 0 3.124-1.679.305.305 0 0 1 .204-.094.276.276 0 0 1 .21.082 3.639 3.639 0 0 0 2.26 1.11 2.365 2.365 0 0 0 2.148-.963.286.286 0 0 1 .24-.129.358.358 0 0 1 .245.123 2.142 2.142 0 0 0 2.51.734.29.29 0 0 1 .298.029.294.294 0 0 1-.07.511 2.756 2.756 0 0 1-2.971-.64 3.061 3.061 0 0 1-2.441.922 4.139 4.139 0 0 1-2.406-1.074 5.907 5.907 0 0 1-3.263 1.649l-.047.006Z" fill="#D1D3D4"/><defs><linearGradient id="a" x1="0" y1="202" x2="202" y2="202" gradientUnits="userSpaceOnUse"><stop stop-color="#5D0202" stop-opacity=".01"/><stop offset="1" stop-color="#5D0202" stop-opacity=".498"/></linearGradient></defs></svg>